<?xml version="1.0" standalone="no"?>
<!DOCTYPE svg PUBLIC "-//W3C//DTD SVG 1.1//EN" "http://www.w3.org/Graphics/SVG/1.1/DTD/svg11.dtd" >
<svg>
<metadata>
Created by FontForge 20110222 at Wed Aug 27 14:25:50 2014
 By Orthosie Webhosting
Copyright (c) 2014 by Typetype. Designer Ivan Gladkikh, technical designers Elena Podushka, Olexa Volochay, Nadyr Rakhimov. All rights reserved.
</metadata>
<defs>
<font id="Souses" horiz-adv-x="605" >
  <font-face 
    font-family="Souses"
    font-weight="400"
    font-stretch="normal"
    units-per-em="1000"
    panose-1="2 0 5 3 0 0 0 2 0 3"
    ascent="800"
    descent="-200"
    x-height="510"
    cap-height="705"
    bbox="-129 -370 1310.38 1060"
    underline-thickness="50"
    underline-position="-50"
    unicode-range="U+0020-F6D4"
  />
<missing-glyph horiz-adv-x="0" 
 />
    <glyph glyph-name=".notdef" horiz-adv-x="0" 
 />
    <glyph glyph-name=".null" horiz-adv-x="0" 
 />
    <glyph glyph-name="nonmarkingreturn" horiz-adv-x="333" 
 />
    <glyph glyph-name="space" unicode=" " horiz-adv-x="260" 
 />
    <glyph glyph-name="exclam" unicode="!" horiz-adv-x="365" 
d="M250 230l-188 10l76 490l257 -20zM141 180q47 0 75.5 -30.5t22.5 -69.5q-7 -39 -46 -69.5t-87 -30.5t-76 30.5t-21 69.5q6 39 45 69.5t87 30.5z" />
    <glyph glyph-name="quotedbl" unicode="&#x22;" horiz-adv-x="515" 
d="M234 420h-140l9 280h205zM474 420h-145l24 280h205z" />
    <glyph glyph-name="numbersign" unicode="#" horiz-adv-x="795" 
d="M-20 175l61 145h105l43 75h-105l51 145h150l84 165h200l-89 -165h65l94 165l201 5l-101 -175h100l-65 -140h-95l-38 -75h120l-81 -145l-131 -5l-78 -160l-211 -10l90 175h-60l-90 -170l-211 -10l90 175zM398 415l-61 -115h85l61 115h-85z" />
    <glyph glyph-name="dollar" unicode="$" horiz-adv-x="610" 
d="M649 620l-128 -155q-8 8 -21 19.5t-49 31t-67 19.5q-28 0 -46.5 -12t-20.5 -28q-3 -17 18 -31.5t55 -24.5t72 -28t70 -40t48 -62.5t7 -93.5q-13 -72 -74 -132t-159 -86l-14 -82l-193 -15l15 85q-58 10 -109 39t-73 52l-23 24l137 150q11 -10 28.5 -24t61.5 -37.5
t75 -23.5q37 0 58 13t24 27q3 18 -18 32t-54.5 23.5t-71 27t-68.5 40.5t-46.5 66t-5.5 101q12 67 67.5 124t143.5 83l16 88l188 -10l-12 -67q46 -10 88 -33.5t62 -41.5z" />
    <glyph glyph-name="percent" unicode="%" horiz-adv-x="964" 
d="M698 755l179 -90l-562 -665h-225zM221 350q-85 0 -128 52.5t-29 132.5q14 77 79 141t147 64q88 0 135 -62t32 -144q-13 -79 -78.5 -131.5t-157.5 -52.5zM269 590q-12 0 -24 -16.5t-16 -38.5q-4 -23 3 -39t22 -16q12 0 24 15t16 40q9 55 -25 55zM686 -20q-85 0 -128 52.5
t-29 132.5q13 76 78.5 140.5t147.5 64.5q88 0 135 -62t31 -144q-12 -79 -77.5 -131.5t-157.5 -52.5zM733 220q-11 0 -23 -16.5t-16 -38.5q-5 -23 2.5 -39t22.5 -16q12 0 23.5 15t16.5 40q9 55 -26 55z" />
    <glyph glyph-name="ampersand" unicode="&#x26;" horiz-adv-x="710" 
d="M626 320l77 -130l-107 -70l84 -120l-254 -20l-23 40q-77 -40 -187 -40q-130 0 -189.5 58t-43.5 152q6 34 27 65.5t47 53.5t51 38.5t42 24.5l17 8l1 10q-6 6 -14 16.5t-18 47t-3 76.5q13 72 94.5 131t188.5 59q120 0 180 -58t47 -132q-6 -36 -26.5 -68t-44.5 -51.5
t-47 -34t-39 -20.5l-15 -6l-2 -10l55 -90zM197 210q-5 -23 12.5 -41.5t46.5 -18.5q13 0 26.5 5t19.5 10l7 5l-62 100q-5 -2 -12 -6.5t-21 -20t-17 -33.5zM381 460l5 2q5 3 13.5 8.5t17.5 13t16 20t10 26.5q4 22 -8.5 36t-32.5 14t-37.5 -14t-21.5 -36q-3 -18 6.5 -35.5
t20.5 -26.5z" />
    <glyph glyph-name="quotesingle" unicode="'" horiz-adv-x="285" 
d="M244 420h-140l9 280h205z" />
    <glyph glyph-name="parenleft" unicode="(" horiz-adv-x="410" 
d="M374 820l121 -110q-7 -7 -18.5 -20t-43.5 -55.5t-58 -88t-53.5 -114t-39.5 -137.5q-12 -71 -10 -130.5t13.5 -106.5t24.5 -80t24 -50l10 -18l-169 -105q-2 2 -6 7t-16.5 21t-24 33.5t-26 45.5t-26.5 57t-22.5 67.5t-16 77.5t-4.5 86.5t9 94.5q15 88 55 174.5t86 147
t89.5 108.5t72.5 71z" />
    <glyph glyph-name="parenright" unicode=")" horiz-adv-x="410" 
d="M65 710l159 110q3 -3 7.5 -8t17.5 -22t25.5 -36t29 -49t29.5 -61.5t25 -72.5t18 -83t5.5 -92t-9.5 -101q-15 -83 -52 -163.5t-79 -137t-82.5 -101t-66.5 -66.5l-27 -22l-130 105q6 6 17 17.5t40 50t53 80.5t49.5 106.5t37.5 130.5q17 124 2 216.5t-42 145.5z" />
    <glyph glyph-name="asterisk" unicode="*" horiz-adv-x="530" 
d="M122 640l120 -30l15 115l149 -10l-20 -110l122 40l21 -135l-101 -35l60 -85l-144 -80l-61 105l-100 -110l-101 80l81 90l-87 15z" />
    <glyph glyph-name="plus" unicode="+" horiz-adv-x="615" 
d="M26 265l30 170l188 -2l35 192l183 -10l-38 -183l186 -2l-42 -185l-182 6l-36 -171h-170l32 178z" />
    <glyph glyph-name="comma" unicode="," horiz-adv-x="290" 
d="M128 190q50 0 76 -35.5t16 -94.5q-13 -71 -64.5 -123.5t-120.5 -76.5l-37 76q43 14 61 40q13 18 -9 24q-31 8 -46 31t-9 59q7 39 46 69.5t87 30.5z" />
    <glyph glyph-name="hyphen" unicode="-" horiz-adv-x="490" 
d="M32 240l32 180l419 -5l-43 -185z" />
    <glyph glyph-name="period" unicode="." horiz-adv-x="290" 
d="M128 190q48 0 76 -30.5t21 -69.5q-6 -39 -45 -69.5t-87 -30.5q-47 0 -75.5 30.5t-22.5 69.5q7 39 46 69.5t87 30.5z" />
    <glyph glyph-name="slash" unicode="/" horiz-adv-x="640" 
d="M534 820l174 -90l-524 -820h-239z" />
    <glyph glyph-name="zero" unicode="0" horiz-adv-x="690" 
d="M34 340q18 101 70.5 187t136 139.5t180.5 53.5q62 0 112 -21t80 -57t49 -84t20.5 -100.5t-6.5 -107.5q-12 -68 -45 -133.5t-82 -118.5t-116.5 -85.5t-141.5 -32.5q-64 0 -114 20t-80 54.5t-49 81t-20.5 98t6.5 106.5zM323 160q42 0 79 60t49 130q6 45 6.5 87t-17 72.5
t-50.5 30.5q-46 0 -81.5 -60.5t-49.5 -139.5q-13 -73 1.5 -126.5t62.5 -53.5z" />
    <glyph glyph-name="one" unicode="1" horiz-adv-x="515" 
d="M-5 0l29 170h130l65 310l-142 -40l-37 130l261 150l177 -20l-104 -535l100 5l-19 -170h-460z" />
    <glyph glyph-name="two" unicode="2" horiz-adv-x="600" 
d="M563 190l-48 -190h-525l23 190q14 8 37.5 21.5t83.5 52t107 74t88.5 78.5t46.5 74q4 23 -7.5 36.5t-33.5 13.5q-36 0 -84 -24t-78 -48l-30 -23l-81 135q7 6 19 15.5t49 33.5t73.5 42.5t87 33.5t95.5 15q133 0 188 -50.5t37 -149.5q-10 -56 -44.5 -110.5t-76.5 -92.5
t-82.5 -68t-67.5 -45l-28 -14l-2 -10z" />
    <glyph glyph-name="three" unicode="3" horiz-adv-x="560" 
d="M-54 90l118 135q8 -8 21 -19.5t50.5 -31t71.5 -19.5q43 0 69.5 18.5t31.5 46.5q5 31 -14.5 48t-63.5 17h-75l32 155q5 0 14 1t32.5 6t42 12t34.5 20.5t19 30.5t-9.5 28.5t-43.5 11.5q-29 0 -64 -15t-56 -30l-20 -15l-66 130q5 4 15 11t40.5 24t60.5 30t71.5 24t78.5 11
q121 0 176.5 -51.5t42.5 -128.5q-6 -31 -21.5 -58t-33.5 -44t-35 -29.5t-29 -17.5l-11 -5l-2 -10l15 -5t31 -17t37.5 -32t25.5 -50.5t3 -71.5q-16 -93 -108.5 -156.5t-230.5 -63.5q-42 0 -83 11.5t-70 27.5t-52 32t-34 27z" />
    <glyph glyph-name="four" unicode="4" horiz-adv-x="600" 
d="M594 310l-22 -180l-78 10l-24 -140h-200l18 140l-277 10l-7 160l379 390h200l-59 -390h70zM224 310h100l16 121h-10l-104 -111z" />
    <glyph glyph-name="five" unicode="5" horiz-adv-x="570" 
d="M583 700l-22 -180l-248 10l-12 -70q12 1 31.5 0.5t67.5 -12t82 -33.5t56.5 -73t9.5 -122q-19 -111 -110.5 -175.5t-221.5 -64.5q-67 0 -133 22.5t-99 45.5l-32 22l112 155q9 -7 26 -18t65.5 -29t92.5 -18q35 0 55.5 17.5t24.5 42.5q3 16 -2.5 29.5t-22 26t-46 19.5
t-75 9.5t-109.5 -3.5l70 399h440z" />
    <glyph glyph-name="six" unicode="6" horiz-adv-x="610" 
d="M586 720v-170q-9 0 -23.5 -0.5t-54.5 -5.5t-75 -13.5t-73 -27t-59 -43.5l-2 -10q48 21 95.5 23.5t87 -13.5t67.5 -46.5t39 -79.5t1 -109q-18 -102 -111 -173.5t-212 -71.5q-130 0 -200 85t-45 225q69 401 565 430zM229 225q-6 -33 10.5 -54t46.5 -21t53.5 21t29.5 54
t-10.5 54t-46.5 21t-53.5 -21t-29.5 -54z" />
    <glyph glyph-name="seven" unicode="7" horiz-adv-x="540" 
d="M186 -20l-176 80l319 445l1 10l-271 -5l24 190l512 10l-24 -190z" />
    <glyph glyph-name="eight" unicode="8" horiz-adv-x="640" 
d="M605 200q-18 -102 -118 -166t-223 -64q-124 0 -200.5 64t-58.5 166q6 37 25.5 69.5t42 52t44 33.5t35.5 19l15 6l1 10q-2 1 -5 2t-13 6.5t-17.5 12.5t-17.5 19.5t-14.5 27t-8 35.5t2.5 46q13 76 100.5 128.5t200.5 52.5q107 0 179.5 -53t59.5 -127q-6 -33 -21 -61
t-32.5 -43.5t-34.5 -26.5t-28 -15l-11 -4l-1 -10q5 -2 13 -6t28 -19t33.5 -33.5t22 -51t1.5 -70.5zM294 140q80 0 93 75q6 29 -10 47t-58 18q-79 0 -92 -65q-13 -75 67 -75zM363 560q-65 0 -74 -55q-5 -23 11 -39t44 -16q64 0 75 55q4 25 -8.5 40t-47.5 15z" />
    <glyph glyph-name="nine" unicode="9" horiz-adv-x="610" 
d="M46 -20v170q9 0 23.5 0.5t54.5 5.5t75 13.5t73.5 27t59.5 43.5l2 10q-48 -21 -96 -23.5t-87.5 13.5t-67.5 46.5t-39 79.5t-1 109q18 102 111 173.5t212 71.5q130 0 200 -85t46 -225q-35 -199 -173.5 -307t-392.5 -123zM403 475q6 33 -10.5 54t-46.5 21t-53.5 -21
t-29.5 -54t10.5 -54t46.5 -21t53.5 21t29.5 54z" />
    <glyph glyph-name="colon" unicode=":" horiz-adv-x="290" 
d="M128 190q48 0 76 -30.5t21 -69.5q-6 -39 -45 -69.5t-87 -30.5q-47 0 -75.5 30.5t-22.5 69.5q7 39 46 69.5t87 30.5zM186 520q47 0 75.5 -30.5t22.5 -69.5q-7 -39 -46.5 -69.5t-86.5 -30.5t-75.5 30.5t-21.5 69.5q6 39 45 69.5t87 30.5z" />
    <glyph glyph-name="semicolon" unicode=";" horiz-adv-x="290" 
d="M186 520q47 0 75.5 -30.5t22.5 -69.5q-7 -39 -46.5 -69.5t-86.5 -30.5t-75.5 30.5t-21.5 69.5q6 39 45 69.5t87 30.5zM128 190q50 0 76 -35.5t16 -94.5q-13 -71 -64.5 -123.5t-120.5 -76.5l-37 76q43 14 61 40q13 18 -9 24q-31 8 -46 31t-9 59q7 39 46 69.5t87 30.5z" />
    <glyph glyph-name="less" unicode="&#x3c;" horiz-adv-x="580" 
d="M528 160l-100 -170l-423 210l49 165l497 155l20 -170l-284 -80l-2 -10z" />
    <glyph glyph-name="equal" unicode="=" horiz-adv-x="580" 
d="M12 130l29 160h490l-21 -175zM581 520l-28 -160h-490l21 175z" />
    <glyph glyph-name="greater" unicode="&#x3e;" horiz-adv-x="580" 
d="M48 -10l-40 170l277 100l2 10l-256 80l80 170l443 -155l-9 -165z" />
    <glyph glyph-name="question" unicode="?" horiz-adv-x="560" 
d="M171 460l-121 110q5 6 14.5 16t40.5 36t63.5 46t81 36t96.5 16q124 0 187.5 -57.5t47.5 -142.5q-8 -45 -26.5 -78.5t-40.5 -52t-48 -36t-48 -30t-40.5 -34t-25.5 -49.5l-197 20q11 44 34.5 77t49.5 51t51 32t43.5 31t22.5 39q3 21 -15 35.5t-36 14.5q-31 0 -64.5 -20
t-51.5 -40zM243 190q47 0 75.5 -30.5t21.5 -69.5q-6 -39 -45 -69.5t-87 -30.5q-47 0 -75.5 30.5t-22.5 69.5q7 39 46.5 69.5t86.5 30.5z" />
    <glyph glyph-name="at" unicode="@" horiz-adv-x="950" 
d="M417 154q-74 0 -105 53t-19 127q14 76 67 128t120 52q22 0 42 -9t28 -17l9 -9h5l19 25l124 -5l-37 -215q14 -5 24 -5q27 0 51 28.5t32 72.5q15 86 -48.5 153t-193.5 67q-133 0 -219 -71.5t-105 -178.5q-22 -125 48 -197.5t215 -72.5q42 0 92 7.5t79 14.5l29 8l5 -139
q-117 -41 -262 -41q-137 0 -233.5 60.5t-134 155.5t-18.5 204q13 74 57 146.5t111 131.5t163 95.5t202 36.5q213 0 317 -109.5t76 -270.5q-7 -37 -30 -75.5t-59.5 -73t-90.5 -56t-115 -21.5q-31 0 -58 10t-38 20l-12 10h-5q-57 -40 -132 -40zM515 289l16 90q-12 15 -32 15
q-16 0 -31 -17t-20 -48q-11 -55 30 -55q9 0 18 4t14 8z" />
    <glyph glyph-name="A" unicode="A" horiz-adv-x="745" 
d="M328 700l263 20l135 -709l-240 -31l-28 180h-205l-83 -160h-240zM406 460l-82 -150h115l-23 150h-10z" />
    <glyph glyph-name="B" unicode="B" horiz-adv-x="685" 
d="M664 510q-7 -40 -37.5 -71t-57.5 -43l-27 -11l-1 -10l5 -1q4 -2 12.5 -5t18.5 -8t21 -12.5t21.5 -17.5t20 -23t15 -29.5t7.5 -36t-2 -42.5q-13 -72 -68 -120.5t-132.5 -69t-176.5 -20.5q-58 0 -126 2.5t-107 5.5l-40 2l123 700q154 10 277 10q42 0 80 -5.5t74 -20
t60.5 -36.5t36 -57.5t3.5 -80.5zM265 285l-22 -121h70q62 0 93.5 14t37.5 47t-20.5 46.5t-88.5 13.5h-70zM311 545l-18 -100h70q43 0 63.5 10.5t25.5 39.5t-11.5 39.5t-59.5 10.5h-70z" />
    <glyph glyph-name="C" unicode="C" horiz-adv-x="640" 
d="M43 360q63 360 408 360q131 0 241 -110l-139 -134q-7 7 -18 16.5t-44 26t-62 16.5q-40 0 -68.5 -15t-46 -45t-27 -60t-18.5 -75q-6 -24 -3.5 -54.5t9.5 -57.5t30.5 -45t58.5 -18q40 0 82 17.5t64 35.5l21 17l94 -145q-5 -4 -14.5 -11.5t-39 -26.5t-60 -33.5t-75 -26.5
t-86.5 -12q-373 0 -307 380z" />
    <glyph glyph-name="D" unicode="D" horiz-adv-x="705" 
d="M10 0l123 700h285q166 0 236 -96t40 -264q-28 -164 -138.5 -262t-264.5 -98q-125 0 -281 20zM323 530l-77 -380h60q40 0 69.5 15t47.5 43t28.5 59.5t17.5 72.5q4 23 6 43.5t-0.5 49t-12 48.5t-32.5 34.5t-57 14.5h-50z" />
    <glyph glyph-name="E" unicode="E" 
d="M554 170l-39 -170h-505l133 700h495l-47 -180h-270l-14 -80h240l-21 -175h-250l-15 -85z" />
    <glyph glyph-name="F" unicode="F" horiz-adv-x="615" 
d="M238 -10l-228 10l143 700h515l-47 -180h-290l-16 -90l239 -10l-25 -170l-245 5z" />
    <glyph glyph-name="G" unicode="G" horiz-adv-x="700" 
d="M699 620l-150 -140q-4 6 -13 15t-41.5 24.5t-70.5 15.5q-58 0 -96.5 -41.5t-58.5 -153.5q-15 -88 11.5 -134t87.5 -46q34 0 77 15l12 65l-119 5l46 175l306 -20l-61 -345q-63 -34 -139.5 -54.5t-143.5 -20.5q-173 0 -254.5 95.5t-52.5 264.5q11 64 28.5 115t50.5 102.5
t78 85.5t114.5 55.5t156.5 21.5q43 0 83 -10.5t66 -25t45.5 -29t28.5 -25.5z" />
    <glyph glyph-name="H" unicode="H" horiz-adv-x="790" 
d="M573 700h230l-138 -700l-222 -10l48 275l-191 -5l-40 -260h-230l103 700h230l-34 -250l201 5z" />
    <glyph glyph-name="I" unicode="I" horiz-adv-x="485" 
d="M-15 0l19 170h110l65 365l-114 5l30 170l438 -10l-33 -160l-113 -15l-53 -355h110l-29 -170h-430z" />
    <glyph glyph-name="J" unicode="J" horiz-adv-x="510" 
d="M-60 55l128 165q51 -50 91 -50q27 0 49 23t29 77l54 420l244 20l-78 -440q-9 -49 -21.5 -88t-37 -78.5t-59 -65t-89 -42t-123.5 -16.5q-49 0 -96 19t-69 37z" />
    <glyph glyph-name="K" unicode="K" horiz-adv-x="700" 
d="M690 0h-285l-125 230h-10l-40 -230h-210l115 710l216 -20l-39 -220h10l265 255l136 -140l-256 -230z" />
    <glyph glyph-name="L" unicode="L" horiz-adv-x="585" 
d="M536 180l-11 -180l-514 -20l127 720h230l-104 -530z" />
    <glyph glyph-name="M" unicode="M" horiz-adv-x="980" 
d="M940 0l-240 5l8 325h-10l-146 -260l-202 -10l-62 270h-10l-121 -345l-210 50l274 680l207 -15l70 -340h10l203 330h200z" />
    <glyph glyph-name="N" unicode="N" horiz-adv-x="770" 
d="M30 0l103 700h210l146 -335h10l67 355l217 -20l-140 -680l-213 -20l-136 310h-10l-44 -310h-210z" />
    <glyph glyph-name="O" unicode="O" horiz-adv-x="740" 
d="M43 360q30 169 133.5 264.5t269.5 95.5q59 0 107.5 -15.5t79.5 -43t53.5 -64t30.5 -79t10 -88t-8 -90.5q-12 -71 -41 -132.5t-76 -114t-120.5 -83t-165.5 -30.5q-152 0 -227.5 106.5t-45.5 273.5zM415 540q-37 0 -64.5 -15t-43.5 -44t-24 -56t-15 -65q-36 -200 80 -200
q30 0 54 11t38.5 27.5t26 42t17 47.5t10.5 52q6 45 7.5 89.5t-20.5 77.5t-66 33z" />
    <glyph glyph-name="P" unicode="P" horiz-adv-x="690" 
d="M221 -20l-211 20l133 700q64 3 107.5 5t54 3t25 1.5t25.5 0.5h50q62 0 118.5 -15.5t100.5 -45t66 -79t11 -110.5q-23 -126 -119 -198t-269 -72h-55zM318 530l-28 -160h55q70 0 98.5 19.5t35.5 60.5q7 37 -23 58.5t-83 21.5h-55z" />
    <glyph glyph-name="Q" unicode="Q" horiz-adv-x="725" 
d="M723 360q-17 -96 -72.5 -186t-134.5 -144q20 0 37.5 10t25.5 20l8 10l97 -130q-3 -3 -9.5 -8.5t-27.5 -19.5t-43.5 -24.5t-56 -19t-67.5 -8.5q-135 0 -174 120q-102 5 -169.5 57.5t-90.5 131.5t-7 171q14 77 45.5 144t81 120.5t121.5 84.5t159 31q166 0 236.5 -96
t40.5 -264zM415 540q-34 0 -61.5 -18.5t-44.5 -50t-28 -63.5t-17 -68l-5 -30q67 14 121 -19t63 -81q36 45 55 150l6 37.5t4 35t0 34.5t-7.5 28t-16 24.5t-28 14.5t-41.5 6zM303 160q2 16 -17 36.5t-34 13.5q-3 -14 16 -32t35 -18z" />
    <glyph glyph-name="R" unicode="R" horiz-adv-x="700" 
d="M240 0h-220l113 700l252 10q179 7 259 -56.5t57 -188.5q-6 -38 -26.5 -72t-45 -55.5t-48 -37.5t-39.5 -23l-15 -7l-2 -10l152 -220l-241 -60l-143 240h-20zM318 530l-23 -160q92 0 134 18.5t51 66.5q8 46 -22.5 60.5t-104.5 14.5h-35z" />
    <glyph glyph-name="S" unicode="S" horiz-adv-x="610" 
d="M649 620l-128 -155q-8 8 -21 19.5t-49 31t-67 19.5q-28 0 -46.5 -12t-20.5 -28q-3 -17 18 -31.5t55 -24.5t72 -28t70 -40t48 -62.5t7 -93.5q-16 -95 -114.5 -165t-250.5 -70q-46 0 -90.5 12.5t-75 30t-54 35t-34.5 30.5l-11 12l137 150q11 -10 28.5 -24t61.5 -37.5
t75 -23.5q37 0 58 13t24 27q3 18 -18 32t-54.5 23.5t-71 27t-68.5 40.5t-46.5 66t-5.5 101q16 90 107 157.5t232 67.5q39 0 77.5 -10.5t65.5 -25t48 -29t31 -25.5z" />
    <glyph glyph-name="T" unicode="T" horiz-adv-x="645" 
d="M690 710l-14 -190l-212 -10l-71 -520l-228 10l89 510l-206 -10l35 200z" />
    <glyph glyph-name="U" unicode="U" horiz-adv-x="736" 
d="M509 680l224 20q-12 -185 -39 -365q-28 -175 -130.5 -265t-242.5 -90q-56 0 -107.5 17.5t-92 50.5t-59.5 88.5t-7 123.5l78 440h220l-71 -400q-10 -57 8 -96t64 -39q106 0 123 157q19 168 32 358z" />
    <glyph glyph-name="V" unicode="V" horiz-adv-x="715" 
d="M586 720l213 -70l-369 -650h-245l-122 700h250l46 -420h10z" />
    <glyph glyph-name="W" unicode="W" horiz-adv-x="1015" 
d="M858 700h240l-290 -680l-216 -35l-66 305h-10l-156 -290h-220l-74 660l245 60l23 -410h10l131 290h190l39 -290h10z" />
    <glyph glyph-name="X" unicode="X" horiz-adv-x="670" 
d="M93 -35l-147 125l274 280l-157 330h255l66 -170h8l198 210l137 -130l-232 -240l155 -370h-265l-77 190h-10z" />
    <glyph glyph-name="Y" unicode="Y" horiz-adv-x="655" 
d="M555 740l183 -95l-305 -400l-43 -245h-220l43 245l-150 455h250l54 -230h10z" />
    <glyph glyph-name="Z" unicode="Z" horiz-adv-x="620" 
d="M568 190l-18 -190h-570l18 160l320 340l1 10h-255l34 190h565l-28 -160l-330 -340l-2 -10h265z" />
    <glyph glyph-name="bracketleft" unicode="[" horiz-adv-x="450" 
d="M-4 -135l161 915h360l-33 -185h-140l-97 -555l138 -10l-43 -185z" />
    <glyph glyph-name="backslash" unicode="\" horiz-adv-x="600" 
d="M88 730l216 90l232 -840l-204 -80z" />
    <glyph glyph-name="bracketright" unicode="]" horiz-adv-x="450" 
d="M464 760l-162 -915h-359l32 185h140l98 555l-139 10l43 185z" />
    <glyph glyph-name="asciicircum" unicode="^" horiz-adv-x="580" 
d="M578 390l-173 -75l-59 175h-10l-107 -150h-200l262 350l178 -10z" />
    <glyph glyph-name="underscore" unicode="_" horiz-adv-x="515" 
d="M-89 -225l30 170l513 -5l-43 -185z" />
    <glyph glyph-name="grave" unicode="`" horiz-adv-x="381" 
d="M382 520l-148 10l-139 180l238 -10z" />
    <glyph glyph-name="a" unicode="a" 
d="M289 510q24 0 48 -7.5t35 -14.5l12 -8h10l12 40l197 -20l-85 -510l-177 -10l-3 40h-10q-47 -40 -107 -40q-52 0 -93.5 17.5t-65 45.5t-40 62.5t-17.5 69t2 65.5q20 112 95.5 191t186.5 79zM266 150q20 0 40 7.5t30 14.5l10 8l20 140q-22 20 -67 20q-34 0 -56.5 -27.5
t-28.5 -62.5q-8 -44 4 -72t48 -28z" />
    <glyph glyph-name="b" unicode="b" horiz-adv-x="630" 
d="M419 510q111 0 159.5 -79t28.5 -191q-8 -43 -27.5 -83.5t-57.5 -83t-105.5 -68t-155.5 -25.5q-67 0 -128.5 12.5t-89.5 25.5l-28 12l125 680l203 20l-39 -250h10q50 30 105 30zM316 150q36 0 58 28t30 72q6 35 -7 62.5t-48 27.5q-20 0 -38.5 -5t-26.5 -10l-8 -5l-33 -160
q28 -10 73 -10z" />
    <glyph glyph-name="c" unicode="c" horiz-adv-x="495" 
d="M9 255q22 121 113.5 193t213.5 72q44 0 91.5 -15t72.5 -30l26 -15l-117 -150q-25 30 -75 30q-46 0 -77 -23t-38 -67q-7 -38 16.5 -64t67.5 -26q22 0 48.5 9t42.5 17l15 9l54 -145q-11 -8 -31 -19.5t-76 -31t-105 -19.5q-134 0 -200 67.5t-42 207.5z" />
    <glyph glyph-name="d" unicode="d" horiz-adv-x="630" 
d="M289 510q24 0 48 -7.5t35 -14.5l12 -8h10l49 250l197 -20l-122 -720l-177 -10l-3 40h-10q-47 -40 -107 -40q-52 0 -93.5 17.5t-65 45.5t-40 62.5t-17.5 69t2 65.5q20 112 95.5 191t186.5 79zM266 150q20 0 40 7.5t30 14.5l10 8l20 140q-22 20 -67 20q-34 0 -56.5 -27.5
t-28.5 -62.5q-8 -44 4 -72t48 -28z" />
    <glyph glyph-name="e" unicode="e" horiz-adv-x="555" 
d="M10 260q20 112 119 186t227 74q112 0 163 -47t39 -113q-16 -92 -91.5 -141t-172.5 -49q-18 0 -37.5 2.5t-30.5 5.5l-10 2l-2 -10q35 -30 85 -30q35 0 71 7.5t55 14.5l19 8l49 -130q-11 -7 -31.5 -17t-79 -26.5t-111.5 -16.5q-129 0 -206.5 72.5t-54.5 207.5zM236 299
q122 1 129 46q3 15 -6 25t-27 10q-67 0 -96 -81z" />
    <glyph glyph-name="f" unicode="f" horiz-adv-x="425" 
d="M33 330l18 160h75l5 30q19 106 83 163t142 57q42 0 81.5 -9t58.5 -17l18 -9l-70 -140q-22 15 -57 15q-41 0 -51 -60l-5 -30h120l-38 -160h-115l-48 -330l-202 -10l50 340h-65z" />
    <glyph glyph-name="g" unicode="g" horiz-adv-x="610" 
d="M301 350q-36 0 -58 -28t-29 -72q-6 -35 7 -62.5t47 -27.5q20 0 38 5t26 10l9 5l33 160q-28 10 -73 10zM313 20h-10q-50 -30 -105 -30q-111 0 -159 79t-29 191q8 43 27.5 83.5t57.5 83t105.5 68t155.5 25.5q67 0 128.5 -12.5t89.5 -25.5l28 -12l-75 -430
q-22 -123 -111 -189t-214 -66q-38 0 -72.5 5.5t-57 13.5t-39.5 16.5t-25 13.5l-7 6l87 150q63 -40 113 -40t78 19t34 51z" />
    <glyph glyph-name="h" unicode="h" horiz-adv-x="630" 
d="M546 10l-201 -10l40 230q9 46 -9.5 68t-54.5 22q-13 0 -26.5 -5t-20.5 -10l-7 -5l-52 -300h-205l123 701l208 19l-43 -245h10q45 25 105 25q98 0 147.5 -64.5t24.5 -205.5z" />
    <glyph glyph-name="i" unicode="i" horiz-adv-x="310" 
d="M91 490h200l-66 -490h-220zM230 740q43 0 73.5 -30t23.5 -70q-7 -38 -43.5 -69t-88.5 -31q-48 0 -76.5 29t-21.5 67q7 41 43.5 72.5t89.5 31.5z" />
    <glyph glyph-name="j" unicode="j" horiz-adv-x="310" 
d="M96 490h205l-95 -480q-11 -59 -41 -107.5t-64 -75.5t-66 -45.5t-53 -25.5l-22 -6l-76 130q4 2 11 7t26 20t34.5 31.5t30 41.5t19.5 50zM240 740q48 0 76 -30.5t21 -69.5q-6 -39 -45 -69.5t-87 -30.5q-47 0 -75.5 30.5t-22.5 69.5q7 39 46 69.5t87 30.5z" />
    <glyph glyph-name="k" unicode="k" horiz-adv-x="590" 
d="M563 20l-218 -30l-92 170h-10l-28 -160l-199 10l119 700l203 20l-56 -350h10l196 150l97 -130l-180 -140z" />
    <glyph glyph-name="l" unicode="l" horiz-adv-x="330" 
d="M133 700l203 20l-116 -720l-209 10z" />
    <glyph glyph-name="m" unicode="m" horiz-adv-x="950" 
d="M645 0l44 250q9 52 1 76t-35 24q-15 0 -31 -7.5t-24 -14.5l-9 -8l-56 -320l-211 -5l45 255q17 100 -33 100q-16 0 -32.5 -7.5t-24.5 -14.5l-8 -8l-56 -320l-207 -10l80 510l176 10l8 -40h10q67 40 132 40q42 0 76 -15t46 -30l13 -15q11 7 30 17t66.5 26.5t83.5 16.5
q102 0 146.5 -61.5t23.5 -198.5l-39 -250h-215z" />
    <glyph glyph-name="n" unicode="n" horiz-adv-x="625" 
d="M579 250l-44 -250q-13 0 -33.5 -0.5t-64.5 -1.5t-73 -1h-30l45 253q6 34 -2.5 59.5t-32.5 25.5q-13 0 -31.5 -5t-30.5 -10l-12 -5l-50 -315l-207 -10l75 510l176 10l8 -40h10q67 40 132 40q106 0 148 -59.5t17 -200.5z" />
    <glyph glyph-name="o" unicode="o" horiz-adv-x="590" 
d="M10 260q22 120 110 190t216 70q86 0 144 -43.5t78.5 -106.5t8.5 -130q-19 -106 -105.5 -183t-220.5 -77q-114 0 -183 81t-48 199zM308 360q-32 0 -55 -20t-31 -39.5t-12 -40.5q-2 -22 -3.5 -49t14.5 -49t48 -22q41 0 66.5 31.5t31.5 68.5q9 51 -4 85.5t-55 34.5z" />
    <glyph glyph-name="p" unicode="p" horiz-adv-x="620" 
d="M316 -20q-24 0 -45.5 7.5t-30.5 14.5l-9 8h-10l-34 -220l-211 -10l112 720l176 10l3 -40h10q47 40 107 40q52 0 93.5 -17.5t65 -45.5t40 -62.5t18 -69t-1.5 -65.5q-20 -112 -96 -191t-187 -79zM339 340q-20 0 -40 -7.5t-30 -14.5l-10 -8l-20 -140q22 -20 67 -20
q34 0 57 27.5t29 62.5q8 44 -4.5 72t-48.5 28z" />
    <glyph glyph-name="q" unicode="q" horiz-adv-x="620" 
d="M198 -10q-111 0 -159 79t-29 191q8 43 27.5 83.5t57.5 83t105.5 68t155.5 25.5q67 0 128.5 -12.5t89.5 -25.5l28 -12l-125 -680l-203 -20l39 250h-10q-50 -30 -105 -30zM301 350q-36 0 -58 -28t-29 -72q-6 -35 7 -62.5t47 -27.5q20 0 38 5t26 10l9 5l33 160
q-28 10 -73 10z" />
    <glyph glyph-name="r" unicode="r" horiz-adv-x="460" 
d="M507 440l-126 -150q-28 40 -68 40q-12 0 -24 -4t-18 -8l-6 -3l-50 -315l-207 -10l80 510l171 10l3 -40h10q42 40 102 40q40 0 73 -17.5t47 -34.5z" />
    <glyph glyph-name="s" unicode="s" horiz-adv-x="495" 
d="M509 450l-91 -120q-53 40 -103 40t-55 -25q-2 -12 20.5 -21t55.5 -19t65 -25.5t50 -49t10 -80.5q-12 -66 -87 -118t-188 -52q-42 0 -80.5 8t-64 20t-45 24t-28.5 20l-8 8l91 120q61 -50 111 -50q60 0 65 25q2 10 -13.5 17.5t-39.5 13t-51 17.5t-49.5 28t-33.5 48t-3 76
q11 63 82 114t182 51q53 0 105 -17.5t78 -34.5z" />
    <glyph glyph-name="t" unicode="t" horiz-adv-x="420" 
d="M390 345l-101 -5l-24 -140q-4 -22 5.5 -36t25.5 -14q13 0 26 2.5t20 5.5l6 2l25 -140q-67 -40 -167 -40q-84 0 -123 52t-22 148l28 155l-71 -5l38 160h60l19 110l207 39l-26 -149h120z" />
    <glyph glyph-name="u" unicode="u" horiz-adv-x="635" 
d="M44 250l44 250q13 0 33.5 0.5t64.5 1.5t73 1h29l-44 -253q-6 -34 2.5 -59.5t32.5 -25.5q13 0 31.5 5t29.5 10l12 5l51 315l206 10l-74 -510l-177 -10l-8 40h-10q-67 -40 -132 -40q-106 0 -147.5 59.5t-16.5 200.5z" />
    <glyph glyph-name="v" unicode="v" horiz-adv-x="600" 
d="M453 530l189 -60l-282 -470h-230l-94 490l223 20l26 -280h10z" />
    <glyph glyph-name="w" unicode="w" horiz-adv-x="834" 
d="M368 420l161 10l9 -180h10l104 250l221 10l-223 -500l-213 -20l-32 190h-10l-86 -175l-220 -5l-53 490l227 20l3 -270h10z" />
    <glyph glyph-name="x" unicode="x" horiz-adv-x="569" 
d="M88 -30l-130 110l196 180l-125 250l234 -5l44 -115h10l145 140l130 -111l-189 -169l127 -240l-231 -10l-56 110h-10z" />
    <glyph glyph-name="y" unicode="y" horiz-adv-x="625" 
d="M201 -50q100 0 115 85h-10q-35 -25 -105 -25q-200 0 -151 275l43 215l201 10l-42 -240q-7 -42 3.5 -63.5t31.5 -21.5q16 0 30.5 5t21.5 10l7 5l57 295l211 10l-82 -470q-22 -123 -113 -189t-217 -66q-38 0 -72.5 5.5t-57 13.5t-39.5 16.5t-25 13.5l-7 6l87 150
q63 -40 113 -40z" />
    <glyph glyph-name="z" unicode="z" horiz-adv-x="515" 
d="M473 160l-20 -170l-489 5l33 160l221 175l1 10l-191 -10l20 170l471 10l-28 -160l-217 -185l-2 -10z" />
    <glyph glyph-name="braceleft" unicode="{" horiz-adv-x="460" 
d="M8 220l29 160q46 8 85.5 48t48.5 92q26 144 101 202t245 58l-23 -190h-20q-31 0 -56 -29.5t-34 -80.5q-7 -39 -26.5 -72t-41.5 -52t-43.5 -32.5t-36.5 -18.5l-14 -5l-1 -10q5 -1 13.5 -3t29 -13t34.5 -27t22.5 -47t1.5 -70q-9 -51 5.5 -80.5t45.5 -29.5h20l-43 -190
q-170 0 -225 58t-30 202q9 51 -16 86.5t-71 43.5z" />
    <glyph glyph-name="bar" unicode="|" horiz-adv-x="350" 
d="M172 810l199 -10l-164 -870h-200z" />
    <glyph glyph-name="braceright" unicode="}" horiz-adv-x="460" 
d="M458 390l-28 -160q-47 -8 -86 -48t-49 -92q-25 -144 -100 -202t-245 -58l23 190h20q31 0 55.5 29.5t33.5 80.5q7 39 26.5 72t41.5 52t43.5 32.5t36.5 18.5l14 5l2 10q-5 1 -13.5 3t-29 13t-35 27t-23 47t-1.5 70q9 51 -5 80.5t-45 29.5h-20l43 190q170 0 225 -58t29 -202
q-9 -51 16.5 -86.5t70.5 -43.5z" />
    <glyph glyph-name="asciitilde" unicode="~" horiz-adv-x="575" 
d="M476 460l85 -140q-3 -4 -8.5 -11t-24 -25.5t-39.5 -32t-54 -25t-68 -11.5q-40 0 -82 30t-67 30q-20 0 -43.5 -13.5t-37.5 -27.5l-14 -14l-95 110q4 5 10.5 14.5t28 32.5t44.5 41t57 32.5t68 14.5t61 -15t48 -30t41 -15q18 0 40.5 13.5t35.5 27.5z" />
    <glyph glyph-name="nbspace" unicode="&#xa0;" horiz-adv-x="260" 
 />
    <glyph glyph-name="exclamdown" unicode="&#xa1;" horiz-adv-x="335" 
d="M109 280l188 -10l-76 -490l-257 20zM218 330q-47 0 -75.5 30.5t-22.5 69.5q7 39 46.5 69.5t86.5 30.5t75.5 -30.5t21.5 -69.5q-6 -39 -45 -69.5t-87 -30.5z" />
    <glyph glyph-name="cent" unicode="&#xa2;" horiz-adv-x="508" 
d="M9 255q18 97 91.5 167t172.5 90l12 68h140l-12 -67q32 -7 63.5 -20.5t47.5 -22.5l15 -10l-117 -150q-29 30 -75 30q-113 0 -128 -90q-7 -39 18 -64.5t79 -25.5q22 0 48.5 9t41.5 17l16 9l54 -145q-70 -48 -156 -64l-12 -66h-140l12 68q-95 18 -142 89t-29 178z" />
    <glyph glyph-name="sterling" unicode="&#xa3;" horiz-adv-x="630" 
d="M475 260l-143 6q-4 -18 -13.5 -37t-17.5 -29l-8 -10l-2 -10q53 -6 161.5 -7t136.5 -3l-8 -160q-51 -9 -293.5 -8.5t-305.5 13.5l18 160q116 3 133 100l-94 5l26 150l89 -2q30 143 113.5 217.5t198.5 74.5q135 0 214 -124l-128 -130q-5 8 -13 20.5t-34 33t-52 20.5
q-79 0 -96 -100l-3 -17l140 -3z" />
    <glyph glyph-name="currency" unicode="&#xa4;" horiz-adv-x="741" 
d="M24 308l25 141l91 -2l50 263q239 10 291 10q83 0 147 -21t102 -67t31 -112q-11 -104 -103 -167t-252 -63h-65l-7 -36l221 -3l-18 -156l-229 9l-22 -124l-229 20l21 114l-88 4l25 141l90 -2l8 45zM388 560l-17 -100h65q74 0 83 50q5 22 -12.5 36t-53.5 14h-65z" />
    <glyph glyph-name="yen" unicode="&#xa5;" horiz-adv-x="685" 
d="M591 91l-174 6l-17 -97h-220l18 104l-159 6l24 135h160l-13 39l-141 -5l37 155l54 1l-87 265h250l54 -230h10l178 270l183 -95l-154 -202l59 1l-26 -145l-148 -6l-36 -48h165z" />
    <glyph glyph-name="brokenbar" unicode="&#xa6;" horiz-adv-x="350" 
d="M207 -70h-200l67 358l199 -5zM172 810l199 -10l-67 -354l-199 3z" />
    <glyph glyph-name="section" unicode="&#xa7;" horiz-adv-x="600" 
d="M291 180q5 1 13 4t24 20t20 41q3 16 -13 32t-33 25l-18 8q-6 -2 -15 -6.5t-25.5 -22t-20.5 -37.5q-4 -24 13 -40t36 -20zM599 680l-80 -170q-44 30 -94 30q-70 0 -76 -30q-2 -14 15 -25t44.5 -20t58.5 -25.5t56 -37.5t37.5 -60.5t3.5 -91.5q-9 -49 -46 -88.5t-70 -55.5
l-32 -15l-2 -10q8 -6 19.5 -17t27 -47.5t8.5 -76.5q-11 -62 -95 -121t-207 -59q-53 0 -105 17.5t-77 34.5l-25 18l116 150q53 -40 103 -40q16 0 29.5 8t15.5 22q3 18 -13.5 33.5t-43.5 26t-57.5 28.5t-55.5 39.5t-37 61t-3 91.5q5 31 22.5 61t39 50.5t42 36.5t34.5 24l13 8
l2 10q-2 1 -5.5 3.5t-13 12.5t-14 22.5t-9 34t2.5 46.5q11 64 85.5 112.5t182.5 48.5q40 0 91 -10t81 -20z" />
    <glyph glyph-name="dieresis" unicode="&#xa8;" horiz-adv-x="500" 
d="M217 780q42 0 66 -27t17 -68q-7 -38 -37 -66.5t-79 -28.5q-44 0 -67.5 26t-17.5 64q7 39 38.5 69.5t79.5 30.5zM457 780q42 0 66 -27t17 -68q-7 -38 -37 -66.5t-79 -28.5q-44 0 -67.5 26t-17.5 64q7 39 38.5 69.5t79.5 30.5z" />
    <glyph glyph-name="copyright" unicode="&#xa9;" horiz-adv-x="940" 
d="M654 510l-49 -110q-28 10 -58 10q-33 0 -59.5 -16.5t-32.5 -48.5q-4 -25 11.5 -40t39.5 -15q18 0 40 5t35 10l13 5l28 -100q-88 -40 -158 -40q-98 0 -139.5 53t-28.5 127q14 79 74.5 129.5t157.5 50.5q27 0 58.5 -5t49.5 -10zM761 350q21 118 -39 184t-197 66
q-133 0 -219 -71.5t-105 -178.5q-21 -121 44 -185.5t192 -64.5q135 0 220 69t104 181zM941 350q-30 -168 -178 -289t-354 -121q-133 0 -229.5 58t-137 151t-21.5 201q13 74 57 146.5t111 131.5t163 95.5t202 36.5q216 0 317.5 -114.5t69.5 -295.5z" />
    <glyph glyph-name="ordfeminine" unicode="&#xaa;" horiz-adv-x="460" 
d="M159 590l-25 90q89 40 172 40q91 0 126.5 -52t19.5 -144l-31 -174l-132 -10l1 30h-10q-41 -40 -102 -40q-57 0 -88 33.5t-21 86.5q6 34 32 60t59 38.5t65.5 20.5t54.5 9l22 2q3 18 -6 29t-27 11q-22 0 -49.5 -7.5t-43.5 -14.5zM249 425q11 0 22 5t17 10l5 5l11 60
q-3 0 -8 -0.5t-18.5 -3t-24.5 -7t-20.5 -13.5t-11.5 -21q-3 -14 3.5 -24.5t24.5 -10.5z" />
    <glyph glyph-name="guillemotleft" unicode="&#xab;" horiz-adv-x="620" 
d="M304 80l-156 -90l-133 270l244 250l103 -100l-137 -150l-1 -10zM563 80l-156 -90l-142 270l241 230l114 -90l-147 -151l-1 -10z" />
    <glyph glyph-name="logicalnot" unicode="&#xac;" horiz-adv-x="580" 
d="M33 305l32 180l502 -15l-43 -275l-203 10l21 95z" />
    <glyph glyph-name="uni00AD" unicode="&#xad;" horiz-adv-x="450" 
d="M15 200l28 160l389 -5l-39 -165z" />
    <glyph glyph-name="registered" unicode="&#xae;" horiz-adv-x="940" 
d="M425 175l-147 15l69 335h150q82 0 131 -29.5t40 -80.5q-5 -29 -24 -51.5t-36 -30.5l-16 -8l-2 -10l62 -105l-163 -40l-39 90h-10zM469 425l-7 -40h15q40 0 45 25q1 10 -6.5 15t-20.5 5zM761 350q21 118 -39 184t-197 66q-133 0 -219 -71.5t-105 -178.5
q-21 -121 44 -185.5t192 -64.5q135 0 220 69t104 181zM941 350q-30 -168 -178 -289t-354 -121q-133 0 -229.5 58t-137 151t-21.5 201q13 74 57 146.5t111 131.5t163 95.5t202 36.5q216 0 317.5 -114.5t69.5 -295.5z" />
    <glyph glyph-name="macron" unicode="&#xaf;" horiz-adv-x="440" 
d="M486 775l-28 -160l-351 -5l18 160z" />
    <glyph glyph-name="degree" unicode="&#xb0;" horiz-adv-x="454" 
d="M231 350q-92 0 -137 52t-30 133q14 77 81 141t155 64q94 0 143.5 -61.5t33.5 -144.5q-13 -80 -80 -132t-166 -52zM280 600q-26 0 -42 -19.5t-20 -45.5q-6 -31 6.5 -48t37.5 -17q22 0 39 16.5t23 48.5q11 65 -44 65z" />
    <glyph glyph-name="plusminus" unicode="&#xb1;" horiz-adv-x="645" 
d="M12 40l31 180l170 -3l21 118l-185 5l32 180h185l28 160l194 -10l-27 -150h175l-24 -195l-184 5l-21 -117l175 -3l-42 -180z" />
    <glyph glyph-name="twosuperior" unicode="&#xb2;" horiz-adv-x="395" 
d="M381 435l-20 -114h-299l13 105q19 10 47.5 26t78 56t54.5 67q2 12 -5.5 18.5t-20.5 6.5q-17 0 -37 -8t-32 -16l-12 -8l-45 74q10 9 28 22t65.5 34.5t87.5 21.5q70 0 101 -30.5t21 -85.5q-6 -31 -24 -59.5t-40.5 -46.5t-44 -32t-35.5 -20l-15 -6l-2 -10z" />
    <glyph glyph-name="threesuperior" unicode="&#xb3;" horiz-adv-x="395" 
d="M44 363l64 73q35 -26 78 -26q46 0 52 35q2 13 -6 21t-28 8h-36l15 83q3 0 7 0.5t16 2.5t21 5.5t17 10.5t10 16q2 10 -6 18t-25 8q-16 0 -35 -6t-30 -12l-11 -6l-34 73q9 6 23.5 15t54.5 23.5t72 14.5q69 0 100.5 -29t24.5 -71q-5 -28 -23.5 -50t-34.5 -30l-16 -9l-2 -11
q3 -1 8.5 -2.5t19 -8t23 -16t15.5 -27.5t2 -40q-9 -53 -63.5 -89.5t-132.5 -36.5q-38 0 -73 16t-51 32z" />
    <glyph glyph-name="acute" unicode="&#xb4;" horiz-adv-x="381" 
d="M234 590l-152 -10l113 180l241 10z" />
    <glyph glyph-name="mu" unicode="&#xb5;" horiz-adv-x="635" 
d="M250 0q-9 0 -18.5 2.5t-15.5 5.5l-5 2h-10l-37 -210h-200l124 700q13 0 33.5 0.5t64.5 1.5t73 1h29l-44 -253q-5 -29 6.5 -47t31.5 -18q13 0 31.5 5t30.5 10l12 5l47 295l206 10l-74 -510l-177 -10l-8 40h-10q-40 -30 -90 -30z" />
    <glyph glyph-name="paragraph" unicode="&#xb6;" horiz-adv-x="770" 
d="M285 710l548 -10l-23 -185l-109 5l-137 -720h-190l139 730h-70l-139 -730h-190l94 505q-90 4 -133 54t-26 151q16 91 83.5 145.5t152.5 54.5z" />
    <glyph glyph-name="periodcentered" unicode="&#xb7;" horiz-adv-x="260" 
d="M157 440q47 0 75.5 -30.5t21.5 -69.5q-6 -39 -45 -69.5t-87 -30.5q-47 0 -75.5 30.5t-22.5 69.5q7 39 46.5 69.5t86.5 30.5z" />
    <glyph glyph-name="cedilla" unicode="&#xb8;" horiz-adv-x="370" 
d="M-54 -255l47 75q10 -15 52 -15q45 0 50 25q3 20 -19 31.5t-46 12.5l-23 1l23 125h110l-8 -45q6 -1 15 -3t31 -11.5t38.5 -22.5t27 -37.5t5.5 -55.5q-9 -46 -59 -80.5t-122 -34.5q-30 0 -60.5 9t-45.5 17z" />
    <glyph glyph-name="onesuperior" unicode="&#xb9;" horiz-adv-x="356" 
d="M75 321l22 119l59 -5l20 115l-53 -20l-59 60l174 110h115l-48 -270l43 -5l-16 -105z" />
    <glyph glyph-name="ordmasculine" unicode="&#xba;" horiz-adv-x="465" 
d="M73 530q15 87 78 138.5t155 51.5q93 0 138.5 -61.5t31.5 -138.5q-13 -77 -77 -134t-161 -57q-82 0 -131 58t-34 143zM286 605q-32 0 -50 -25t-23 -50q-1 -16 -1.5 -34.5t11.5 -34.5t35 -16q30 0 49 24t24 51q7 36 -3.5 60.5t-41.5 24.5z" />
    <glyph glyph-name="guillemotright" unicode="&#xbb;" horiz-adv-x="620" 
d="M304 420l155 90l133 -270l-244 -250l-103 100l137 150l2 10zM45 420l155 90l142 -270l-241 -230l-114 90l147 151l2 10z" />
    <glyph glyph-name="onequarter" unicode="&#xbc;" horiz-adv-x="906" 
d="M78 341l20 116l73 -2l20 115q-6 -3 -29.5 -10.5t-26.5 -9.5l-57 63l174 107l120 -1l-46 -264h43l-19 -115zM847 176l-21 -109h-46v-2q-9 -43 -19 -104l-149 5l18 101h-171l13 85l217 236h148l-41 -212h51zM592 160h82l18 105q-5 -6 -49.5 -52t-50.5 -53zM778 749l130 -50
l-685 -736h-175z" />
    <glyph glyph-name="onehalf" unicode="&#xbd;" horiz-adv-x="901" 
d="M811 60l-18 -97l-335 -1l14 90q16 9 45.5 23.5t44.5 22.5t37.5 20.5t34 21t24.5 19t19.5 21t8.5 20.5q4 22 -3 32t-21 9q-17 -1 -31.5 -11.5t-22 -20.5t-22.5 -33l-103 23q57 80 109 120t114 40q71 0 107.5 -38t27.5 -91q-8 -45 -52.5 -91t-102.5 -79h125zM78 341l20 116
l73 -2l20 115q-6 -3 -29.5 -10.5t-26.5 -9.5l-57 63l174 107l120 -1l-46 -264h43l-19 -115zM763 749l130 -50l-685 -736h-175z" />
    <glyph glyph-name="threequarters" unicode="&#xbe;" horiz-adv-x="905" 
d="M32 352l79 80q45 -31 77 -31q56 0 62 31q2 12 0.5 19t-8.5 10.5t-12 5t-18 3.5l-58 1l22 80l55 -2q15 -2 27.5 3.5t14.5 18.5t-9 25t-32 12q-22 0 -34.5 -4.5t-35.5 -19.5l-65 54q118 86 186 86q78 0 109.5 -35t21.5 -93q-4 -25 -26.5 -49t-57.5 -32q36 -6 50 -34t7 -63
q-12 -64 -61.5 -98.5t-131.5 -34.5q-80 0 -162 67zM846 176l-21 -109h-46v-2q-13 -61 -20 -104l-149 5l19 101h-172l14 85l217 236h148l-41 -212h51zM591 160h82l18 105q-5 -6 -49.5 -52t-50.5 -53zM783 749l130 -50l-685 -736h-175z" />
    <glyph glyph-name="questiondown" unicode="&#xbf;" horiz-adv-x="550" 
d="M418 50l121 -110q-5 -6 -14.5 -16t-40.5 -36t-63.5 -46t-81 -36t-96.5 -16q-124 0 -187.5 57.5t-47.5 142.5q8 45 26.5 78.5t40.5 52t48 36t48 30t40.5 34t25.5 49.5l197 -20q-11 -44 -34.5 -77t-49.5 -51t-51 -32t-43.5 -31t-22.5 -39q-3 -21 15 -35.5t36 -14.5
q31 0 64.5 20t51.5 40zM346 320q-48 0 -76 30.5t-21 69.5q6 39 45 69.5t87 30.5q47 0 75.5 -30.5t22.5 -69.5q-7 -39 -46 -69.5t-87 -30.5z" />
    <glyph glyph-name="Agrave" unicode="&#xc0;" horiz-adv-x="745" 
d="M328 700l263 20l135 -709l-240 -31l-28 180h-205l-83 -160h-240zM406 460l-82 -150h115l-23 150h-10zM546 774l-148 10l-139 180l238 -10z" />
    <glyph glyph-name="Aacute" unicode="&#xc1;" horiz-adv-x="745" 
d="M328 700l263 20l135 -709l-240 -31l-28 180h-205l-83 -160h-240zM406 460l-82 -150h115l-23 150h-10zM560 792l-152 -10l113 180l241 10z" />
    <glyph glyph-name="Acircumflex" unicode="&#xc2;" horiz-adv-x="745" 
d="M328 700l263 20l135 -709l-240 -31l-28 180h-205l-83 -160h-240zM406 460l-82 -150h115l-23 150h-10zM705 821l-158 -45l-54 90h-10l-65 -85l-167 15l187 210h150z" />
    <glyph glyph-name="Atilde" unicode="&#xc3;" horiz-adv-x="745" 
d="M328 700l263 20l135 -709l-240 -31l-28 180h-205l-83 -160h-240zM406 460l-82 -150h115l-23 150h-10zM629 995l65 -115q-7 -9 -19 -22.5t-49.5 -35.5t-75.5 -22q-32 0 -66.5 20t-52.5 20q-15 0 -32 -11t-26 -23l-9 -11l-74 90q3 4 8 11t21.5 25.5t34 32t43.5 25t51 11.5
q37 0 69.5 -20t43.5 -20q16 0 33 11t26 23z" />
    <glyph glyph-name="Adieresis" unicode="&#xc4;" horiz-adv-x="745" 
d="M328 700l263 20l135 -709l-240 -31l-28 180h-205l-83 -160h-240zM406 460l-82 -150h115l-23 150h-10zM384 981q42 0 66 -27t17 -68q-7 -38 -37 -66.5t-79 -28.5q-44 0 -67.5 26t-17.5 64q7 39 38.5 69.5t79.5 30.5zM624 981q42 0 66 -27t17 -68q-7 -38 -37 -66.5
t-79 -28.5q-44 0 -67.5 26t-17.5 64q7 39 38.5 69.5t79.5 30.5z" />
    <glyph glyph-name="Aring" unicode="&#xc5;" horiz-adv-x="745" 
d="M328 700l263 20l135 -709l-240 -31l-28 180h-205l-83 -160h-240zM406 460l-82 -150h115l-23 150h-10zM471 770q-72 0 -109.5 38t-25.5 102q12 65 62.5 107.5t123.5 42.5q71 0 108.5 -44.5t25.5 -105.5q-10 -58 -61.5 -99t-123.5 -41zM504 955q-17 0 -31 -13.5t-17 -31.5
q-4 -20 5.5 -32.5t26.5 -12.5t30.5 12.5t17.5 32.5q3 20 -6.5 32.5t-25.5 12.5z" />
    <glyph glyph-name="AE" unicode="&#xc6;" horiz-adv-x="940" 
d="M889 170l-39 -170h-495l26 150h-155l-110 -170l-173 90l420 630h605l-47 -180h-264l-14 -80h229l-16 -175h-244l-15 -85zM427 470l-115 -170h95l30 170h-10z" />
    <glyph glyph-name="Ccedilla" unicode="&#xc7;" horiz-adv-x="640" 
d="M149 -255l48 75q10 -15 52 -15q45 0 50 25q3 20 -19 31.5t-46 12.5l-23 1l21 117q-244 56 -189 368q63 360 408 360q131 0 241 -110l-139 -134q-7 7 -18 16.5t-44 26t-62 16.5q-40 0 -68.5 -15t-46 -45t-27 -60t-18.5 -75q-6 -24 -3.5 -54.5t9.5 -57.5t30.5 -45t58.5 -18
q40 0 82 17.5t64 35.5l21 17l94 -145q-5 -4 -14.5 -11.5t-39 -26.5t-60 -33.5t-75 -26.5t-86.5 -12h-10l-4 -25q6 -1 15 -3t31 -11.5t38.5 -22.5t27 -37.5t5.5 -55.5q-9 -46 -59 -80.5t-122 -34.5q-30 0 -61 9t-47 17z" />
    <glyph glyph-name="Egrave" unicode="&#xc8;" 
d="M554 170l-39 -170h-505l133 700h495l-47 -180h-270l-14 -80h240l-21 -175h-250l-15 -85zM499 780l-148 10l-139 180l238 -10z" />
    <glyph glyph-name="Eacute" unicode="&#xc9;" 
d="M554 170l-39 -170h-505l133 700h495l-47 -180h-270l-14 -80h240l-21 -175h-250l-15 -85zM466 780l-152 -10l113 180l241 10z" />
    <glyph glyph-name="Ecircumflex" unicode="&#xca;" 
d="M554 170l-39 -170h-505l133 700h495l-47 -180h-270l-14 -80h240l-21 -175h-250l-15 -85zM636 795l-158 -45l-54 90h-10l-65 -85l-167 15l187 210h150z" />
    <glyph glyph-name="Edieresis" unicode="&#xcb;" 
d="M554 170l-39 -170h-505l133 700h495l-47 -180h-270l-14 -80h240l-21 -175h-250l-15 -85zM320 960q42 0 66 -27t17 -68q-7 -38 -37 -66.5t-79 -28.5q-44 0 -67.5 26t-17.5 64q7 39 38.5 69.5t79.5 30.5zM560 960q42 0 66 -27t17 -68q-7 -38 -37 -66.5t-79 -28.5
q-44 0 -67.5 26t-17.5 64q7 39 38.5 69.5t79.5 30.5z" />
    <glyph glyph-name="Igrave" unicode="&#xcc;" horiz-adv-x="486" 
d="M-14 0l19 170h110l65 365l-114 5l30 170l438 -10l-33 -160l-113 -15l-53 -355h110l-29 -170h-430zM426 774l-148 10l-139 180l238 -10z" />
    <glyph glyph-name="Iacute" unicode="&#xcd;" horiz-adv-x="477" 
d="M-15 0l19 170h110l65 365l-114 5l30 170l438 -10l-33 -160l-113 -15l-53 -355h110l-29 -170h-430zM393 782l-152 -10l113 180l241 10z" />
    <glyph glyph-name="Icircumflex" unicode="&#xce;" horiz-adv-x="490" 
d="M-11 0l19 170h110l65 365l-114 5l30 170l438 -10l-33 -160l-113 -15l-53 -355h110l-29 -170h-430zM562 812l-158 -45l-54 90h-10l-65 -85l-167 15l187 210h150z" />
    <glyph glyph-name="Idieresis" unicode="&#xcf;" horiz-adv-x="497" 
d="M-3 0l19 170h110l65 365l-114 5l30 170l438 -10l-33 -160l-113 -15l-53 -355h110l-29 -170h-430zM240 971q42 0 66 -27t17 -68q-7 -38 -37 -66.5t-79 -28.5q-44 0 -67.5 26t-17.5 64q7 39 38.5 69.5t79.5 30.5zM480 971q42 0 66 -27t17 -68q-7 -38 -37 -66.5t-79 -28.5
q-44 0 -67.5 26t-17.5 64q7 39 38.5 69.5t79.5 30.5z" />
    <glyph glyph-name="Eth" unicode="&#xd0;" horiz-adv-x="735" 
d="M40 0l41 235l-81 -5l44 190h70l49 280h285q166 0 236 -96t40 -264q-28 -164 -138.5 -262t-264.5 -98q-125 0 -281 20zM353 530l-24 -110h75l-30 -170l-81 -5l-17 -95h60q40 0 69.5 15t47.5 43t28.5 59.5t17.5 72.5q4 23 6 43.5t-0.5 49t-12 48.5t-32.5 34.5t-57 14.5h-50
z" />
    <glyph glyph-name="Ntilde" unicode="&#xd1;" horiz-adv-x="770" 
d="M30 0l103 700h210l146 -335h10l67 355l217 -20l-140 -680l-213 -20l-136 310h-10l-44 -310h-210zM603 985l65 -115q-7 -9 -19 -22.5t-49.5 -35.5t-75.5 -22q-32 0 -66.5 20t-52.5 20q-15 0 -32 -11t-26 -23l-9 -11l-74 90q3 4 8 11t21.5 25.5t34 32t43.5 25t51 11.5
q37 0 69.5 -20t43.5 -20q16 0 33 11t26 23z" />
    <glyph glyph-name="Ograve" unicode="&#xd2;" horiz-adv-x="740" 
d="M43 360q30 169 133.5 264.5t269.5 95.5q59 0 107.5 -15.5t79.5 -43t53.5 -64t30.5 -79t10 -88t-8 -90.5q-12 -71 -41 -132.5t-76 -114t-120.5 -83t-165.5 -30.5q-152 0 -227.5 106.5t-45.5 273.5zM415 540q-37 0 -64.5 -15t-43.5 -44t-24 -56t-15 -65q-36 -200 80 -200
q30 0 54 11t38.5 27.5t26 42t17 47.5t10.5 52q6 45 7.5 89.5t-20.5 77.5t-66 33zM541 780l-148 10l-139 180l238 -10z" />
    <glyph glyph-name="Oacute" unicode="&#xd3;" horiz-adv-x="740" 
d="M43 360q30 169 133.5 264.5t269.5 95.5q59 0 107.5 -15.5t79.5 -43t53.5 -64t30.5 -79t10 -88t-8 -90.5q-12 -71 -41 -132.5t-76 -114t-120.5 -83t-165.5 -30.5q-152 0 -227.5 106.5t-45.5 273.5zM415 540q-37 0 -64.5 -15t-43.5 -44t-24 -56t-15 -65q-36 -200 80 -200
q30 0 54 11t38.5 27.5t26 42t17 47.5t10.5 52q6 45 7.5 89.5t-20.5 77.5t-66 33zM513 790l-152 -10l113 180l241 10z" />
    <glyph glyph-name="Ocircumflex" unicode="&#xd4;" horiz-adv-x="740" 
d="M43 360q30 169 133.5 264.5t269.5 95.5q59 0 107.5 -15.5t79.5 -43t53.5 -64t30.5 -79t10 -88t-8 -90.5q-12 -71 -41 -132.5t-76 -114t-120.5 -83t-165.5 -30.5q-152 0 -227.5 106.5t-45.5 273.5zM415 540q-37 0 -64.5 -15t-43.5 -44t-24 -56t-15 -65q-36 -200 80 -200
q30 0 54 11t38.5 27.5t26 42t17 47.5t10.5 52q6 45 7.5 89.5t-20.5 77.5t-66 33zM683 815l-158 -45l-54 90h-10l-65 -85l-167 15l187 210h150z" />
    <glyph glyph-name="Otilde" unicode="&#xd5;" horiz-adv-x="740" 
d="M43 360q30 169 133.5 264.5t269.5 95.5q59 0 107.5 -15.5t79.5 -43t53.5 -64t30.5 -79t10 -88t-8 -90.5q-12 -71 -41 -132.5t-76 -114t-120.5 -83t-165.5 -30.5q-152 0 -227.5 106.5t-45.5 273.5zM415 540q-37 0 -64.5 -15t-43.5 -44t-24 -56t-15 -65q-36 -200 80 -200
q30 0 54 11t38.5 27.5t26 42t17 47.5t10.5 52q6 45 7.5 89.5t-20.5 77.5t-66 33zM610 985l65 -115q-7 -9 -19 -22.5t-49.5 -35.5t-75.5 -22q-32 0 -66.5 20t-52.5 20q-15 0 -32 -11t-26 -23l-9 -11l-74 90q3 4 8 11t21.5 25.5t34 32t43.5 25t51 11.5q37 0 69.5 -20t43.5 -20
q16 0 33 11t26 23z" />
    <glyph glyph-name="Odieresis" unicode="&#xd6;" horiz-adv-x="740" 
d="M43 360q30 169 133.5 264.5t269.5 95.5q59 0 107.5 -15.5t79.5 -43t53.5 -64t30.5 -79t10 -88t-8 -90.5q-12 -71 -41 -132.5t-76 -114t-120.5 -83t-165.5 -30.5q-152 0 -227.5 106.5t-45.5 273.5zM415 540q-37 0 -64.5 -15t-43.5 -44t-24 -56t-15 -65q-36 -200 80 -200
q30 0 54 11t38.5 27.5t26 42t17 47.5t10.5 52q6 45 7.5 89.5t-20.5 77.5t-66 33zM352 980q42 0 66 -27t17 -68q-7 -38 -37 -66.5t-79 -28.5q-44 0 -67.5 26t-17.5 64q7 39 38.5 69.5t79.5 30.5zM592 980q42 0 66 -27t17 -68q-7 -38 -37 -66.5t-79 -28.5q-44 0 -67.5 26
t-17.5 64q7 39 38.5 69.5t79.5 30.5z" />
    <glyph glyph-name="multiply" unicode="&#xd7;" horiz-adv-x="547" 
d="M132 115l-111 92l147 121l-110 116l139 115l106 -116l137 121l103 -99l-149 -126l112 -117l-133 -110l-104 118z" />
    <glyph glyph-name="Oslash" unicode="&#xd8;" horiz-adv-x="750" 
d="M48 360q30 169 133.5 264.5t269.5 95.5q142 0 217 -88l78 58l72 -105l-95 -71q18 -83 1 -174q-12 -71 -41 -132.5t-76 -114t-120.5 -83t-165.5 -30.5q-130 0 -203 78l-77 -58l-77 108l88 66q-22 84 -4 186zM420 540q-37 0 -64.5 -15t-43.5 -44t-24 -56t-15 -65l-4 -25
l220 164q-20 41 -69 41zM353 160q30 0 54 11t38.5 27.5t26 42t17 47.5t10.5 52l2 6l-213 -159q22 -27 65 -27z" />
    <glyph glyph-name="Ugrave" unicode="&#xd9;" horiz-adv-x="736" 
d="M509 680l224 20q-12 -185 -39 -365q-28 -175 -130.5 -265t-242.5 -90q-56 0 -107.5 17.5t-92 50.5t-59.5 88.5t-7 123.5l78 440h220l-71 -400q-10 -57 8 -96t64 -39q106 0 123 157q19 168 32 358zM545 770l-148 10l-139 180l238 -10z" />
    <glyph glyph-name="Uacute" unicode="&#xda;" horiz-adv-x="736" 
d="M509 680l224 20q-12 -185 -39 -365q-28 -175 -130.5 -265t-242.5 -90q-56 0 -107.5 17.5t-92 50.5t-59.5 88.5t-7 123.5l78 440h220l-71 -400q-10 -57 8 -96t64 -39q106 0 123 157q19 168 32 358zM509 790l-152 -10l113 180l241 10z" />
    <glyph glyph-name="Ucircumflex" unicode="&#xdb;" horiz-adv-x="736" 
d="M509 680l224 20q-12 -185 -39 -365q-28 -175 -130.5 -265t-242.5 -90q-56 0 -107.5 17.5t-92 50.5t-59.5 88.5t-7 123.5l78 440h220l-71 -400q-10 -57 8 -96t64 -39q106 0 123 157q19 168 32 358zM664 825l-158 -45l-54 90h-10l-65 -85l-167 15l187 210h150z" />
    <glyph glyph-name="Udieresis" unicode="&#xdc;" horiz-adv-x="736" 
d="M509 680l224 20q-12 -185 -39 -365q-28 -175 -130.5 -265t-242.5 -90q-56 0 -107.5 17.5t-92 50.5t-59.5 88.5t-7 123.5l78 440h220l-71 -400q-10 -57 8 -96t64 -39q106 0 123 157q19 168 32 358zM360 970q42 0 66 -27t17 -68q-7 -38 -37 -66.5t-79 -28.5q-44 0 -67.5 26
t-17.5 64q7 39 38.5 69.5t79.5 30.5zM600 970q42 0 66 -27t17 -68q-7 -38 -37 -66.5t-79 -28.5q-44 0 -67.5 26t-17.5 64q7 39 38.5 69.5t79.5 30.5z" />
    <glyph glyph-name="Yacute" unicode="&#xdd;" horiz-adv-x="655" 
d="M555 740l183 -95l-305 -400l-43 -245h-220l43 245l-150 455h250l54 -230h10zM489 790l-152 -10l113 180l241 10z" />
    <glyph glyph-name="Thorn" unicode="&#xde;" horiz-adv-x="720" 
d="M499 340q11 60 -20.5 100t-84.5 40h-80l-49 -280h80q60 0 101.5 38t52.5 102zM17 40l123 695l225 25l-23 -120h80q156 0 243 -85.5t65 -209.5q-25 -140 -132 -222.5t-281 -82.5h-80l-13 -70l-222 -10z" />
    <glyph glyph-name="germandbls" unicode="&#xdf;" horiz-adv-x="680" 
d="M414 505q3 19 -9 32t-34 13q-19 0 -35 -16.5t-22 -53.5l-93 -500l-211 20l94 530q24 97 107 143.5t185 46.5q125 0 178.5 -52.5t41.5 -117.5q-5 -32 -26.5 -68.5t-24.5 -51.5q-5 -27 6 -49t28.5 -38.5t35 -34t27 -45t3.5 -63.5q-12 -67 -69 -116.5t-131 -73.5t-166 -35
l-10 153q4 1 19 3.5t21 4l20 5t21 6t18 6.5t17.5 8.5t13.5 10.5t11 13t5 15q4 25 -9.5 45t-32 32.5t-31.5 36.5t-7 56q6 33 30 69.5t29 65.5z" />
    <glyph glyph-name="agrave" unicode="&#xe0;" 
d="M289 510q24 0 48 -7.5t35 -14.5l12 -8h10l12 40l197 -20l-85 -510l-177 -10l-3 40h-10q-47 -40 -107 -40q-52 0 -93.5 17.5t-65 45.5t-40 62.5t-17.5 69t2 65.5q20 112 95.5 191t186.5 79zM266 150q20 0 40 7.5t30 14.5l10 8l20 140q-22 20 -67 20q-34 0 -56.5 -27.5
t-28.5 -62.5q-8 -44 4 -72t48 -28zM465 582l-148 10l-139 180l238 -10z" />
    <glyph glyph-name="aacute" unicode="&#xe1;" 
d="M289 510q24 0 48 -7.5t35 -14.5l12 -8h10l12 40l197 -20l-85 -510l-177 -10l-3 40h-10q-47 -40 -107 -40q-52 0 -93.5 17.5t-65 45.5t-40 62.5t-17.5 69t2 65.5q20 112 95.5 191t186.5 79zM266 150q20 0 40 7.5t30 14.5l10 8l20 140q-22 20 -67 20q-34 0 -56.5 -27.5
t-28.5 -62.5q-8 -44 4 -72t48 -28zM422 590l-152 -10l113 180l241 10z" />
    <glyph glyph-name="acircumflex" unicode="&#xe2;" 
d="M289 510q24 0 48 -7.5t35 -14.5l12 -8h10l12 40l197 -20l-85 -510l-177 -10l-3 40h-10q-47 -40 -107 -40q-52 0 -93.5 17.5t-65 45.5t-40 62.5t-17.5 69t2 65.5q20 112 95.5 191t186.5 79zM266 150q20 0 40 7.5t30 14.5l10 8l20 140q-22 20 -67 20q-34 0 -56.5 -27.5
t-28.5 -62.5q-8 -44 4 -72t48 -28zM582 615l-158 -45l-54 90h-10l-65 -85l-167 15l187 210h150z" />
    <glyph glyph-name="atilde" unicode="&#xe3;" 
d="M289 510q24 0 48 -7.5t35 -14.5l12 -8h10l12 40l197 -20l-85 -510l-177 -10l-3 40h-10q-47 -40 -107 -40q-52 0 -93.5 17.5t-65 45.5t-40 62.5t-17.5 69t2 65.5q20 112 95.5 191t186.5 79zM266 150q20 0 40 7.5t30 14.5l10 8l20 140q-22 20 -67 20q-34 0 -56.5 -27.5
t-28.5 -62.5q-8 -44 4 -72t48 -28zM518 775l65 -115q-7 -9 -19 -22.5t-49.5 -35.5t-75.5 -22q-32 0 -66.5 20t-52.5 20q-15 0 -32 -11t-26 -23l-9 -11l-74 90q3 4 8 11t21.5 25.5t34 32t43.5 25t51 11.5q37 0 69.5 -20t43.5 -20q16 0 33 11t26 23z" />
    <glyph glyph-name="adieresis" unicode="&#xe4;" 
d="M289 510q24 0 48 -7.5t35 -14.5l12 -8h10l12 40l197 -20l-85 -510l-177 -10l-3 40h-10q-47 -40 -107 -40q-52 0 -93.5 17.5t-65 45.5t-40 62.5t-17.5 69t2 65.5q20 112 95.5 191t186.5 79zM266 150q20 0 40 7.5t30 14.5l10 8l20 140q-22 20 -67 20q-34 0 -56.5 -27.5
t-28.5 -62.5q-8 -44 4 -72t48 -28zM275 770q42 0 66 -27t17 -68q-7 -38 -37 -66.5t-79 -28.5q-44 0 -67.5 26t-17.5 64q7 39 38.5 69.5t79.5 30.5zM515 770q42 0 66 -27t17 -68q-7 -38 -37 -66.5t-79 -28.5q-44 0 -67.5 26t-17.5 64q7 39 38.5 69.5t79.5 30.5z" />
    <glyph glyph-name="aring" unicode="&#xe5;" 
d="M289 510q24 0 48 -7.5t35 -14.5l12 -8h10l12 40l197 -20l-85 -510l-177 -10l-3 40h-10q-47 -40 -107 -40q-52 0 -93.5 17.5t-65 45.5t-40 62.5t-17.5 69t2 65.5q20 112 95.5 191t186.5 79zM266 150q20 0 40 7.5t30 14.5l10 8l20 140q-22 20 -67 20q-34 0 -56.5 -27.5
t-28.5 -62.5q-8 -44 4 -72t48 -28zM365 580q-72 0 -109.5 38t-25.5 102q12 65 62.5 107.5t123.5 42.5q71 0 108.5 -44.5t25.5 -105.5q-10 -58 -61.5 -99t-123.5 -41zM398 765q-17 0 -31 -13.5t-17 -31.5q-4 -20 5.5 -32.5t26.5 -12.5t30.5 12.5t17.5 32.5q3 20 -6.5 32.5
t-25.5 12.5z" />
    <glyph glyph-name="ae" unicode="&#xe6;" horiz-adv-x="854" 
d="M136 -20q-80 0 -122 45.5t-29 119.5q8 48 45 84t83.5 53.5t91.5 28t76 12.5l31 2q3 19 -8.5 29.5t-34.5 10.5q-31 0 -72 -11.5t-66 -22.5l-25 -11l-30 140q13 7 36.5 17t85.5 26.5t113 16.5q84 0 136 -80h10q80 80 198 80q113 0 163.5 -47t38.5 -113q-16 -92 -91.5 -141
t-172.5 -49q-18 0 -37.5 2.5t-29.5 5.5l-11 2l-2 -10q35 -30 85 -30q35 0 71 7.5t55 14.5l19 8l49 -130q-11 -7 -31.5 -17t-79 -26.5t-111.5 -16.5q-126 0 -180 80h-10q-110 -80 -244 -80zM535 299q122 1 129 46q3 15 -6 25t-27 10q-67 0 -96 -81zM232 130q16 0 31.5 4
t23.5 8l8 3l10 55q-12 1 -30.5 0.5t-50.5 -10.5t-36 -30q-2 -12 8.5 -21t35.5 -9z" />
    <glyph glyph-name="ccedilla" unicode="&#xe7;" horiz-adv-x="495" 
d="M50 -255l48 75q10 -15 52 -15q45 0 50 25q3 20 -19 31.5t-45 12.5l-24 1l22 122q-160 52 -125 258q22 121 113.5 193t213.5 72q44 0 91.5 -15t72.5 -30l26 -15l-117 -150q-25 30 -75 30q-46 0 -77 -23t-38 -67q-7 -38 16.5 -64t67.5 -26q22 0 48.5 9t42.5 17l15 9
l54 -145q-11 -8 -31 -19.5t-76 -31t-105 -19.5h-10l-4 -25q6 -1 15 -3t31 -11.5t38.5 -22.5t27 -37.5t5.5 -55.5q-9 -46 -59 -80.5t-122 -34.5q-30 0 -61 9t-46 17z" />
    <glyph glyph-name="egrave" unicode="&#xe8;" horiz-adv-x="555" 
d="M10 260q20 112 119 186t227 74q112 0 163 -47t39 -113q-16 -92 -91.5 -141t-172.5 -49q-18 0 -37.5 2.5t-30.5 5.5l-10 2l-2 -10q35 -30 85 -30q35 0 71 7.5t55 14.5l19 8l49 -130q-11 -7 -31.5 -17t-79 -26.5t-111.5 -16.5q-129 0 -206.5 72.5t-54.5 207.5zM236 299
q122 1 129 46q3 15 -6 25t-27 10q-67 0 -96 -81zM460 580l-148 10l-139 180l238 -10z" />
    <glyph glyph-name="eacute" unicode="&#xe9;" horiz-adv-x="555" 
d="M10 260q20 112 119 186t227 74q112 0 163 -47t39 -113q-16 -92 -91.5 -141t-172.5 -49q-18 0 -37.5 2.5t-30.5 5.5l-10 2l-2 -10q35 -30 85 -30q35 0 71 7.5t55 14.5l19 8l49 -130q-11 -7 -31.5 -17t-79 -26.5t-111.5 -16.5q-129 0 -206.5 72.5t-54.5 207.5zM236 299
q122 1 129 46q3 15 -6 25t-27 10q-67 0 -96 -81zM393 600l-152 -10l113 180l241 10z" />
    <glyph glyph-name="ecircumflex" unicode="&#xea;" horiz-adv-x="555" 
d="M10 260q20 112 119 186t227 74q112 0 163 -47t39 -113q-16 -92 -91.5 -141t-172.5 -49q-18 0 -37.5 2.5t-30.5 5.5l-10 2l-2 -10q35 -30 85 -30q35 0 71 7.5t55 14.5l19 8l49 -130q-11 -7 -31.5 -17t-79 -26.5t-111.5 -16.5q-129 0 -206.5 72.5t-54.5 207.5zM236 299
q122 1 129 46q3 15 -6 25t-27 10q-67 0 -96 -81zM556 615l-158 -45l-54 90h-10l-65 -85l-167 15l187 210h150z" />
    <glyph glyph-name="edieresis" unicode="&#xeb;" horiz-adv-x="555" 
d="M10 260q20 112 119 186t227 74q112 0 163 -47t39 -113q-16 -92 -91.5 -141t-172.5 -49q-18 0 -37.5 2.5t-30.5 5.5l-10 2l-2 -10q35 -30 85 -30q35 0 71 7.5t55 14.5l19 8l49 -130q-11 -7 -31.5 -17t-79 -26.5t-111.5 -16.5q-129 0 -206.5 72.5t-54.5 207.5zM236 299
q122 1 129 46q3 15 -6 25t-27 10q-67 0 -96 -81zM257 770q42 0 66 -27t17 -68q-7 -38 -37 -66.5t-79 -28.5q-44 0 -67.5 26t-17.5 64q7 39 38.5 69.5t79.5 30.5zM497 770q42 0 66 -27t17 -68q-7 -38 -37 -66.5t-79 -28.5q-44 0 -67.5 26t-17.5 64q7 39 38.5 69.5t79.5 30.5z
" />
    <glyph glyph-name="igrave" unicode="&#xec;" horiz-adv-x="345" 
d="M106 490h200l-66 -490h-220zM318 580l-148 10l-139 180l238 -10z" />
    <glyph glyph-name="iacute" unicode="&#xed;" horiz-adv-x="340" 
d="M101 490h200l-66 -490h-220zM304 600l-152 -10l113 180l241 10z" />
    <glyph glyph-name="icircumflex" unicode="&#xee;" horiz-adv-x="340" 
d="M101 490h200l-66 -490h-220zM450 595l-158 -45l-54 90h-10l-65 -85l-167 15l187 210h150z" />
    <glyph glyph-name="idieresis" unicode="&#xef;" horiz-adv-x="340" 
d="M101 490h200l-66 -490h-220zM126 770q42 0 66 -27t17 -68q-7 -38 -37 -66.5t-79 -28.5q-44 0 -67.5 26t-17.5 64q7 39 38.5 69.5t79.5 30.5zM366 770q42 0 66 -27t17 -68q-7 -38 -37 -66.5t-79 -28.5q-44 0 -67.5 26t-17.5 64q7 39 38.5 69.5t79.5 30.5z" />
    <glyph glyph-name="eth" unicode="&#xf0;" horiz-adv-x="540" 
d="M271 501l-74 -67l-71 80l64 55l-45 31l111 120l58 -44l52 46l73 -69l-49 -44q168 -164 138 -334q-23 -132 -113.5 -213.5t-208.5 -81.5q-113 0 -175.5 63.5t-45.5 156.5q17 99 93.5 159.5t163.5 60.5q58 0 101 -30l2 9q-15 43 -74 102zM316 205q5 32 -9.5 51t-43.5 19
t-50.5 -19t-26.5 -51q-5 -27 10.5 -46t42.5 -19t49.5 18t27.5 47z" />
    <glyph glyph-name="ntilde" unicode="&#xf1;" horiz-adv-x="625" 
d="M579 250l-44 -250q-13 0 -33.5 -0.5t-64.5 -1.5t-73 -1h-30l45 253q6 34 -2.5 59.5t-32.5 25.5q-13 0 -31.5 -5t-30.5 -10l-12 -5l-50 -315l-207 -10l75 510l176 10l8 -40h10q67 40 132 40q106 0 148 -59.5t17 -200.5zM517 785l65 -115q-7 -9 -19 -22.5t-49.5 -35.5
t-75.5 -22q-32 0 -66.5 20t-52.5 20q-15 0 -32 -11t-26 -23l-9 -11l-74 90q3 4 8 11t21.5 25.5t34 32t43.5 25t51 11.5q37 0 69.5 -20t43.5 -20q16 0 33 11t26 23z" />
    <glyph glyph-name="ograve" unicode="&#xf2;" horiz-adv-x="590" 
d="M10 260q22 120 110 190t216 70q86 0 144 -43.5t78.5 -106.5t8.5 -130q-19 -106 -105.5 -183t-220.5 -77q-114 0 -183 81t-48 199zM308 360q-32 0 -55 -20t-31 -39.5t-12 -40.5q-2 -22 -3.5 -49t14.5 -49t48 -22q41 0 66.5 31.5t31.5 68.5q9 51 -4 85.5t-55 34.5zM441 580
l-148 10l-139 180l238 -10z" />
    <glyph glyph-name="oacute" unicode="&#xf3;" horiz-adv-x="590" 
d="M10 260q22 120 110 190t216 70q86 0 144 -43.5t78.5 -106.5t8.5 -130q-19 -106 -105.5 -183t-220.5 -77q-114 0 -183 81t-48 199zM308 360q-32 0 -55 -20t-31 -39.5t-12 -40.5q-2 -22 -3.5 -49t14.5 -49t48 -22q41 0 66.5 31.5t31.5 68.5q9 51 -4 85.5t-55 34.5zM416 600
l-152 -10l113 180l241 10z" />
    <glyph glyph-name="ocircumflex" unicode="&#xf4;" horiz-adv-x="590" 
d="M10 260q22 120 110 190t216 70q86 0 144 -43.5t78.5 -106.5t8.5 -130q-19 -106 -105.5 -183t-220.5 -77q-114 0 -183 81t-48 199zM308 360q-32 0 -55 -20t-31 -39.5t-12 -40.5q-2 -22 -3.5 -49t14.5 -49t48 -22q41 0 66.5 31.5t31.5 68.5q9 51 -4 85.5t-55 34.5zM572 615
l-158 -45l-54 90h-10l-65 -85l-167 15l187 210h150z" />
    <glyph glyph-name="otilde" unicode="&#xf5;" horiz-adv-x="590" 
d="M10 260q22 120 110 190t216 70q86 0 144 -43.5t78.5 -106.5t8.5 -130q-19 -106 -105.5 -183t-220.5 -77q-114 0 -183 81t-48 199zM308 360q-32 0 -55 -20t-31 -39.5t-12 -40.5q-2 -22 -3.5 -49t14.5 -49t48 -22q41 0 66.5 31.5t31.5 68.5q9 51 -4 85.5t-55 34.5zM499 785
l65 -115q-7 -9 -19 -22.5t-49.5 -35.5t-75.5 -22q-32 0 -66.5 20t-52.5 20q-15 0 -32 -11t-26 -23l-9 -11l-74 90q3 4 8 11t21.5 25.5t34 32t43.5 25t51 11.5q37 0 69.5 -20t43.5 -20q16 0 33 11t26 23z" />
    <glyph glyph-name="odieresis" unicode="&#xf6;" horiz-adv-x="590" 
d="M10 260q22 120 110 190t216 70q86 0 144 -43.5t78.5 -106.5t8.5 -130q-19 -106 -105.5 -183t-220.5 -77q-114 0 -183 81t-48 199zM308 360q-32 0 -55 -20t-31 -39.5t-12 -40.5q-2 -22 -3.5 -49t14.5 -49t48 -22q41 0 66.5 31.5t31.5 68.5q9 51 -4 85.5t-55 34.5zM258 770
q42 0 66 -27t17 -68q-7 -38 -37 -66.5t-79 -28.5q-44 0 -67.5 26t-17.5 64q7 39 38.5 69.5t79.5 30.5zM498 770q42 0 66 -27t17 -68q-7 -38 -37 -66.5t-79 -28.5q-44 0 -67.5 26t-17.5 64q7 39 38.5 69.5t79.5 30.5z" />
    <glyph glyph-name="divide" unicode="&#xf7;" horiz-adv-x="590" 
d="M287 240q47 0 75.5 -30.5t21.5 -69.5t-46 -69.5t-86 -30.5q-48 0 -76.5 30.5t-21.5 69.5t46.5 69.5t86.5 30.5zM364 679q47 0 75.5 -30.5t22.5 -69.5q-7 -39 -46.5 -69.5t-86.5 -30.5t-75.5 30.5t-21.5 69.5q6 39 45 69.5t87 30.5zM585 430l-26 -150h-520l19 165z" />
    <glyph glyph-name="oslash" unicode="&#xf8;" horiz-adv-x="590" 
d="M10 260q22 120 110 190t216 70q100 0 165 -60l57 40l55 -85l-57 -40q23 -66 11 -135q-19 -106 -105.5 -183t-220.5 -77q-98 0 -163 60l-58 -40l-56 85l56 39q-22 59 -10 136zM308 360q-32 0 -55 -20t-31 -39.5t-12 -40.5v-4l133 94q-15 10 -35 10zM269 140
q41 0 66.5 31.5t31.5 68.5v3l-133 -93q15 -10 35 -10z" />
    <glyph glyph-name="ugrave" unicode="&#xf9;" horiz-adv-x="635" 
d="M44 250l44 250q13 0 33.5 0.5t64.5 1.5t73 1h29l-44 -253q-6 -34 2.5 -59.5t32.5 -25.5q13 0 31.5 5t29.5 10l12 5l51 315l206 10l-74 -510l-177 -10l-8 40h-10q-67 -40 -132 -40q-106 0 -147.5 59.5t-16.5 200.5zM451 580l-148 10l-139 180l238 -10z" />
    <glyph glyph-name="uacute" unicode="&#xfa;" 
d="M29 250l44 250q13 0 33.5 0.5t64.5 1.5t73 1h29l-44 -253q-6 -34 2.5 -59.5t32.5 -25.5q13 0 31.5 5t30.5 10l11 5l51 315l206 10l-74 -510l-177 -10l-8 40h-10q-67 -40 -132 -40q-106 0 -147.5 59.5t-16.5 200.5zM399 600l-152 -10l113 180l241 10z" />
    <glyph glyph-name="ucircumflex" unicode="&#xfb;" 
d="M29 250l44 250q13 0 33.5 0.5t64.5 1.5t73 1h29l-44 -253q-6 -34 2.5 -59.5t32.5 -25.5q13 0 31.5 5t30.5 10l11 5l51 315l206 10l-74 -510l-177 -10l-8 40h-10q-67 -40 -132 -40q-106 0 -147.5 59.5t-16.5 200.5zM579 615l-158 -45l-54 90h-10l-65 -85l-167 15l187 210
h150z" />
    <glyph glyph-name="udieresis" unicode="&#xfc;" horiz-adv-x="635" 
d="M44 250l44 250q13 0 33.5 0.5t64.5 1.5t73 1h29l-44 -253q-6 -34 2.5 -59.5t32.5 -25.5q13 0 31.5 5t29.5 10l12 5l51 315l206 10l-74 -510l-177 -10l-8 40h-10q-67 -40 -132 -40q-106 0 -147.5 59.5t-16.5 200.5zM263 770q42 0 66 -27t17 -68q-7 -38 -37 -66.5
t-79 -28.5q-44 0 -67.5 26t-17.5 64q7 39 38.5 69.5t79.5 30.5zM503 770q42 0 66 -27t17 -68q-7 -38 -37 -66.5t-79 -28.5q-44 0 -67.5 26t-17.5 64q7 39 38.5 69.5t79.5 30.5z" />
    <glyph glyph-name="yacute" unicode="&#xfd;" horiz-adv-x="595" 
d="M186 -50q100 0 115 85h-10q-35 -25 -105 -25q-200 0 -151 275l43 215l201 10l-42 -240q-7 -42 3.5 -63.5t31.5 -21.5q16 0 30.5 5t21.5 10l7 5l57 295l211 10l-82 -470q-22 -123 -113 -189t-217 -66q-38 0 -72.5 5.5t-57 13.5t-39.5 16.5t-24 13.5l-8 6l87 150
q63 -40 113 -40zM424 600l-152 -10l113 180l241 10z" />
    <glyph glyph-name="thorn" unicode="&#xfe;" horiz-adv-x="630" 
d="M331 -20q-24 0 -54 7.5t-47 14.5l-18 8h-10l-37 -210l-193 -10l164 900l187 10l-37 -211h10q45 31 105 31q64 0 111 -27.5t70 -70t31 -87.5t1 -85q-20 -112 -96 -191t-187 -79zM356 350q-25 0 -50.5 -10t-38.5 -20l-13 -10l-23 -130q27 -30 90 -30q34 0 57 27.5t29 62.5
q8 46 -4 78t-47 32z" />
    <glyph glyph-name="ydieresis" unicode="&#xff;" horiz-adv-x="625" 
d="M201 -50q100 0 115 85h-10q-35 -25 -105 -25q-200 0 -151 275l43 215l201 10l-42 -240q-7 -42 3.5 -63.5t31.5 -21.5q16 0 30.5 5t21.5 10l7 5l57 295l211 10l-82 -470q-22 -123 -113 -189t-217 -66q-38 0 -72.5 5.5t-57 13.5t-39.5 16.5t-25 13.5l-7 6l87 150
q63 -40 113 -40zM285 780q42 0 66 -27t17 -68q-7 -38 -37 -66.5t-79 -28.5q-44 0 -67.5 26t-17.5 64q7 39 38.5 69.5t79.5 30.5zM525 780q42 0 66 -27t17 -68q-7 -38 -37 -66.5t-79 -28.5q-44 0 -67.5 26t-17.5 64q7 39 38.5 69.5t79.5 30.5z" />
    <glyph glyph-name="Amacron" unicode="&#x100;" horiz-adv-x="745" 
d="M328 700l263 20l135 -709l-240 -31l-28 180h-205l-83 -160h-240zM406 460l-82 -150h115l-23 150h-10zM686 955l-28 -160l-351 -5l18 160z" />
    <glyph glyph-name="amacron" unicode="&#x101;" 
d="M289 510q24 0 48 -7.5t35 -14.5l12 -8h10l12 40l197 -20l-85 -510l-177 -10l-3 40h-10q-47 -40 -107 -40q-52 0 -93.5 17.5t-65 45.5t-40 62.5t-17.5 69t2 65.5q20 112 95.5 191t186.5 79zM266 150q20 0 40 7.5t30 14.5l10 8l20 140q-22 20 -67 20q-34 0 -56.5 -27.5
t-28.5 -62.5q-8 -44 4 -72t48 -28zM572 765l-28 -160l-351 -5l18 160z" />
    <glyph glyph-name="Abreve" unicode="&#x102;" horiz-adv-x="745" 
d="M328 700l263 20l135 -709l-240 -31l-28 180h-205l-83 -160h-240zM406 460l-82 -150h115l-23 150h-10zM271 922l125 85q4 -7 11.5 -17t32 -26.5t51.5 -16.5q31 0 60 15t42 30l13 15l95 -85q-4 -5 -10.5 -14t-30 -31.5t-49 -39.5t-66 -31t-82.5 -14q-45 0 -81 13.5
t-56 32.5t-33 38t-17 32z" />
    <glyph glyph-name="abreve" unicode="&#x103;" 
d="M289 510q24 0 48 -7.5t35 -14.5l12 -8h10l12 40l197 -20l-85 -510l-177 -10l-3 40h-10q-47 -40 -107 -40q-52 0 -93.5 17.5t-65 45.5t-40 62.5t-17.5 69t2 65.5q20 112 95.5 191t186.5 79zM266 150q20 0 40 7.5t30 14.5l10 8l20 140q-22 20 -67 20q-34 0 -56.5 -27.5
t-28.5 -62.5q-8 -44 4 -72t48 -28zM184 710l125 85q4 -7 11.5 -17t32 -26.5t51.5 -16.5q31 0 60 15t42 30l13 15l95 -85q-4 -5 -10.5 -14t-30 -31.5t-49 -39.5t-66 -31t-82.5 -14q-45 0 -81 13.5t-56 32.5t-33 38t-18 32z" />
    <glyph glyph-name="Aogonek" unicode="&#x104;" horiz-adv-x="765" 
d="M667 -155l22 -75q-70 -45 -138 -45q-74 0 -115.5 36t-32.5 89q18 97 162 144l-65 6l-32 160h-205l-83 -160h-240l398 700l263 20l135 -710q-7 -3 -19 -9t-42.5 -23t-54.5 -34t-45 -39t-24 -40q-3 -13 6.5 -24t32.5 -11q19 0 38 4t29 8zM416 460l-82 -150h115l-23 150h-10
z" />
    <glyph glyph-name="aogonek" unicode="&#x105;" horiz-adv-x="580" 
d="M427 -155l22 -75q-70 -45 -138 -45q-74 0 -115.5 36t-32.5 89q10 55 56 89.5t99 51.5l-20 -1l-3 40h-10q-7 -6 -19 -14t-49.5 -22t-75.5 -14q-80 0 -122 45.5t-29 119.5q8 48 45 84t83.5 53.5t91.5 28t76 12.5l31 2q3 19 -8.5 29.5t-34.5 10.5q-31 0 -72 -11.5t-66 -22.5
l-25 -11l-30 140q13 7 36.5 17t85.5 26.5t113 16.5q127 0 178.5 -73t28.5 -200l-43 -247q-6 -3 -17 -8t-39 -20.5t-49.5 -31t-41 -36.5t-22.5 -39q-3 -13 6.5 -24t32.5 -11q19 0 38 4t29 8zM237 125q16 0 31.5 3.5t23.5 7.5l7 4l10 55q-12 1 -30.5 0.5t-50.5 -10.5t-36 -30
q-2 -12 9 -21t36 -9z" />
    <glyph glyph-name="Cacute" unicode="&#x106;" horiz-adv-x="640" 
d="M43 360q63 360 408 360q131 0 241 -110l-139 -134q-7 7 -18 16.5t-44 26t-62 16.5q-40 0 -68.5 -15t-46 -45t-27 -60t-18.5 -75q-6 -24 -3.5 -54.5t9.5 -57.5t30.5 -45t58.5 -18q40 0 82 17.5t64 35.5l21 17l94 -145q-5 -4 -14.5 -11.5t-39 -26.5t-60 -33.5t-75 -26.5
t-86.5 -12q-373 0 -307 380zM495 789l-152 -10l113 180l241 10z" />
    <glyph glyph-name="cacute" unicode="&#x107;" horiz-adv-x="504" 
d="M9 255q22 121 113.5 193t213.5 72q44 0 91.5 -15t72.5 -30l26 -15l-117 -150q-25 30 -75 30q-46 0 -77 -23t-38 -67q-7 -38 16.5 -64t67.5 -26q22 0 48.5 9t42.5 17l15 9l54 -145q-11 -8 -31 -19.5t-76 -31t-105 -19.5q-134 0 -200 67.5t-42 207.5zM397 590l-152 -10
l113 180l241 10z" />
    <glyph glyph-name="Ccircumflex" unicode="&#x108;" horiz-adv-x="640" 
d="M43 360q63 360 408 360q131 0 241 -110l-139 -134q-7 7 -18 16.5t-44 26t-62 16.5q-40 0 -68.5 -15t-46 -45t-27 -60t-18.5 -75q-6 -24 -3.5 -54.5t9.5 -57.5t30.5 -45t58.5 -18q40 0 82 17.5t64 35.5l21 17l94 -145q-5 -4 -14.5 -11.5t-39 -26.5t-60 -33.5t-75 -26.5
t-86.5 -12q-373 0 -307 380zM662 819l-158 -45l-54 90h-10l-65 -85l-167 15l187 210h150z" />
    <glyph glyph-name="ccircumflex" unicode="&#x109;" horiz-adv-x="495" 
d="M9 255q22 121 113.5 193t213.5 72q44 0 91.5 -15t72.5 -30l26 -15l-117 -150q-25 30 -75 30q-46 0 -77 -23t-38 -67q-7 -38 16.5 -64t67.5 -26q22 0 48.5 9t42.5 17l15 9l54 -145q-11 -8 -31 -19.5t-76 -31t-105 -19.5q-134 0 -200 67.5t-42 207.5zM560 615l-158 -45
l-54 90h-10l-65 -85l-167 15l187 210h150z" />
    <glyph glyph-name="Ccaron" unicode="&#x10c;" horiz-adv-x="640" 
d="M43 360q63 360 408 360q131 0 241 -110l-139 -134q-7 7 -18 16.5t-44 26t-62 16.5q-40 0 -68.5 -15t-46 -45t-27 -60t-18.5 -75q-6 -24 -3.5 -54.5t9.5 -57.5t30.5 -45t58.5 -18q40 0 82 17.5t64 35.5l21 17l94 -145q-5 -4 -14.5 -11.5t-39 -26.5t-60 -33.5t-75 -26.5
t-86.5 -12q-373 0 -307 380zM234 968l158 45l54 -90h10l65 85l167 -15l-187 -210h-150z" />
    <glyph glyph-name="ccaron" unicode="&#x10d;" horiz-adv-x="495" 
d="M9 255q22 121 113.5 193t213.5 72q44 0 91.5 -15t72.5 -30l26 -15l-117 -150q-25 30 -75 30q-46 0 -77 -23t-38 -67q-7 -38 16.5 -64t67.5 -26q22 0 48.5 9t42.5 17l15 9l54 -145q-11 -8 -31 -19.5t-76 -31t-105 -19.5q-134 0 -200 67.5t-42 207.5zM137 766l158 45
l54 -90h10l65 85l167 -15l-187 -210h-150z" />
    <glyph glyph-name="Dcaron" unicode="&#x10e;" horiz-adv-x="705" 
d="M10 0l123 700h285q166 0 236 -96t40 -264q-28 -164 -138.5 -262t-264.5 -98q-125 0 -281 20zM323 530l-77 -380h60q40 0 69.5 15t47.5 43t28.5 59.5t17.5 72.5q4 23 6 43.5t-0.5 49t-12 48.5t-32.5 34.5t-57 14.5h-50zM232 957l158 45l54 -90h10l65 85l167 -15l-187 -210
h-150z" />
    <glyph glyph-name="dcaron" unicode="&#x10f;" horiz-adv-x="795" 
d="M783 700q46 0 70 -32.5t14 -87.5q-11 -64 -57.5 -110t-114.5 -70l-28 70q32 9 52 34q17 23 -6 26q-27 4 -42 25.5t-9 54.5q6 35 41.5 62.5t79.5 27.5zM289 510q24 0 48 -7.5t35 -14.5l12 -8h10l49 250l197 -20l-122 -720l-177 -10l-3 40h-10q-47 -40 -107 -40
q-52 0 -93.5 17.5t-65 45.5t-40 62.5t-17.5 69t2 65.5q20 112 95.5 191t186.5 79zM266 150q20 0 40 7.5t30 14.5l10 8l20 140q-22 20 -67 20q-34 0 -56.5 -27.5t-28.5 -62.5q-8 -44 4 -72t48 -28z" />
    <glyph glyph-name="Dcroat" unicode="&#x110;" horiz-adv-x="721" 
d="M26 0l46 261h-46l18 160l56 1l49 278h285q166 0 236 -96t40 -264q-28 -164 -138.5 -262t-264.5 -98q-125 0 -281 20zM405 426l-29 -160l-91 -2l-23 -114h60q40 0 69.5 15t47.5 43t28.5 59.5t17.5 72.5q4 23 6 43.5t-0.5 49t-12 48.5t-32.5 34.5t-57 14.5h-50l-22 -105z
" />
    <glyph glyph-name="dcroat" unicode="&#x111;" horiz-adv-x="645" 
d="M709 675l-29 -160l-64 -1l-88 -524l-177 -10l-3 40h-10q-62 -40 -122 -40q-52 0 -91.5 16t-60.5 41.5t-34.5 58t-13.5 65.5t3 64q20 110 90.5 177.5t182.5 67.5q24 0 48 -7.5t36 -14.5l11 -8h10l14 71l-82 -1l19 160l94 1l11 59l197 -20l-7 -36zM274 140q20 0 40 7.5
t30 14.5l10 8l17 120q-22 20 -67 20q-35 0 -56 -21t-27 -54q-9 -50 3.5 -72.5t49.5 -22.5z" />
    <glyph glyph-name="Emacron" unicode="&#x112;" 
d="M554 170l-39 -170h-505l133 700h495l-47 -180h-270l-14 -80h240l-21 -175h-250l-15 -85zM621 955l-28 -160l-351 -5l18 160z" />
    <glyph glyph-name="emacron" unicode="&#x113;" horiz-adv-x="555" 
d="M10 260q20 112 119 186t227 74q112 0 163 -47t39 -113q-16 -92 -91.5 -141t-172.5 -49q-18 0 -37.5 2.5t-30.5 5.5l-10 2l-2 -10q35 -30 85 -30q35 0 71 7.5t55 14.5l19 8l49 -130q-11 -7 -31.5 -17t-79 -26.5t-111.5 -16.5q-129 0 -206.5 72.5t-54.5 207.5zM236 299
q122 1 129 46q3 15 -6 25t-27 10q-67 0 -96 -81zM549 755l-28 -160l-351 -5l18 160z" />
    <glyph glyph-name="Edotaccent" unicode="&#x116;" 
d="M554 170l-39 -170h-505l133 700h495l-47 -180h-270l-14 -80h240l-21 -175h-250l-15 -85zM443 961q42 0 66 -27t17 -68q-7 -38 -37 -66.5t-79 -28.5q-44 0 -67.5 26t-17.5 64q7 39 38.5 69.5t79.5 30.5z" />
    <glyph glyph-name="edotaccent" unicode="&#x117;" horiz-adv-x="555" 
d="M10 260q20 112 119 186t227 74q112 0 163 -47t39 -113q-16 -92 -91.5 -141t-172.5 -49q-18 0 -37.5 2.5t-30.5 5.5l-10 2l-2 -10q35 -30 85 -30q35 0 71 7.5t55 14.5l19 8l49 -130q-11 -7 -31.5 -17t-79 -26.5t-111.5 -16.5q-129 0 -206.5 72.5t-54.5 207.5zM236 299
q122 1 129 46q3 15 -6 25t-27 10q-67 0 -96 -81zM387 770q42 0 66 -27t17 -68q-7 -38 -37 -66.5t-79 -28.5q-44 0 -67.5 26t-17.5 64q7 39 38.5 69.5t79.5 30.5z" />
    <glyph glyph-name="Eogonek" unicode="&#x118;" 
d="M453 -155l22 -75q-70 -45 -138 -45q-74 0 -115.5 36t-32.5 89q6 31 26.5 58t45 43t51.5 28t42.5 16t20.5 5h-365l133 700h495l-47 -180h-270l-14 -80h240l-21 -175h-250l-15 -85l293 -10l-39 -170h-10q-13 -5 -45.5 -22t-75 -50.5t-47.5 -62.5q-3 -13 6.5 -24t32.5 -11
q19 0 38 4t29 8z" />
    <glyph glyph-name="eogonek" unicode="&#x119;" horiz-adv-x="555" 
d="M10 260q20 112 119 186t227 74q112 0 163 -47t39 -113q-16 -92 -91.5 -141t-172.5 -49q-18 0 -37.5 2.5t-30.5 5.5l-10 2l-2 -10q35 -30 85 -30q35 0 71 7.5t55 14.5l19 8l49 -130q-49 -28 -115 -45q-147 -70 -157 -130q-3 -13 6.5 -24t32.5 -11q19 0 38 4t29 8l10 3
l22 -75q-70 -45 -138 -45q-74 0 -115.5 36t-32.5 89q15 87 137 135q-106 16 -163.5 86.5t-36.5 188.5zM236 299q122 1 129 46q3 15 -6 25t-27 10q-67 0 -96 -81z" />
    <glyph glyph-name="Ecaron" unicode="&#x11a;" 
d="M554 170l-39 -170h-505l133 700h495l-47 -180h-270l-14 -80h240l-21 -175h-250l-15 -85zM215 957l158 45l54 -90h10l65 85l167 -15l-187 -210h-150z" />
    <glyph glyph-name="ecaron" unicode="&#x11b;" horiz-adv-x="555" 
d="M10 260q20 112 119 186t227 74q112 0 163 -47t39 -113q-16 -92 -91.5 -141t-172.5 -49q-18 0 -37.5 2.5t-30.5 5.5l-10 2l-2 -10q35 -30 85 -30q35 0 71 7.5t55 14.5l19 8l49 -130q-11 -7 -31.5 -17t-79 -26.5t-111.5 -16.5q-129 0 -206.5 72.5t-54.5 207.5zM236 299
q122 1 129 46q3 15 -6 25t-27 10q-67 0 -96 -81zM161 765l158 45l54 -90h10l65 85l167 -15l-187 -210h-150z" />
    <glyph glyph-name="Gbreve" unicode="&#x11e;" horiz-adv-x="700" 
d="M699 620l-150 -140q-4 6 -13 15t-41.5 24.5t-70.5 15.5q-58 0 -96.5 -41.5t-58.5 -153.5q-15 -88 11.5 -134t87.5 -46q34 0 77 15l12 65l-119 5l46 175l306 -20l-61 -345q-63 -34 -139.5 -54.5t-143.5 -20.5q-173 0 -254.5 95.5t-52.5 264.5q11 64 28.5 115t50.5 102.5
t78 85.5t114.5 55.5t156.5 21.5q43 0 83 -10.5t66 -25t45.5 -29t28.5 -25.5zM256 912l125 85q4 -7 11.5 -17t32 -26.5t51.5 -16.5q31 0 60 15t42 30l13 15l95 -85q-4 -5 -10.5 -14t-30 -31.5t-49 -39.5t-66 -31t-82.5 -14q-45 0 -81 13.5t-56 32.5t-33 38t-18 32z" />
    <glyph glyph-name="gbreve" unicode="&#x11f;" 
d="M301 350q-36 0 -58 -28t-29 -72q-6 -35 7 -62.5t47 -27.5q20 0 38 5t26 10l9 5l33 160q-28 10 -73 10zM313 20h-10q-50 -30 -105 -30q-111 0 -159 79t-29 191q8 43 27.5 83.5t57.5 83t105.5 68t155.5 25.5q67 0 128.5 -12.5t89.5 -25.5l28 -12l-75 -430
q-22 -123 -111 -189t-214 -66q-38 0 -72.5 5.5t-57 13.5t-39.5 16.5t-25 13.5l-7 6l87 150q63 -40 113 -40t78 19t34 51zM163 730l125 85q4 -7 11.5 -17t32 -26.5t51.5 -16.5q31 0 60 15t42 30l13 15l95 -85q-4 -5 -10.5 -14t-30 -31.5t-49 -39.5t-66 -31t-82.5 -14
q-45 0 -81 13.5t-56 32.5t-33 38t-17 32z" />
    <glyph glyph-name="Gcommaaccent" unicode="&#x122;" horiz-adv-x="700" 
d="M699 620l-150 -140q-4 6 -13 15t-41.5 24.5t-70.5 15.5q-58 0 -96.5 -41.5t-58.5 -153.5q-15 -88 11.5 -134t87.5 -46q34 0 77 15l12 65l-119 5l46 175l306 -20l-61 -345q-63 -34 -139.5 -54.5t-143.5 -20.5q-173 0 -254.5 95.5t-52.5 264.5q11 64 28.5 115t50.5 102.5
t78 85.5t114.5 55.5t156.5 21.5q43 0 83 -10.5t66 -25t45.5 -29t28.5 -25.5zM304 -60q46 0 70 -32.5t14 -87.5q-11 -64 -57.5 -110t-114.5 -70l-28 70q32 9 52 34q17 23 -6 26q-27 4 -42 25.5t-9 54.5q6 35 41.5 62.5t79.5 27.5z" />
    <glyph glyph-name="gcommaaccent" unicode="&#x123;" 
d="M347 580q-46 0 -70 32.5t-14 87.5q11 65 57.5 110.5t114.5 69.5l27 -70q-31 -9 -51 -34q-17 -23 6 -26q27 -4 42 -25.5t9 -54.5q-6 -35 -41.5 -62.5t-79.5 -27.5zM301 350q-36 0 -58 -28t-29 -72q-6 -35 7 -62.5t47 -27.5q20 0 38 5t26 10l9 5l33 160q-28 10 -73 10z
M313 20h-10q-50 -30 -105 -30q-111 0 -159 79t-29 191q8 43 27.5 83.5t57.5 83t105.5 68t155.5 25.5q67 0 128.5 -12.5t89.5 -25.5l28 -12l-75 -430q-22 -123 -111 -189t-214 -66q-38 0 -72.5 5.5t-57 13.5t-39.5 16.5t-25 13.5l-7 6l87 150q63 -40 113 -40t78 19t34 51z
" />
    <glyph glyph-name="Imacron" unicode="&#x12a;" horiz-adv-x="485" 
d="M-15 0l19 170h110l65 365l-114 5l30 170l438 -10l-33 -160l-113 -15l-53 -355h110l-29 -170h-430zM527 955l-28 -160l-351 -5l18 160z" />
    <glyph glyph-name="imacron" unicode="&#x12b;" horiz-adv-x="340" 
d="M112 490h200l-66 -490h-220zM433 755l-28 -160l-351 -5l18 160z" />
    <glyph glyph-name="Iogonek" unicode="&#x12e;" horiz-adv-x="485" 
d="M-15 0l19 170h110l65 365l-114 5l30 170l438 -10l-33 -160l-113 -15l-53 -355h110l-29 -170h-115q-13 -5 -45.5 -22t-75 -50.5t-47.5 -62.5q-3 -13 6.5 -24t32.5 -11q19 0 38 4t29 8l10 3l22 -75q-70 -45 -138 -45q-74 0 -115.5 36t-32.5 89q7 38 31 68.5t55 47t49.5 24
t29.5 10.5h-164z" />
    <glyph glyph-name="iogonek" unicode="&#x12f;" horiz-adv-x="330" 
d="M177 -155l22 -75q-70 -45 -138 -45q-74 0 -115 36t-32 89q6 32 27 59.5t47.5 43.5t52 27t42.5 16l17 4h129q-13 -5 -45.5 -22t-75 -50.5t-47.5 -62.5q-3 -13 6.5 -24t32.5 -11q19 0 38 4t29 8zM101 490h200l-66 -490h-220zM240 740q43 0 73.5 -30t23.5 -70
q-7 -38 -43.5 -69t-88.5 -31q-48 0 -76.5 29t-21.5 67q7 41 43.5 72.5t89.5 31.5z" />
    <glyph glyph-name="Idotaccent" unicode="&#x130;" horiz-adv-x="485" 
d="M-15 0l19 170h110l65 365l-114 5l30 170l438 -10l-33 -160l-113 -15l-53 -355h110l-29 -170h-430zM380 978q42 0 66 -27t17 -68q-7 -38 -37 -66.5t-79 -28.5q-44 0 -67.5 26t-17.5 64q7 39 38.5 69.5t79.5 30.5z" />
    <glyph glyph-name="dotlessi" unicode="&#x131;" horiz-adv-x="320" 
d="M91 490h200l-66 -490h-220z" />
    <glyph glyph-name="Kcommaaccent" unicode="&#x136;" horiz-adv-x="700" 
d="M690 0h-285l-125 230h-10l-40 -230h-210l115 710l216 -20l-39 -220h10l265 255l136 -140l-256 -230zM314 -50q46 0 70 -32.5t14 -87.5q-11 -64 -57.5 -110t-114.5 -70l-28 70q32 9 52 34q17 23 -6 26q-27 4 -42 25.5t-9 54.5q6 35 41.5 62.5t79.5 27.5z" />
    <glyph glyph-name="kcommaaccent" unicode="&#x137;" horiz-adv-x="590" 
d="M563 20l-218 -30l-92 170h-10l-28 -160l-199 10l119 700l203 20l-56 -350h10l196 150l97 -130l-180 -140zM258 -50q46 0 70 -32.5t14 -87.5q-11 -64 -57.5 -110t-114.5 -70l-28 70q32 9 52 34q17 23 -6 26q-27 4 -42 25.5t-9 54.5q6 35 41.5 62.5t79.5 27.5z" />
    <glyph glyph-name="Lacute" unicode="&#x139;" horiz-adv-x="585" 
d="M536 180l-11 -180l-514 -20l127 720h230l-104 -530zM333 791l-152 -10l113 180l241 10z" />
    <glyph glyph-name="lacute" unicode="&#x13a;" horiz-adv-x="342" 
d="M138 700l203 20l-116 -720l-209 10zM325 791l-152 -10l113 180l241 10z" />
    <glyph glyph-name="Lcommaaccent" unicode="&#x13b;" horiz-adv-x="585" 
d="M536 180l-11 -180l-514 -20l127 720h230l-104 -530zM271 -60q46 0 70 -32.5t14 -87.5q-11 -64 -57.5 -110t-114.5 -70l-28 70q32 9 52 34q17 23 -6 26q-27 4 -42 25.5t-9 54.5q6 35 41.5 62.5t79.5 27.5z" />
    <glyph glyph-name="lcommaaccent" unicode="&#x13c;" horiz-adv-x="330" 
d="M104 -60q46 0 70 -32.5t14 -87.5q-11 -64 -57.5 -110t-114.5 -70l-28 70q32 9 52 34q17 23 -6 26q-27 4 -42 25.5t-9 54.5q6 35 41.5 62.5t79.5 27.5zM133 700l203 20l-116 -720l-209 10z" />
    <glyph glyph-name="Lcaron" unicode="&#x13d;" horiz-adv-x="585" 
d="M543 700q46 0 70 -32.5t14 -87.5q-11 -64 -57.5 -110t-114.5 -70l-28 70q32 9 52 34q17 23 -6 26q-27 4 -42 25.5t-9 54.5q6 35 41.5 62.5t79.5 27.5zM536 180l-11 -180l-514 -20l127 720h230l-104 -530z" />
    <glyph glyph-name="lcaron" unicode="&#x13e;" horiz-adv-x="525" 
d="M493 700q46 0 70 -32.5t14 -87.5q-11 -64 -57.5 -110t-114.5 -70l-28 70q32 9 52 34q17 23 -6 26q-27 4 -42 25.5t-9 54.5q6 35 41.5 62.5t79.5 27.5zM138 700l203 20l-116 -720l-209 10z" />
    <glyph glyph-name="Lslash" unicode="&#x141;" horiz-adv-x="647" 
d="M598 180l-11 -180l-514 -20l34 194l-56 -26l-48 154l138 62l59 336h230l-44 -226l145 66l43 -150l-224 -104l-24 -116z" />
    <glyph glyph-name="lslash" unicode="&#x142;" horiz-adv-x="375" 
d="M148 700l203 20l-35 -230l87 40l41 -135l-158 -75l-51 -320l-209 10l36 200l-50 -25l-41 135l121 60z" />
    <glyph glyph-name="Nacute" unicode="&#x143;" horiz-adv-x="770" 
d="M30 0l103 700h210l146 -335h10l67 355l217 -20l-140 -680l-213 -20l-136 310h-10l-44 -310h-210zM539 791l-152 -10l113 180l241 10z" />
    <glyph glyph-name="nacute" unicode="&#x144;" horiz-adv-x="645" 
d="M589 250l-44 -250q-13 0 -33.5 -0.5t-64.5 -1.5t-73 -1h-30l45 253q6 34 -2.5 59.5t-32.5 25.5q-13 0 -31.5 -5t-30.5 -10l-12 -5l-50 -315l-207 -10l75 510l176 10l8 -40h10q67 40 132 40q106 0 148 -59.5t17 -200.5zM435 590l-152 -10l113 180l241 10z" />
    <glyph glyph-name="Ncommaaccent" unicode="&#x145;" horiz-adv-x="770" 
d="M30 0l103 700h210l146 -335h10l67 355l217 -20l-140 -680l-213 -20l-136 310h-10l-44 -310h-210zM337 -40q46 0 70 -32.5t14 -87.5q-11 -64 -57.5 -110t-114.5 -70l-28 70q32 9 52 34q17 23 -6 26q-27 4 -42 25.5t-9 54.5q6 35 41.5 62.5t79.5 27.5z" />
    <glyph glyph-name="ncommaaccent" unicode="&#x146;" horiz-adv-x="625" 
d="M579 250l-44 -250q-13 0 -33.5 -0.5t-64.5 -1.5t-73 -1h-30l45 253q6 34 -2.5 59.5t-32.5 25.5q-13 0 -31.5 -5t-30.5 -10l-12 -5l-50 -315l-207 -10l75 510l176 10l8 -40h10q67 40 132 40q106 0 148 -59.5t17 -200.5zM263 -50q46 0 70 -32.5t14 -87.5
q-11 -64 -57.5 -110t-114.5 -70l-28 70q32 9 52 34q17 23 -6 26q-27 4 -42 25.5t-9 54.5q6 35 41.5 62.5t79.5 27.5z" />
    <glyph glyph-name="Ncaron" unicode="&#x147;" horiz-adv-x="770" 
d="M30 0l103 700h210l146 -335h10l67 355l217 -20l-140 -680l-213 -20l-136 310h-10l-44 -310h-210zM257 967l158 45l54 -90h10l65 85l167 -15l-187 -210h-150z" />
    <glyph glyph-name="ncaron" unicode="&#x148;" horiz-adv-x="645" 
d="M589 250l-44 -250q-13 0 -33.5 -0.5t-64.5 -1.5t-73 -1h-30l45 253q6 34 -2.5 59.5t-32.5 25.5q-13 0 -31.5 -5t-30.5 -10l-12 -5l-50 -315l-207 -10l75 510l176 10l8 -40h10q67 40 132 40q106 0 148 -59.5t17 -200.5zM186 765l158 45l54 -90h10l65 85l167 -15l-187 -210
h-150z" />
    <glyph glyph-name="Omacron" unicode="&#x14c;" horiz-adv-x="740" 
d="M43 360q30 169 133.5 264.5t269.5 95.5q59 0 107.5 -15.5t79.5 -43t53.5 -64t30.5 -79t10 -88t-8 -90.5q-12 -71 -41 -132.5t-76 -114t-120.5 -83t-165.5 -30.5q-152 0 -227.5 106.5t-45.5 273.5zM415 540q-37 0 -64.5 -15t-43.5 -44t-24 -56t-15 -65q-36 -200 80 -200
q30 0 54 11t38.5 27.5t26 42t17 47.5t10.5 52q6 45 7.5 89.5t-20.5 77.5t-66 33zM668 955l-28 -160l-351 -5l18 160z" />
    <glyph glyph-name="omacron" unicode="&#x14d;" horiz-adv-x="590" 
d="M10 260q22 120 110 190t216 70q86 0 144 -43.5t78.5 -106.5t8.5 -130q-19 -106 -105.5 -183t-220.5 -77q-114 0 -183 81t-48 199zM308 360q-32 0 -55 -20t-31 -39.5t-12 -40.5q-2 -22 -3.5 -49t14.5 -49t48 -22q41 0 66.5 31.5t31.5 68.5q9 51 -4 85.5t-55 34.5zM557 765
l-28 -160l-351 -5l18 160z" />
    <glyph glyph-name="Ohungarumlaut" unicode="&#x150;" horiz-adv-x="740" 
d="M43 360q30 169 133.5 264.5t269.5 95.5q59 0 107.5 -15.5t79.5 -43t53.5 -64t30.5 -79t10 -88t-8 -90.5q-12 -71 -41 -132.5t-76 -114t-120.5 -83t-165.5 -30.5q-152 0 -227.5 106.5t-45.5 273.5zM415 540q-37 0 -64.5 -15t-43.5 -44t-24 -56t-15 -65q-36 -200 80 -200
q30 0 54 11t38.5 27.5t26 42t17 47.5t10.5 52q6 45 7.5 89.5t-20.5 77.5t-66 33zM384 779h-130l111 180l192 10zM604 779h-130l111 180l192 10z" />
    <glyph glyph-name="ohungarumlaut" unicode="&#x151;" horiz-adv-x="599" 
d="M10 260q22 120 110 190t216 70q86 0 144 -43.5t78.5 -106.5t8.5 -130q-19 -106 -105.5 -183t-220.5 -77q-114 0 -183 81t-48 199zM308 360q-32 0 -55 -20t-31 -39.5t-12 -40.5q-2 -22 -3.5 -49t14.5 -49t48 -22q41 0 66.5 31.5t31.5 68.5q9 51 -4 85.5t-55 34.5zM277 586
h-130l111 180l192 10zM497 586h-130l111 180l192 10z" />
    <glyph glyph-name="OE" unicode="&#x152;" horiz-adv-x="985" 
d="M934 170l-39 -170h-556q-158 0 -247 96.5t-60 257.5q26 147 141.5 246.5t288.5 99.5h556l-47 -180h-270l-14 -80h240l-21 -175h-250l-15 -85zM481 520q-104 0 -157.5 -44.5t-69.5 -135.5q-14 -83 24 -121.5t143 -38.5z" />
    <glyph glyph-name="oe" unicode="&#x153;" horiz-adv-x="889" 
d="M10 260q22 120 109.5 190t215.5 70q45 0 85 -25.5t59 -63.5h9q60 49 106.5 68.5t128.5 19.5q91 0 135.5 -47.5t33.5 -111.5q-16 -92 -91.5 -141t-172.5 -49q-18 0 -37.5 2.5t-30.5 5.5l-10 2l-2 -10q35 -30 85 -30q35 0 71 7.5t55 14.5l19 8l49 -130q-11 -7 -31.5 -17
t-79 -26.5t-111.5 -16.5q-134 0 -181 80h-10q-27 -32 -73.5 -56t-100.5 -24q-130 0 -191 78.5t-39 201.5zM308 360q-32 0 -55 -20t-31 -39.5t-12 -40.5q-2 -22 -3.5 -49t14.5 -49t48 -22q41 0 66.5 31.5t31.5 68.5q9 51 -4 85.5t-55 34.5zM570 299q122 1 129 46q3 15 -6 25
t-27 10q-67 0 -96 -81z" />
    <glyph glyph-name="Racute" unicode="&#x154;" horiz-adv-x="700" 
d="M240 0h-220l113 700l252 10q179 7 259 -56.5t57 -188.5q-6 -38 -26.5 -72t-45 -55.5t-48 -37.5t-39.5 -23l-15 -7l-2 -10l152 -220l-241 -60l-143 240h-20zM318 530l-23 -160q92 0 134 18.5t51 66.5q8 46 -22.5 60.5t-104.5 14.5h-35zM485 789l-152 -10l113 180l241 10z
" />
    <glyph glyph-name="racute" unicode="&#x155;" horiz-adv-x="460" 
d="M507 440l-126 -150q-28 40 -68 40q-12 0 -24 -4t-18 -8l-6 -3l-50 -315l-207 -10l80 510l171 10l3 -40h10q42 40 102 40q40 0 73 -17.5t47 -34.5zM373 590l-152 -10l113 180l241 10z" />
    <glyph glyph-name="Rcommaaccent" unicode="&#x156;" horiz-adv-x="700" 
d="M240 0h-220l113 700l252 10q179 7 259 -56.5t57 -188.5q-6 -38 -26.5 -72t-45 -55.5t-48 -37.5t-39.5 -23l-15 -7l-2 -10l152 -220l-241 -60l-143 240h-20zM318 530l-23 -160q92 0 134 18.5t51 66.5q8 46 -22.5 60.5t-104.5 14.5h-35zM311 -50q46 0 70 -32.5t14 -87.5
q-11 -64 -57.5 -110t-114.5 -70l-28 70q32 9 52 34q17 23 -6 26q-27 4 -42 25.5t-9 54.5q6 35 41.5 62.5t79.5 27.5z" />
    <glyph glyph-name="rcommaaccent" unicode="&#x157;" horiz-adv-x="460" 
d="M507 440l-126 -150q-28 40 -68 40q-12 0 -24 -4t-18 -8l-6 -3l-50 -315l-207 -10l80 510l171 10l3 -40h10q42 40 102 40q40 0 73 -17.5t47 -34.5zM106 -50q46 0 70 -32.5t14 -87.5q-11 -64 -57.5 -110t-114.5 -70l-28 70q32 9 52 34q17 23 -6 26q-27 4 -42 25.5t-9 54.5
q6 35 41.5 62.5t79.5 27.5z" />
    <glyph glyph-name="Rcaron" unicode="&#x158;" horiz-adv-x="700" 
d="M240 0h-220l113 700l252 10q179 7 259 -56.5t57 -188.5q-6 -38 -26.5 -72t-45 -55.5t-48 -37.5t-39.5 -23l-15 -7l-2 -10l152 -220l-241 -60l-143 240h-20zM318 530l-23 -160q92 0 134 18.5t51 66.5q8 46 -22.5 60.5t-104.5 14.5h-35zM228 967l158 45l54 -90h10l65 85
l167 -15l-187 -210h-150z" />
    <glyph glyph-name="rcaron" unicode="&#x159;" horiz-adv-x="480" 
d="M517 440l-126 -150q-28 40 -68 40q-12 0 -24 -4t-18 -8l-6 -3l-50 -315l-207 -10l80 510l171 10l3 -40h10q42 40 102 40q40 0 73 -17.5t47 -34.5zM134 766l158 45l54 -90h10l65 85l167 -15l-187 -210h-150z" />
    <glyph glyph-name="Sacute" unicode="&#x15a;" horiz-adv-x="610" 
d="M649 620l-128 -155q-8 8 -21 19.5t-49 31t-67 19.5q-28 0 -46.5 -12t-20.5 -28q-3 -17 18 -31.5t55 -24.5t72 -28t70 -40t48 -62.5t7 -93.5q-16 -95 -114.5 -165t-250.5 -70q-46 0 -90.5 12.5t-75 30t-54 35t-34.5 30.5l-11 12l137 150q11 -10 28.5 -24t61.5 -37.5
t75 -23.5q37 0 58 13t24 27q3 18 -18 32t-54.5 23.5t-71 27t-68.5 40.5t-46.5 66t-5.5 101q16 90 107 157.5t232 67.5q39 0 77.5 -10.5t65.5 -25t48 -29t31 -25.5zM472 791l-152 -10l113 180l241 10z" />
    <glyph glyph-name="sacute" unicode="&#x15b;" horiz-adv-x="495" 
d="M509 450l-91 -120q-53 40 -103 40t-55 -25q-2 -12 20.5 -21t55.5 -19t65 -25.5t50 -49t10 -80.5q-12 -66 -87 -118t-188 -52q-42 0 -80.5 8t-64 20t-45 24t-28.5 20l-8 8l91 120q61 -50 111 -50q60 0 65 25q2 10 -13.5 17.5t-39.5 13t-51 17.5t-49.5 28t-33.5 48t-3 76
q11 63 82 114t182 51q53 0 105 -17.5t78 -34.5zM362 590l-152 -10l113 180l241 10z" />
    <glyph glyph-name="Scedilla" unicode="&#x15e;" horiz-adv-x="610" 
d="M78 -255l48 75q10 -15 52 -15q45 0 50 25q3 20 -19 31.5t-45 12.5l-24 1l20 111q-36 6 -70.5 20.5t-57.5 30t-40.5 30t-25.5 23.5l-9 10l137 150q11 -10 28.5 -24t61.5 -37.5t75 -23.5q37 0 58 13t24 27q3 18 -18 32t-54.5 23.5t-71 27t-68.5 40.5t-46.5 66t-5.5 101
q16 90 107 157.5t232 67.5q39 0 77.5 -10.5t65.5 -25t48 -29t31 -25.5l11 -10l-128 -155q-8 8 -21 19.5t-49 31t-67 19.5q-28 0 -46.5 -12t-20.5 -28q-3 -17 18 -31.5t55 -24.5t72 -28t70 -40t48 -62.5t7 -93.5q-15 -87 -100 -154.5t-218 -78.5l-4 -27q6 -1 15 -3t31 -11.5
t38.5 -22.5t27 -37.5t5.5 -55.5q-9 -46 -59 -80.5t-122 -34.5q-30 0 -61 9t-46 17z" />
    <glyph glyph-name="scedilla" unicode="&#x15f;" horiz-adv-x="495" 
d="M30 -245l49 75q10 -15 52 -15q46 0 49 25q4 20 -18 31t-46 13l-23 1l18 102q-44 8 -82 26.5t-53 32.5l-16 14l91 120q61 -50 111 -50q60 0 65 25q2 10 -13.5 17.5t-39.5 13t-51 17.5t-49.5 28t-33.5 48t-3 76q11 63 82 114t182 51q53 0 105 -17.5t78 -34.5l25 -18
l-91 -120q-53 40 -103 40t-55 -25q-2 -12 20.5 -21t55.5 -19t65 -25.5t50 -49t10 -80.5q-11 -60 -76.5 -109.5t-164.5 -58.5l-3 -17q6 -1 15 -3t31.5 -11.5t38.5 -22.5t27 -37.5t5 -55.5q-8 -46 -58 -80.5t-122 -34.5q-30 0 -61 9t-47 17z" />
    <glyph glyph-name="Scaron" unicode="&#x160;" horiz-adv-x="610" 
d="M649 620l-128 -155q-8 8 -21 19.5t-49 31t-67 19.5q-28 0 -46.5 -12t-20.5 -28q-3 -17 18 -31.5t55 -24.5t72 -28t70 -40t48 -62.5t7 -93.5q-16 -95 -114.5 -165t-250.5 -70q-46 0 -90.5 12.5t-75 30t-54 35t-34.5 30.5l-11 12l137 150q11 -10 28.5 -24t61.5 -37.5
t75 -23.5q37 0 58 13t24 27q3 18 -18 32t-54.5 23.5t-71 27t-68.5 40.5t-46.5 66t-5.5 101q16 90 107 157.5t232 67.5q39 0 77.5 -10.5t65.5 -25t48 -29t31 -25.5zM217 967l158 45l54 -90h10l65 85l167 -15l-187 -210h-150z" />
    <glyph glyph-name="scaron" unicode="&#x161;" horiz-adv-x="495" 
d="M509 450l-91 -120q-53 40 -103 40t-55 -25q-2 -12 20.5 -21t55.5 -19t65 -25.5t50 -49t10 -80.5q-12 -66 -87 -118t-188 -52q-42 0 -80.5 8t-64 20t-45 24t-28.5 20l-8 8l91 120q61 -50 111 -50q60 0 65 25q2 10 -13.5 17.5t-39.5 13t-51 17.5t-49.5 28t-33.5 48t-3 76
q11 63 82 114t182 51q53 0 105 -17.5t78 -34.5zM113 765l158 45l54 -90h10l65 85l167 -15l-187 -210h-150z" />
    <glyph glyph-name="Tcommaaccent" unicode="&#x162;" horiz-adv-x="645" 
d="M690 710l-14 -190l-212 -10l-71 -520l-228 10l89 510l-206 -10l35 200zM256 -70q46 0 70 -32.5t14 -87.5q-11 -64 -57.5 -110t-114.5 -70l-28 70q32 9 52 34q17 23 -6 26q-27 4 -42 25.5t-9 54.5q6 35 41.5 62.5t79.5 27.5z" />
    <glyph glyph-name="tcommaaccent" unicode="&#x163;" horiz-adv-x="420" 
d="M390 345l-101 -5l-24 -140q-4 -22 5.5 -36t25.5 -14q13 0 26 2.5t20 5.5l6 2l25 -140q-67 -40 -167 -40q-84 0 -123 52t-22 148l28 155l-71 -5l38 160h60l19 110l207 39l-26 -149h120zM179 -60q46 0 70 -32.5t14 -87.5q-11 -64 -57.5 -110t-114.5 -70l-28 70q32 9 52 34
q17 23 -6 26q-27 4 -42 25.5t-9 54.5q6 35 41.5 62.5t79.5 27.5z" />
    <glyph glyph-name="Tcaron" unicode="&#x164;" horiz-adv-x="645" 
d="M690 710l-14 -190l-212 -10l-71 -520l-228 10l89 510l-206 -10l35 200zM204 966l158 45l54 -90h10l65 85l167 -15l-187 -210h-150z" />
    <glyph glyph-name="tcaron" unicode="&#x165;" 
d="M583 700q46 0 70 -32.5t14 -87.5q-11 -64 -57.5 -110t-114.5 -70l-28 70q32 9 52 34q17 23 -6 26q-27 4 -42 25.5t-9 54.5q6 35 41.5 62.5t79.5 27.5zM390 345l-101 -5l-24 -140q-4 -22 5.5 -36t25.5 -14q13 0 26 2.5t20 5.5l6 2l25 -140q-67 -40 -167 -40q-84 0 -123 52
t-22 148l28 155l-71 -5l38 160h60l19 110l207 39l-26 -149h120z" />
    <glyph glyph-name="Umacron" unicode="&#x16a;" horiz-adv-x="736" 
d="M509 680l224 20q-12 -185 -39 -365q-28 -175 -130.5 -265t-242.5 -90q-56 0 -107.5 17.5t-92 50.5t-59.5 88.5t-7 123.5l78 440h220l-71 -400q-10 -57 8 -96t64 -39q106 0 123 157q19 168 32 358zM661 955l-28 -160l-351 -5l18 160z" />
    <glyph glyph-name="umacron" unicode="&#x16b;" horiz-adv-x="635" 
d="M44 250l44 250q13 0 33.5 0.5t64.5 1.5t73 1h29l-44 -253q-6 -34 2.5 -59.5t32.5 -25.5q13 0 31.5 5t29.5 10l12 5l51 315l206 10l-74 -510l-177 -10l-8 40h-10q-67 -40 -132 -40q-106 0 -147.5 59.5t-16.5 200.5zM574 765l-28 -160l-351 -5l18 160z" />
    <glyph glyph-name="Uring" unicode="&#x16e;" horiz-adv-x="736" 
d="M509 680l224 20q-12 -185 -39 -365q-28 -175 -130.5 -265t-242.5 -90q-56 0 -107.5 17.5t-92 50.5t-59.5 88.5t-7 123.5l78 440h220l-71 -400q-10 -57 8 -96t64 -39q106 0 123 157q19 168 32 358zM457 759q-72 0 -109.5 38t-25.5 102q12 65 62.5 107.5t123.5 42.5
q71 0 108.5 -44.5t25.5 -105.5q-10 -58 -61.5 -99t-123.5 -41zM490 944q-17 0 -31 -13.5t-17 -31.5q-4 -20 5.5 -32.5t26.5 -12.5t30.5 12.5t17.5 32.5q3 20 -6.5 32.5t-25.5 12.5z" />
    <glyph glyph-name="uring" unicode="&#x16f;" horiz-adv-x="635" 
d="M44 250l44 250q13 0 33.5 0.5t64.5 1.5t73 1h29l-44 -253q-6 -34 2.5 -59.5t32.5 -25.5q13 0 31.5 5t29.5 10l12 5l51 315l206 10l-74 -510l-177 -10l-8 40h-10q-67 -40 -132 -40q-106 0 -147.5 59.5t-16.5 200.5zM359 562q-72 0 -109.5 38t-25.5 102q12 65 62.5 107.5
t123.5 42.5q71 0 108.5 -44.5t25.5 -105.5q-10 -58 -61.5 -99t-123.5 -41zM392 747q-17 0 -31 -13.5t-17 -31.5q-4 -20 5.5 -32.5t26.5 -12.5t30.5 12.5t17.5 32.5q3 20 -6.5 32.5t-25.5 12.5z" />
    <glyph glyph-name="Uhungarumlaut" unicode="&#x170;" horiz-adv-x="736" 
d="M509 680l224 20q-12 -185 -39 -365q-28 -175 -130.5 -265t-242.5 -90q-56 0 -107.5 17.5t-92 50.5t-59.5 88.5t-7 123.5l78 440h220l-71 -400q-10 -57 8 -96t64 -39q106 0 123 157q19 168 32 358zM402 790h-130l111 180l192 10zM622 790h-130l111 180l192 10z" />
    <glyph glyph-name="uhungarumlaut" unicode="&#x171;" horiz-adv-x="641" 
d="M44 250l44 250q13 0 33.5 0.5t64.5 1.5t73 1h29l-44 -253q-6 -34 2.5 -59.5t32.5 -25.5q13 0 31.5 5t29.5 10l12 5l51 315l206 10l-74 -510l-177 -10l-8 40h-10q-67 -40 -132 -40q-106 0 -147.5 59.5t-16.5 200.5zM315 590h-130l111 180l192 10zM535 590h-130l111 180
l192 10z" />
    <glyph glyph-name="Uogonek" unicode="&#x172;" horiz-adv-x="736" 
d="M509 680l224 20q-12 -185 -39 -365q-22 -140 -93 -225.5t-172 -114.5q-26 -12 -55.5 -28.5t-64 -46.5t-38.5 -55q-3 -13 6.5 -24t32.5 -11q19 0 38 4t29 8l10 3l22 -75q-70 -45 -138 -45q-74 0 -115.5 36t-32.5 89q15 88 138 135q-103 17 -164.5 88.5t-41.5 186.5l78 440
h220l-71 -400q-10 -57 8 -96t64 -39q106 0 123 157q19 168 32 358z" />
    <glyph glyph-name="uogonek" unicode="&#x173;" horiz-adv-x="645" 
d="M482 -155l22 -75q-70 -45 -138 -45q-74 0 -115.5 36t-32.5 89q10 55 56 89.5t98 51.5l-14 -1l-8 40h-10q-67 -40 -132 -40q-106 0 -147.5 59.5t-16.5 200.5l44 250q13 0 33.5 0.5t64.5 1.5t73 1h29l-44 -253q-6 -34 2.5 -59.5t32.5 -25.5q13 0 31.5 5t29.5 10l12 5
l51 315l206 10l-74 -510q-6 -3 -17 -8t-39 -20.5t-49.5 -31t-41 -36.5t-22.5 -39q-3 -13 6.5 -24t32.5 -11q19 0 38 4t29 8z" />
    <glyph glyph-name="Ydieresis" unicode="&#x178;" horiz-adv-x="655" 
d="M555 740l183 -95l-305 -400l-43 -245h-220l43 245l-150 455h250l54 -230h10zM344 981q42 0 66 -27t17 -68q-7 -38 -37 -66.5t-79 -28.5q-44 0 -67.5 26t-17.5 64q7 39 38.5 69.5t79.5 30.5zM584 981q42 0 66 -27t17 -68q-7 -38 -37 -66.5t-79 -28.5q-44 0 -67.5 26
t-17.5 64q7 39 38.5 69.5t79.5 30.5z" />
    <glyph glyph-name="Zacute" unicode="&#x179;" horiz-adv-x="620" 
d="M568 190l-18 -190h-570l18 160l320 340l1 10h-255l34 190h565l-28 -160l-330 -340l-2 -10h265zM459 790l-152 -10l113 180l241 10z" />
    <glyph glyph-name="zacute" unicode="&#x17a;" horiz-adv-x="515" 
d="M473 160l-20 -170l-489 5l33 160l221 175l1 10l-191 -10l20 170l471 10l-28 -160l-217 -185l-2 -10zM369 600l-152 -10l113 180l241 10z" />
    <glyph glyph-name="Zdotaccent" unicode="&#x17b;" horiz-adv-x="620" 
d="M568 190l-18 -190h-570l18 160l320 340l1 10h-255l34 190h565l-28 -160l-330 -340l-2 -10h265zM432 971q42 0 66 -27t17 -68q-7 -38 -37 -66.5t-79 -28.5q-44 0 -67.5 26t-17.5 64q7 39 38.5 69.5t79.5 30.5z" />
    <glyph glyph-name="zdotaccent" unicode="&#x17c;" horiz-adv-x="515" 
d="M473 160l-20 -170l-489 5l33 160l221 175l1 10l-191 -10l20 170l471 10l-28 -160l-217 -185l-2 -10zM325 759q42 0 66 -27t17 -68q-7 -38 -37 -66.5t-79 -28.5q-44 0 -67.5 26t-17.5 64q7 39 38.5 69.5t79.5 30.5z" />
    <glyph glyph-name="Zcaron" unicode="&#x17d;" horiz-adv-x="620" 
d="M568 190l-18 -190h-570l18 160l320 340l1 10h-255l34 190h565l-28 -160l-330 -340l-2 -10h265zM206 968l158 45l54 -90h10l65 85l167 -15l-187 -210h-150z" />
    <glyph glyph-name="zcaron" unicode="&#x17e;" horiz-adv-x="515" 
d="M473 160l-20 -170l-489 5l33 160l221 175l1 10l-191 -10l20 170l471 10l-28 -160l-217 -185l-2 -10zM111 764l158 45l54 -90h10l65 85l167 -15l-187 -210h-150z" />
    <glyph glyph-name="florin" unicode="&#x192;" horiz-adv-x="430" 
d="M48 20l60 310h-65l18 160h75l5 30q19 106 83 163t142 57q42 0 81.5 -9t58.5 -17l18 -9l-70 -140q-22 15 -57 15q-41 0 -51 -60l-5 -30h120l-38 -160h-115l-60 -310q-20 -107 -81.5 -163.5t-138.5 -56.5q-41 0 -80.5 9t-57.5 17l-19 9l70 140q21 -15 56 -15q39 0 51 60z
" />
    <glyph glyph-name="Scommaaccent" unicode="&#x218;" horiz-adv-x="610" 
d="M249 -60q46 0 70 -32.5t14 -87.5q-11 -64 -57.5 -110t-114.5 -70l-28 70q32 9 52 34q17 23 -6 26q-27 4 -42 25.5t-9 54.5q6 35 41.5 62.5t79.5 27.5zM649 620l-128 -155q-8 8 -21 19.5t-49 31t-67 19.5q-28 0 -46.5 -12t-20.5 -28q-3 -17 18 -31.5t55 -24.5t72 -28
t70 -40t48 -62.5t7 -93.5q-16 -95 -114.5 -165t-250.5 -70q-46 0 -90.5 12.5t-75 30t-54 35t-34.5 30.5l-11 12l137 150q11 -10 28.5 -24t61.5 -37.5t75 -23.5q37 0 58 13t24 27q3 18 -18 32t-54.5 23.5t-71 27t-68.5 40.5t-46.5 66t-5.5 101q16 90 107 157.5t232 67.5
q39 0 77.5 -10.5t65.5 -25t48 -29t31 -25.5z" />
    <glyph glyph-name="scommaaccent" unicode="&#x219;" horiz-adv-x="495" 
d="M509 450l-91 -120q-53 40 -103 40t-55 -25q-2 -12 20.5 -21t55.5 -19t65 -25.5t50 -49t10 -80.5q-12 -66 -87 -118t-188 -52q-42 0 -80.5 8t-64 20t-45 24t-28.5 20l-8 8l91 120q61 -50 111 -50q60 0 65 25q2 10 -13.5 17.5t-39.5 13t-51 17.5t-49.5 28t-33.5 48t-3 76
q11 63 82 114t182 51q53 0 105 -17.5t78 -34.5zM181 -60q46 0 70 -32.5t14 -87.5q-11 -64 -57.5 -110t-114.5 -70l-28 70q32 9 52 34q17 23 -6 26q-27 4 -42 25.5t-9 54.5q6 35 41.5 62.5t79.5 27.5z" />
    <glyph glyph-name="afii57929" unicode="&#x2bc;" horiz-adv-x="290" 
d="M220 710q46 0 70 -32.5t14 -87.5q-11 -64 -57.5 -110t-114.5 -70l-28 70q32 9 52 34q17 23 -6 26q-27 4 -42 25.5t-9 54.5q6 35 41.5 62.5t79.5 27.5z" />
    <glyph glyph-name="circumflex" unicode="&#x2c6;" horiz-adv-x="510" 
d="M536 605l-158 -45l-54 90h-10l-65 -85l-167 15l187 210h150z" />
    <glyph glyph-name="caron" unicode="&#x2c7;" horiz-adv-x="510" 
d="M113 755l158 45l54 -90h10l65 85l167 -15l-187 -210h-150z" />
    <glyph glyph-name="breve" unicode="&#x2d8;" horiz-adv-x="510" 
d="M117 725l125 85q4 -7 11.5 -17t32 -26.5t51.5 -16.5q31 0 60 15t42 30l13 15l95 -85q-4 -5 -10.5 -14t-30 -31.5t-49 -39.5t-66 -31t-82.5 -14q-45 0 -81 13.5t-56 32.5t-33 38t-17 33z" />
    <glyph glyph-name="dotaccent" unicode="&#x2d9;" horiz-adv-x="280" 
d="M227 780q42 0 66 -27t17 -68q-7 -38 -37 -66.5t-79 -28.5q-44 0 -67.5 26t-17.5 64q7 39 38.5 69.5t79.5 30.5z" />
    <glyph glyph-name="ring" unicode="&#x2da;" horiz-adv-x="401" 
d="M250 570q-72 0 -109.5 38t-25.5 102q12 65 62.5 107.5t123.5 42.5q71 0 108.5 -44.5t25.5 -105.5q-10 -58 -61.5 -99t-123.5 -41zM283 755q-17 0 -31 -13.5t-17 -31.5q-4 -20 5.5 -32.5t26.5 -12.5t30.5 12.5t17.5 32.5q3 20 -6.5 32.5t-25.5 12.5z" />
    <glyph glyph-name="ogonek" unicode="&#x2db;" horiz-adv-x="380" 
d="M227 -155l22 -75q-70 -45 -138 -45q-74 0 -115.5 36t-32.5 89q6 32 27 59.5t47.5 43.5t52 27t42.5 16l18 4h129q-13 -5 -45.5 -22t-75 -50.5t-47.5 -62.5q-3 -13 6.5 -24t32.5 -11q19 0 38 4t29 8z" />
    <glyph glyph-name="tilde" unicode="&#x2dc;" horiz-adv-x="465" 
d="M436 775l65 -115q-7 -9 -19 -22.5t-49.5 -35.5t-75.5 -22q-32 0 -66.5 20t-52.5 20q-15 0 -32 -11t-26 -23l-9 -11l-74 90q3 4 8 11t21.5 25.5t34 32t43.5 25t51 11.5q37 0 69.5 -20t43.5 -20q16 0 33 11t26 23z" />
    <glyph glyph-name="hungarumlaut" unicode="&#x2dd;" horiz-adv-x="570" 
d="M224 590h-130l111 180l192 10zM444 590h-130l111 180l192 10z" />
    <glyph glyph-name="afii10023" unicode="&#x401;" 
d="M554 170l-39 -170h-505l133 700h495l-47 -180h-270l-14 -80h240l-21 -175h-250l-15 -85zM312 980q42 0 68.5 -29.5t19.5 -70.5q-7 -39 -39 -69.5t-84 -30.5q-47 0 -71 28.5t-17 67.5q8 42 39.5 73t83.5 31zM572 980q42 0 68.5 -29.5t19.5 -70.5q-7 -39 -39 -69.5
t-84 -30.5q-47 0 -71 28.5t-17 67.5q8 42 39.5 73t83.5 31z" />
    <glyph glyph-name="afii10051" unicode="&#x402;" horiz-adv-x="745" 
d="M721 150q-10 -56 -41 -106.5t-68 -82.5t-73 -56t-60 -35l-24 -10l-77 130q4 2 11 7t25 20t32.5 31.5t28.5 41.5t19 50q13 71 -7.5 100.5t-69.5 29.5q-18 0 -35 -5t-25 -10l-8 -5l-56 -260l-223 10l118 530l-143 10l50 170l538 -10l-37 -180l-188 10l-23 -100q44 20 94 20
q138 0 203 -77t39 -223z" />
    <glyph glyph-name="afii10052" unicode="&#x403;" horiz-adv-x="544" 
d="M135 710h484l-53 -190h-250l-88 -529l-218 9zM470 791l-152 -10l113 180l241 10z" />
    <glyph glyph-name="afii10053" unicode="&#x404;" horiz-adv-x="645" 
d="M287 440h201l-35 -165l-197 -10q-1 -4 -1 -11t4 -24t14 -30t35 -24t61 -11q44 0 87 17.5t64 35.5l21 17l89 -145q-5 -4 -13.5 -11.5t-37.5 -26.5t-60 -33.5t-78 -26.5t-95 -12q-369 0 -303 380q31 172 145 266t288 94q42 0 81.5 -10.5t65.5 -25t46.5 -29t30.5 -25.5
l9 -10l-134 -135q-7 6 -19 15t-46 24.5t-65 15.5t-58.5 -10.5t-45 -25t-30.5 -29t-19 -25.5z" />
    <glyph glyph-name="afii10054" unicode="&#x405;" horiz-adv-x="610" 
d="M649 620l-128 -155q-8 8 -21 19.5t-49 31t-67 19.5q-28 0 -46.5 -12t-20.5 -28q-3 -17 18 -31.5t55 -24.5t72 -28t70 -40t48 -62.5t7 -93.5q-16 -95 -114.5 -165t-250.5 -70q-46 0 -90.5 12.5t-75 30t-54 35t-34.5 30.5l-11 12l137 150q11 -10 28.5 -24t61.5 -37.5
t75 -23.5q37 0 58 13t24 27q3 18 -18 32t-54.5 23.5t-71 27t-68.5 40.5t-46.5 66t-5.5 101q16 90 107 157.5t232 67.5q39 0 77.5 -10.5t65.5 -25t48 -29t31 -25.5z" />
    <glyph glyph-name="afii10055" unicode="&#x406;" horiz-adv-x="485" 
d="M-15 0l19 170h110l65 365l-114 5l30 170l438 -10l-33 -160l-113 -15l-53 -355h110l-29 -170h-430z" />
    <glyph glyph-name="afii10056" unicode="&#x407;" horiz-adv-x="497" 
d="M-3 0l19 170h110l65 365l-114 5l30 170l438 -10l-33 -160l-113 -15l-53 -355h110l-29 -170h-430zM238 961q42 0 66 -27t17 -68q-7 -38 -37 -66.5t-79 -28.5q-44 0 -67.5 26t-17.5 64q7 39 38.5 69.5t79.5 30.5zM478 961q42 0 66 -27t17 -68q-7 -38 -37 -66.5t-79 -28.5
q-44 0 -67.5 26t-17.5 64q7 39 38.5 69.5t79.5 30.5z" />
    <glyph glyph-name="afii10057" unicode="&#x408;" horiz-adv-x="510" 
d="M-60 55l128 165q51 -50 91 -50q27 0 49 23t29 77l54 420l244 20l-78 -440q-9 -49 -21.5 -88t-37 -78.5t-59 -65t-89 -42t-123.5 -16.5q-49 0 -96 19t-69 37z" />
    <glyph glyph-name="afii10058" unicode="&#x409;" horiz-adv-x="1055" 
d="M754 705l-36 -205h25q173 0 243.5 -72t48.5 -198q-14 -81 -77 -139.5t-143 -84.5t-164 -26q-165 0 -238 10l82 525l-86 -5q-18 -102 -48.5 -187t-64 -139t-72 -96t-70 -63.5t-61 -34.5t-43 -16.5t-16.5 -3.5l-82 160q122 72 165.5 172t95.5 398zM686 320l-28 -160h25
q53 0 90 21.5t44 58.5q7 41 -14 60.5t-92 19.5h-25z" />
    <glyph glyph-name="afii10059" unicode="&#x40a;" horiz-adv-x="1090" 
d="M551 690l229 20l-41 -230h35q172 0 243.5 -70.5t50.5 -189.5q-20 -113 -126 -176.5t-236 -63.5q-215 0 -268 10l47 295l-181 -5l-44 -280h-230l103 700h230l-31 -230l184 5zM707 300l-24 -140h35q52 0 89.5 20t42.5 50q6 34 -16 52t-92 18h-35z" />
    <glyph glyph-name="afii10060" unicode="&#x40b;" horiz-adv-x="770" 
d="M45 540l50 170l533 -10l-32 -180l-188 10l-23 -100q49 20 94 20q137 0 200 -83.5t42 -246.5q-1 -6 -7 -67t-6 -63h-240l23 130q12 73 -8 111.5t-66 38.5q-19 0 -36 -5t-25 -10l-7 -5l-56 -260l-223 10l118 530z" />
    <glyph glyph-name="afii10061" unicode="&#x40c;" horiz-adv-x="740" 
d="M576 -20q-65 0 -107.5 20t-60 50.5t-29.5 67t-17 68t-21 55.5t-44 28l-48 -274l-224 5l110 710l241 -20l-44 -220q24 5 46.5 34t44.5 66t50 73.5t73 61.5t102 25q22 0 44 -5.5t37 -12.5t27 -14.5t18 -12.5l5 -5l-66 -150h-40q-22 0 -43 -19.5t-37.5 -44t-46 -50.5
t-64.5 -36l-2 -10q37 -11 61 -36t35 -52t19 -53t21 -42.5t33 -16.5l41 5l14 -150q-5 -5 -15.5 -12.5t-43.5 -20t-69 -12.5zM509 791l-152 -10l113 180l241 10z" />
    <glyph glyph-name="afii10062" unicode="&#x40e;" horiz-adv-x="680" 
d="M260 911l125 85q4 -7 11.5 -17t32 -26.5t51.5 -16.5q31 0 60 15t42 30l13 15l95 -85q-4 -5 -10.5 -14t-30 -31.5t-49 -39.5t-66 -31t-82.5 -14q-45 0 -81 13.5t-56 32.5t-33 38t-18 33zM35 30l96 150q17 -20 47 -20q54 0 75 30l-195 480l238 50l98 -300h10l162 300
l196 -80l-296 -490q-105 -170 -290 -170q-44 0 -79.5 12.5t-48.5 25.5z" />
    <glyph glyph-name="afii10145" unicode="&#x40f;" horiz-adv-x="715" 
d="M205 0l-189 10l118 695h220l-89 -510l148 -5l91 515h220l-119 -705l-180 3l-22 -123l-217 -15z" />
    <glyph glyph-name="afii10017" unicode="&#x410;" horiz-adv-x="745" 
d="M328 700l263 20l135 -709l-240 -31l-28 180h-205l-83 -160h-240zM406 460l-82 -150h115l-23 150h-10z" />
    <glyph glyph-name="afii10018" unicode="&#x411;" horiz-adv-x="665" 
d="M641 205q-17 -98 -114.5 -156.5t-243.5 -58.5q-78 0 -143.5 2.5t-92.5 5.5l-27 2l113 700l527 10l-26 -175l-80 -3l-162 -4l-80 -3l-13 -75q114 0 188 -16.5t109.5 -48t46 -77t-1.5 -103.5zM270 285l-22 -125h65q58 0 84 14.5t31 45.5q5 30 -19.5 47.5t-73.5 17.5h-65z
" />
    <glyph glyph-name="afii10019" unicode="&#x412;" horiz-adv-x="675" 
d="M664 510q-7 -40 -37.5 -71t-57.5 -43l-27 -11l-1 -10l5 -1q4 -2 12.5 -5t18.5 -8t21 -12.5t21.5 -17.5t20 -23t15 -29.5t7.5 -36t-2 -42.5q-13 -72 -68 -120.5t-132.5 -69t-176.5 -20.5q-58 0 -126 2.5t-107 5.5l-40 2l123 700q154 10 277 10q42 0 80 -5.5t74 -20
t60.5 -36.5t36 -57.5t3.5 -80.5zM265 285l-22 -121h70q62 0 93.5 14t37.5 47t-20.5 46.5t-88.5 13.5h-70zM311 545l-18 -100h70q43 0 63.5 10.5t25.5 39.5t-11.5 39.5t-59.5 10.5h-70z" />
    <glyph glyph-name="afii10020" unicode="&#x413;" horiz-adv-x="554" 
d="M135 710h484l-53 -190h-250l-88 -529l-218 9z" />
    <glyph glyph-name="afii10021" unicode="&#x414;" horiz-adv-x="800" 
d="M728 -120l-217 -15l9 135h-370l-39 -135l-200 25l66 295h85l4 5q3 5 9.5 14.5t14.5 22.5t18 30t20 36t20 42.5t19 47.5t16.5 52t12.5 55l37 210h536l-82 -515h85zM519 510h-100l-3 -20q-13 -76 -45 -149.5t-57 -109.5l-25 -36l-2 -10h175z" />
    <glyph glyph-name="afii10022" unicode="&#x415;" 
d="M554 170l-39 -170h-505l133 700h495l-47 -180h-270l-14 -80h240l-21 -175h-250l-15 -85z" />
    <glyph glyph-name="afii10024" unicode="&#x416;" horiz-adv-x="1130" 
d="M68 -10q-36 0 -66 14t-42 28l-12 13l66 150q28 -15 47 -15q23 0 44 23t38 53t54.5 63.5t87.5 50.5l2 10q-32 10 -54 36t-30.5 50.5t-21 44t-28.5 19.5l-41 -5l-14 145l4 3q3 3 11 8.5t18 11.5t24 13t28 12t31.5 8.5t33.5 3.5q58 0 94.5 -22t51.5 -56t24 -69.5t22.5 -67.5
t36.5 -45l38 240l241 -20l-44 -220q28 11 52 42t43 67t44.5 70.5t70.5 57.5t106 23q22 0 44 -6t37 -14t26.5 -16t17.5 -14l6 -5l-67 -150q-29 5 -39 5q-20 0 -40 -19.5t-36 -44t-45.5 -50.5t-64.5 -36l-2 -10q47 -17 74.5 -52t34.5 -67t19.5 -56.5t35.5 -24.5q8 0 21.5 4
t22.5 8l9 3l14 -150q-7 -6 -19 -15t-48.5 -24.5t-72.5 -15.5q-59 0 -99.5 14.5t-59.5 38t-29.5 52t-15.5 58.5t-11 56t-21.5 45t-42.5 25l-48 -274l-226 -5l43 279q-31 -7 -55 -31t-38.5 -54.5t-37.5 -65t-50 -63t-78 -47t-119 -18.5z" />
    <glyph glyph-name="afii10025" unicode="&#x417;" horiz-adv-x="595" 
d="M149 505l-46 140q14 8 39 20.5t91.5 33.5t122.5 21q130 0 197 -47.5t53 -127.5q-6 -34 -22 -62t-34.5 -44.5t-36 -28t-29.5 -16.5l-11 -4l-1 -10q5 -1 13 -4.5t28 -17.5t34 -32t22 -51.5t1 -74.5q-16 -88 -111.5 -154t-237.5 -66q-48 0 -93 13.5t-76 32.5t-55 38t-35 32
l-12 14l137 130q3 -3 7.5 -8t20.5 -18t33 -23t43 -18t53 -8q90 0 100 60t-59 60h-126l28 160q171 0 182 60q3 20 -13.5 30t-44.5 10q-36 0 -76.5 -10t-62.5 -20z" />
    <glyph glyph-name="afii10026" unicode="&#x418;" horiz-adv-x="750" 
d="M751 660l-111 -660h-215l56 320h-10l-246 -320l-204 -20l110 710l217 10l-48 -330h10l260 340z" />
    <glyph glyph-name="afii10027" unicode="&#x419;" horiz-adv-x="750" 
d="M251 890l125 85q4 -7 11.5 -17t32 -26.5t51.5 -16.5q31 0 60 15t42 30l13 15l95 -85q-4 -5 -10.5 -14t-29.5 -31.5t-48.5 -39.5t-66 -31t-82.5 -14q-45 0 -81.5 13.5t-56 32.5t-33 38t-17.5 32zM751 660l-111 -660h-215l56 320h-10l-246 -320l-204 -20l110 710l217 10
l-48 -330h10l260 340z" />
    <glyph glyph-name="afii10028" unicode="&#x41a;" horiz-adv-x="740" 
d="M576 -20q-65 0 -107.5 20t-60 50.5t-29.5 67t-17 68t-21 55.5t-44 28l-48 -274l-224 5l110 710l241 -20l-44 -220q24 5 46.5 34t44.5 66t50 73.5t73 61.5t102 25q22 0 44 -5.5t37 -12.5t27 -14.5t18 -12.5l5 -5l-66 -150h-40q-22 0 -43 -19.5t-37.5 -44t-46 -50.5
t-64.5 -36l-2 -10q37 -11 61 -36t35 -52t19 -53t21 -42.5t33 -16.5l41 5l14 -150q-5 -5 -15.5 -12.5t-43.5 -20t-69 -12.5z" />
    <glyph glyph-name="afii10029" unicode="&#x41b;" horiz-adv-x="760" 
d="M771 705l-121 -705h-230l90 515l-101 -5q-18 -102 -48.5 -187t-64 -139t-72 -96t-70 -63.5t-61 -34.5t-43 -16.5t-16.5 -3.5l-82 160q122 72 165.5 172t95.5 398z" />
    <glyph glyph-name="afii10030" unicode="&#x41c;" horiz-adv-x="980" 
d="M940 0l-240 5l8 325h-10l-146 -260l-202 -10l-62 270h-10l-121 -345l-210 50l274 680l207 -15l70 -340h10l203 330h200z" />
    <glyph glyph-name="afii10031" unicode="&#x41d;" horiz-adv-x="790" 
d="M573 700h230l-138 -700l-222 -10l48 275l-191 -5l-40 -260h-230l103 700h230l-34 -250l201 5z" />
    <glyph glyph-name="afii10032" unicode="&#x41e;" horiz-adv-x="740" 
d="M43 360q30 169 133.5 264.5t269.5 95.5q59 0 107.5 -15.5t79.5 -43t53.5 -64t30.5 -79t10 -88t-8 -90.5q-12 -71 -41 -132.5t-76 -114t-120.5 -83t-165.5 -30.5q-152 0 -227.5 106.5t-45.5 273.5zM415 540q-37 0 -64.5 -15t-43.5 -44t-24 -56t-15 -65q-36 -200 80 -200
q30 0 54 11t38.5 27.5t26 42t17 47.5t10.5 52q6 45 7.5 89.5t-20.5 77.5t-66 33z" />
    <glyph glyph-name="afii10033" unicode="&#x41f;" horiz-adv-x="715" 
d="M134 705l588 -10l-117 -695h-220l88 510l-148 5l-90 -515h-220z" />
    <glyph glyph-name="afii10034" unicode="&#x420;" horiz-adv-x="690" 
d="M221 -20l-211 20l133 700q64 3 107.5 5t54 3t25 1.5t25.5 0.5h50q62 0 118.5 -15.5t100.5 -45t66 -79t11 -110.5q-23 -126 -119 -198t-269 -72h-55zM318 530l-28 -160h55q70 0 98.5 19.5t35.5 60.5q7 37 -23 58.5t-83 21.5h-55z" />
    <glyph glyph-name="afii10035" unicode="&#x421;" horiz-adv-x="640" 
d="M43 360q63 360 408 360q131 0 241 -110l-139 -134q-7 7 -18 16.5t-44 26t-62 16.5q-40 0 -68.5 -15t-46 -45t-27 -60t-18.5 -75q-6 -24 -3.5 -54.5t9.5 -57.5t30.5 -45t58.5 -18q40 0 82 17.5t64 35.5l21 17l94 -145q-5 -4 -14.5 -11.5t-39 -26.5t-60 -33.5t-75 -26.5
t-86.5 -12q-373 0 -307 380z" />
    <glyph glyph-name="afii10036" unicode="&#x422;" horiz-adv-x="645" 
d="M690 710l-14 -190l-212 -10l-71 -520l-228 10l89 510l-206 -10l35 200z" />
    <glyph glyph-name="afii10037" unicode="&#x423;" horiz-adv-x="680" 
d="M25 30l96 150q17 -20 47 -20q54 0 75 30l-195 480l238 50l98 -300h10l162 300l196 -80l-296 -490q-105 -170 -290 -170q-44 0 -79.5 12.5t-48.5 25.5z" />
    <glyph glyph-name="afii10038" unicode="&#x424;" horiz-adv-x="980" 
d="M753 360q5 31 -5 54.5t-28.5 35.5t-38 19.5t-33.5 8.5l-14 2l-46 -260q6 0 15.5 1t35 8.5t46 20.5t41 42t27.5 68zM444 650l27 95l224 25l-31 -120q162 -8 252.5 -82t68.5 -198q-23 -128 -145.5 -220.5t-281.5 -99.5l-12 -70l-222 -10l14 80q-75 4 -138 24.5t-107.5 55
t-65 86.5t-9.5 114q21 120 146 214.5t280 105.5zM248 330q-6 -31 4.5 -53.5t29 -33t38 -16.5t34.5 -7h14l46 260q-6 0 -15.5 -1.5t-35.5 -11t-47 -24t-41 -44.5t-27 -69z" />
    <glyph glyph-name="afii10039" unicode="&#x425;" horiz-adv-x="670" 
d="M93 -35l-147 125l274 280l-157 330h255l66 -170h8l198 210l137 -130l-232 -240l155 -370h-265l-77 190h-10z" />
    <glyph glyph-name="afii10040" unicode="&#x426;" horiz-adv-x="770" 
d="M485 0h-455l103 700h235l-91 -515l151 5l110 510l223 -10l-113 -500h100l-50 -310l-233 -20z" />
    <glyph glyph-name="afii10041" unicode="&#x427;" horiz-adv-x="730" 
d="M368 -10l52 240q-48 -20 -93 -20q-137 0 -200 83.5t-42 246.5q13 130 18 160h240l-28 -160q-25 -140 75 -140q19 0 36.5 5t25.5 10l7 5l59 280l223 -10l-151 -690z" />
    <glyph glyph-name="afii10042" unicode="&#x428;" horiz-adv-x="1055" 
d="M945 0h-910l100 710l221 10l-73 -530h110l113 530l219 -10l-107 -520h140l90 510l218 -10z" />
    <glyph glyph-name="afii10043" unicode="&#x429;" horiz-adv-x="1120" 
d="M836 0h-801l100 710l221 10l-73 -530h110l113 530l219 -10l-107 -520h140l90 510l218 -10l-88 -500h100l-30 -310l-213 -20z" />
    <glyph glyph-name="afii10044" unicode="&#x42a;" horiz-adv-x="775" 
d="M38 560l48 160h380l-38 -220h45q170 0 237 -74t45 -196q-13 -76 -73.5 -134.5t-139.5 -87t-161 -28.5q-175 0 -258 10l90 560zM396 320l-28 -160h45q47 0 82 22t42 58q7 39 -15.5 59.5t-80.5 20.5h-45z" />
    <glyph glyph-name="afii10045" unicode="&#x42b;" horiz-adv-x="1020" 
d="M131 690l229 20l-37 -210h45q173 0 243.5 -72t48.5 -198q-14 -81 -77 -139.5t-143 -84.5t-164 -26q-185 0 -258 10zM685 0l106 690l222 10l-103 -700h-225zM291 320l-28 -160h45q53 0 90 21.5t44 58.5q7 41 -14.5 60.5t-91.5 19.5h-45z" />
    <glyph glyph-name="afii10046" unicode="&#x42c;" horiz-adv-x="680" 
d="M131 690l229 20l-37 -210h45q173 0 243.5 -72t48.5 -198q-14 -81 -77 -139.5t-143 -84.5t-164 -26q-205 0 -258 10zM291 320l-28 -160h45q53 0 90 21.5t44 58.5q7 41 -14.5 60.5t-91.5 19.5h-45z" />
    <glyph glyph-name="afii10047" unicode="&#x42d;" horiz-adv-x="655" 
d="M221 440h201q0 4 -1.5 11t-9.5 24t-20 30t-36 24t-55 11t-68.5 -14t-59.5 -28l-22 -13l-86 135q5 4 13.5 11t37 24t58 30t73 24t85.5 11q174 0 256 -94.5t51 -265.5q-66 -380 -437 -380q-48 0 -90.5 11.5t-70 27.5t-47.5 32t-29 27l-9 12l141 145q2 -3 6 -7.5t17.5 -16.5
t29 -21.5t41.5 -17t54 -7.5q36 0 64.5 10.5t43.5 25t24.5 29t11.5 24.5l3 11l-193 10z" />
    <glyph glyph-name="afii10048" unicode="&#x42e;" horiz-adv-x="1060" 
d="M135 710l233 -10l-51 -260h70q36 111 135 195.5t214 84.5q168 0 252.5 -96t56.5 -254q-31 -173 -137 -281.5t-272 -108.5q-154 0 -223 76t-63 204h-60l-50 -260h-220zM725 540q-38 0 -69.5 -32.5t-50 -78t-27.5 -99.5q-6 -44 -3 -82t28 -63t70 -25q104 0 140 200
q5 42 3.5 82t-25.5 69t-66 29z" />
    <glyph glyph-name="afii10049" unicode="&#x42f;" horiz-adv-x="725" 
d="M610 0h-220l40 200h-75q-37 -59 -86 -104t-93 -68t-82.5 -37t-61.5 -17l-23 -4l-14 175q53 10 96.5 44t68.5 71l2 10q-2 1 -5.5 3.5t-14.5 10.5t-19.5 18t-20 26.5t-16 35t-8.5 43.5t3 53q14 83 78.5 141.5t145 83.5t165.5 25q70 0 137.5 -3t98.5 -5l32 -2zM461 375
l27 155h-65q-43 0 -75 -19.5t-38 -55.5q-6 -34 21.5 -57t79.5 -23h50z" />
    <glyph glyph-name="afii10065" unicode="&#x430;" 
d="M289 510q24 0 48 -7.5t35 -14.5l12 -8h10l12 40l197 -20l-85 -510l-177 -10l-3 40h-10q-47 -40 -107 -40q-52 0 -93.5 17.5t-65 45.5t-40 62.5t-17.5 69t2 65.5q20 112 95.5 191t186.5 79zM266 150q20 0 40 7.5t30 14.5l10 8l20 140q-22 20 -67 20q-34 0 -56.5 -27.5
t-28.5 -62.5q-8 -44 4 -72t48 -28z" />
    <glyph glyph-name="afii10066" unicode="&#x431;" horiz-adv-x="580" 
d="M374 480q104 0 154 -73t30 -187q-18 -102 -102 -171t-210 -69q-130 0 -189.5 88.5t-30.5 251.5q15 87 54 155t88.5 111t119.5 75t134.5 49t147.5 30l12 -160q-142 -24 -216 -55t-121 -95h10q59 50 119 50zM274 140q28 0 53 23t32 62q8 45 -9.5 70t-43.5 25q-69 0 -87 -95
q-7 -39 10 -62t45 -23z" />
    <glyph glyph-name="afii10067" unicode="&#x432;" horiz-adv-x="560" 
d="M0 0l88 500q121 10 236 10q91 0 156.5 -40t52.5 -110q-5 -31 -30.5 -53.5t-48.5 -29.5l-22 -7l-2 -10q5 -1 13 -3.5t27.5 -13.5t34 -24t23.5 -37t4 -52q-13 -74 -90.5 -112t-210.5 -38q-56 0 -113.5 5t-87.5 10zM227 186l-12 -71q14 -5 49 -5q30 0 49.5 10t21.5 25
q4 23 -11.5 32t-56.5 9h-40zM261 375l-10 -55h40q35 0 40 30q3 12 -4 21t-25 9z" />
    <glyph glyph-name="afii10068" unicode="&#x433;" horiz-adv-x="495" 
d="M88 330l-49 120q13 8 34.5 19.5t83 31t114.5 19.5q111 0 164 -51t42 -114q-9 -52 -38.5 -87t-65.5 -51t-70.5 -25t-59 -17t-26.5 -20q-5 -25 55 -25q22 0 54.5 12.5t53.5 25.5l21 12l49 -120q-4 -3 -12 -8.5t-34 -19.5t-54 -24.5t-70 -19t-84 -8.5q-113 0 -170 52
t-45 118q8 47 38 80.5t67.5 49t73.5 25.5t62 19t28 21q2 11 -10 18t-35 7q-22 0 -51.5 -10t-47.5 -20z" />
    <glyph glyph-name="afii10069" unicode="&#x434;" horiz-adv-x="600" 
d="M301 350q-36 0 -58 -28t-29 -72q-6 -35 7 -62.5t47 -27.5q20 0 38 5t26 10l9 5l33 160q-28 10 -73 10zM313 20h-10q-50 -30 -105 -30q-111 0 -159 79t-29 191q8 43 27.5 83.5t57.5 83t105.5 68t155.5 25.5q67 0 128.5 -12.5t89.5 -25.5l28 -12l-75 -430
q-22 -123 -111 -189t-214 -66q-38 0 -72.5 5.5t-57 13.5t-39.5 16.5t-25 13.5l-7 6l87 150q63 -40 113 -40t78 19t34 51z" />
    <glyph glyph-name="afii10070" unicode="&#x435;" horiz-adv-x="555" 
d="M10 260q20 112 119 186t227 74q112 0 163 -47t39 -113q-16 -92 -91.5 -141t-172.5 -49q-18 0 -37.5 2.5t-30.5 5.5l-10 2l-2 -10q35 -30 85 -30q35 0 71 7.5t55 14.5l19 8l49 -130q-11 -7 -31.5 -17t-79 -26.5t-111.5 -16.5q-129 0 -206.5 72.5t-54.5 207.5zM236 299
q122 1 129 46q3 15 -6 25t-27 10q-67 0 -96 -81z" />
    <glyph glyph-name="afii10072" unicode="&#x436;" horiz-adv-x="880" 
d="M578 500l-27 -150q23 3 44 30t37.5 56.5t55 54t92.5 24.5q31 0 59 -6.5t40 -12.5l12 -6l-72 -155q-10 5 -25 5q-23 0 -52 -32.5t-55 -37.5l-2 -10q19 -7 33 -24t21 -33.5t19.5 -29.5t29.5 -13l31 10l25 -145q-67 -40 -127 -40q-50 0 -80.5 17t-42.5 43t-18.5 53t-19 50.5
t-35.5 31.5l-32 -184l-194 4l27 185q-25 -8 -46 -31.5t-37 -50.5t-37 -53t-57.5 -43t-86.5 -17q-27 0 -55 10t-43 20l-14 10l74 145q19 -10 29 -10q26 0 66 45t71 55l2 10q-20 4 -31.5 22t-22 33t-29.5 15l-26 -5l-17 155l14 6q14 6 44 12.5t61 6.5q45 0 72.5 -16t38 -39.5
t16.5 -47t16 -41.5t28 -21l22 155z" />
    <glyph glyph-name="afii10073" unicode="&#x437;" horiz-adv-x="490" 
d="M-50 60q91 119 91 120q61 -50 121 -50q24 0 43.5 8t22.5 22q2 15 -11.5 22.5t-43.5 7.5h-70l23 130q116 5 119 25q4 20 -46 20q-22 0 -51 -7.5t-46 -15.5l-18 -7q-2 9 -6 23t-11.5 43.5t-13 49t-6.5 19.5q109 50 219 50q101 0 161.5 -37.5t49.5 -102.5q-7 -36 -39 -61
t-60 -32l-29 -7l-2 -10q5 -1 13.5 -4t29 -13.5t35 -24.5t24 -39t4.5 -54q-12 -69 -89 -112t-178 -43q-45 0 -85.5 8t-67 20t-46 24t-28.5 20z" />
    <glyph glyph-name="afii10074" unicode="&#x438;" 
d="M29 250l44 250q13 0 33.5 0.5t64.5 1.5t73 1h29l-44 -253q-6 -34 2.5 -59.5t32.5 -25.5q13 0 31.5 5t30.5 10l11 5l51 315l206 10l-74 -510l-177 -10l-8 40h-10q-67 -40 -132 -40q-106 0 -147.5 59.5t-16.5 200.5z" />
    <glyph glyph-name="afii10075" unicode="&#x439;" 
d="M153 670l125 85q3 -6 9.5 -15t27.5 -24.5t43 -15.5q27 0 52 14t36 28l12 13l95 -85q-3 -4 -9.5 -11.5t-27.5 -26.5t-45 -33.5t-61.5 -26.5t-76.5 -12q-42 0 -76 11.5t-52.5 27.5t-31 32t-16.5 27zM29 250l44 250q13 0 33.5 0.5t64.5 1.5t73 1h29l-44 -253
q-6 -34 2.5 -59.5t32.5 -25.5q13 0 31.5 5t30.5 10l11 5l51 315l206 10l-74 -510l-177 -10l-8 40h-10q-67 -40 -132 -40q-106 0 -147.5 59.5t-16.5 200.5z" />
    <glyph glyph-name="afii10076" unicode="&#x43a;" horiz-adv-x="600" 
d="M437 -15q-50 0 -80.5 17t-42.5 43t-18.5 53t-19 50.5t-35.5 31.5l-32 -184l-199 4l79 510l209 -10l-27 -150q23 3 44 30t37.5 56.5t55 54t92.5 24.5q31 0 59 -6.5t40 -12.5l12 -6l-72 -155q-10 5 -25 5q-23 0 -52 -32.5t-55 -37.5l-2 -10q19 -7 33 -24t21 -33.5
t19.5 -29.5t29.5 -13l31 10l25 -145q-67 -40 -127 -40z" />
    <glyph glyph-name="afii10077" unicode="&#x43b;" horiz-adv-x="635" 
d="M330 0l54 335l-66 -5l-18 -70q-19 -78 -55 -138t-73 -89t-71.5 -47.5t-56.5 -21.5l-22 -4l-63 150q4 2 11.5 6t27 18t36 30t34.5 42t27 54l59 245l470 5l-89 -510h-205z" />
    <glyph glyph-name="afii10078" unicode="&#x43c;" horiz-adv-x="770" 
d="M729 -5l-209 5l-8 215h-10l-80 -170l-160 -5l-30 175h-10l-95 -230l-183 35l195 490l189 -10l51 -220h10l114 220h195z" />
    <glyph glyph-name="afii10079" unicode="&#x43d;" horiz-adv-x="630" 
d="M414 505l204 -5l-98 -495l-196 -10l31 180l-121 -5l-24 -170h-195l73 500l194 -5l-23 -160l125 5z" />
    <glyph glyph-name="afii10080" unicode="&#x43e;" horiz-adv-x="590" 
d="M10 260q22 120 110 190t216 70q86 0 144 -43.5t78.5 -106.5t8.5 -130q-19 -106 -105.5 -183t-220.5 -77q-114 0 -183 81t-48 199zM308 360q-32 0 -55 -20t-31 -39.5t-12 -40.5q-2 -22 -3.5 -49t14.5 -49t48 -22q41 0 66.5 31.5t31.5 68.5q9 51 -4 85.5t-55 34.5z" />
    <glyph glyph-name="afii10081" unicode="&#x43f;" horiz-adv-x="620" 
d="M579 250l-44 -250q-13 0 -33.5 -0.5t-64.5 -1.5t-73 -1h-30l45 253q6 34 -2.5 59.5t-32.5 25.5q-13 0 -31.5 -5t-30.5 -10l-12 -5l-50 -315l-207 -10l75 510l176 10l8 -40h10q67 40 132 40q106 0 148 -59.5t17 -200.5z" />
    <glyph glyph-name="afii10082" unicode="&#x440;" horiz-adv-x="620" 
d="M316 -20q-24 0 -45.5 7.5t-30.5 14.5l-9 8h-10l-34 -220l-211 -10l112 720l176 10l3 -40h10q47 40 107 40q52 0 93.5 -17.5t65 -45.5t40 -62.5t18 -69t-1.5 -65.5q-20 -112 -96 -191t-187 -79zM339 340q-20 0 -40 -7.5t-30 -14.5l-10 -8l-20 -140q22 -20 67 -20
q34 0 57 27.5t29 62.5q8 44 -4.5 72t-48.5 28z" />
    <glyph glyph-name="afii10083" unicode="&#x441;" horiz-adv-x="495" 
d="M9 255q22 121 113.5 193t213.5 72q44 0 91.5 -15t72.5 -30l26 -15l-117 -150q-25 30 -75 30q-46 0 -77 -23t-38 -67q-7 -38 16.5 -64t67.5 -26q22 0 48.5 9t42.5 17l15 9l54 -145q-11 -8 -31 -19.5t-76 -31t-105 -19.5q-134 0 -200 67.5t-42 207.5z" />
    <glyph glyph-name="afii10084" unicode="&#x442;" horiz-adv-x="945" 
d="M645 0l44 250q9 52 1 76t-35 24q-15 0 -31 -7.5t-24 -14.5l-9 -8l-56 -320l-211 -5l45 255q17 100 -33 100q-16 0 -32.5 -7.5t-24.5 -14.5l-8 -8l-56 -320l-207 -10l80 510l176 10l8 -40h10q67 40 132 40q42 0 76 -15t46 -30l13 -15q11 7 30 17t66.5 26.5t83.5 16.5
q102 0 146.5 -61.5t23.5 -198.5l-39 -250h-215z" />
    <glyph glyph-name="afii10085" unicode="&#x443;" horiz-adv-x="625" 
d="M201 -50q100 0 115 85h-10q-35 -25 -105 -25q-200 0 -151 275l43 215l201 10l-42 -240q-7 -42 3.5 -63.5t31.5 -21.5q16 0 30.5 5t21.5 10l7 5l57 295l211 10l-82 -470q-22 -123 -113 -189t-217 -66q-38 0 -72.5 5.5t-57 13.5t-39.5 16.5t-25 13.5l-7 6l87 150
q63 -40 113 -40z" />
    <glyph glyph-name="afii10086" unicode="&#x444;" horiz-adv-x="810" 
d="M596 265q4 24 -2 42t-17.5 26.5t-24 14t-21.5 6.5l-9 1l-35 -200q4 0 10 1t23 7.5t30.5 17t27 33t18.5 51.5zM344 510l37 180l214 20l-41 -200q122 -8 192.5 -69.5t51.5 -165.5q-20 -115 -113.5 -191t-219.5 -84l-42 -205l-206 -10l43 215q-125 8 -201 71t-57 169
q12 68 64 129t126.5 98.5t151.5 42.5zM209 250q-4 -25 1.5 -44t17 -28.5t24 -15t21.5 -6.5l9 -1l35 200q-4 0 -10 -1t-22.5 -7.5t-30.5 -16.5t-27 -31t-18 -49z" />
    <glyph glyph-name="afii10087" unicode="&#x445;" horiz-adv-x="569" 
d="M88 -30l-130 110l196 180l-125 250l234 -5l44 -115h10l145 140l130 -111l-189 -169l127 -240l-231 -10l-56 110h-10z" />
    <glyph glyph-name="afii10088" unicode="&#x446;" horiz-adv-x="650" 
d="M395 0h-385l78 500l206 10l-55 -340h100l65 340l204 -10l-64 -330h75l-38 -275l-209 -20z" />
    <glyph glyph-name="afii10089" unicode="&#x447;" horiz-adv-x="580" 
d="M364 510l204 -10l-98 -500h-205l31 150q-32 -10 -72 -10q-230 0 -166 360l201 10q-15 -79 -12 -123t14 -60.5t33 -16.5l31 5z" />
    <glyph glyph-name="afii10090" unicode="&#x448;" horiz-adv-x="885" 
d="M785 0h-760l63 500l201 10l-40 -340h70l75 340l199 -10l-69 -330h90l59 330l198 -10z" />
    <glyph glyph-name="afii10091" unicode="&#x449;" horiz-adv-x="930" 
d="M670 0h-645l63 500l201 10l-40 -340h70l75 340l199 -10l-69 -330h90l59 330l198 -10l-58 -330h75l-26 -260l-199 -20z" />
    <glyph glyph-name="afii10092" unicode="&#x44a;" horiz-adv-x="620" 
d="M54 510h305l-24 -140h35q125 0 181 -51t40 -139q-14 -82 -91 -136t-197 -54q-44 0 -101 2.5t-92 5.5l-35 2l57 355l-118 10zM311 235l-19 -110h30q27 0 46 14.5t23 40.5q5 23 -7.5 39t-37.5 16h-35z" />
    <glyph glyph-name="afii10093" unicode="&#x44b;" horiz-adv-x="819" 
d="M88 500l201 10l-24 -140h25q125 0 181 -51t40 -139q-14 -82 -91 -136t-197 -54q-44 0 -98.5 2.5t-86.5 5.5l-33 2zM529 0l78 500l201 10l-89 -510h-190zM241 235l-19 -110h20q27 0 46 14.5t23 40.5q5 23 -7.5 39t-37.5 16h-25z" />
    <glyph glyph-name="afii10094" unicode="&#x44c;" horiz-adv-x="540" 
d="M88 500l201 10l-24 -140h35q125 0 181 -51t40 -139q-14 -82 -91 -136t-197 -54q-44 0 -101 2.5t-92 5.5l-35 2zM241 235l-19 -110h30q27 0 46 14.5t23 40.5q5 23 -7.5 39t-37.5 16h-35z" />
    <glyph glyph-name="afii10095" unicode="&#x44d;" horiz-adv-x="505" 
d="M123 185l19 135h149q-2 6 -6 14t-23.5 22t-46.5 14t-58.5 -7.5t-49.5 -14.5l-18 -8l-40 120q11 7 31 17t73.5 26.5t97.5 16.5q140 0 198 -69.5t35 -195.5q-23 -131 -108 -203t-220 -72q-58 0 -109 21t-73 42l-23 21l90 116q61 -50 121 -50q22 0 41 5t30 12.5t19 15
t11 12.5l3 5z" />
    <glyph glyph-name="afii10096" unicode="&#x44e;" horiz-adv-x="830" 
d="M288 500l-35 -170h55q92 190 283 190q117 0 177.5 -76t41.5 -184q-21 -119 -100.5 -199.5t-213.5 -80.5q-95 0 -154.5 57t-61.5 138h-55l-35 -175h-190l89 510zM519 140q34 0 60.5 33.5t35.5 86.5q7 39 -9 69.5t-48 30.5q-33 0 -57.5 -34.5t-33.5 -85.5q-7 -40 6.5 -70
t45.5 -30z" />
    <glyph glyph-name="afii10097" unicode="&#x44f;" horiz-adv-x="580" 
d="M480 0l-202 -10l25 145h-25q-4 -6 -12 -16t-34.5 -36.5t-56.5 -48.5t-77 -44t-96 -30l-35 139q39 18 70 38.5t43 31.5l11 11l2 10q-65 54 -50 140q14 84 92 132t204 48q58 0 114 -2.5t83 -5.5l27 -2zM327 270l20 110h-30q-25 0 -45.5 -15.5t-23.5 -34.5q-5 -23 9.5 -41.5
t39.5 -18.5h30z" />
    <glyph glyph-name="afii10071" unicode="&#x451;" horiz-adv-x="555" 
d="M265 770q42 0 68.5 -29.5t19.5 -70.5q-7 -39 -39 -69.5t-84 -30.5q-47 0 -71 28.5t-17 67.5q8 42 39.5 73t83.5 31zM525 770q42 0 68.5 -29.5t19.5 -70.5q-7 -39 -39 -69.5t-84 -30.5q-47 0 -71 28.5t-17 67.5q8 42 39.5 73t83.5 31zM10 260q20 112 119 186t227 74
q112 0 163 -47t39 -113q-16 -92 -91.5 -141t-172.5 -49q-18 0 -37.5 2.5t-30.5 5.5l-10 2l-2 -10q35 -30 85 -30q35 0 71 7.5t55 14.5l19 8l49 -130q-11 -7 -31.5 -17t-79 -26.5t-111.5 -16.5q-129 0 -206.5 72.5t-54.5 207.5zM236 299q122 1 129 46q3 15 -6 25t-27 10
q-67 0 -96 -81z" />
    <glyph glyph-name="afii10099" unicode="&#x452;" horiz-adv-x="629" 
d="M387 160l3 20q17 90 -54 90q-13 0 -26.5 -5t-19.5 -10l-7 -5l-44 -250h-205l83 475h-4l-71 -5l39 160h60l8 50l207 39l-15 -89h120l-46 -145l-92 -5l-10 -55h10q45 25 105 25q99 0 148 -64.5t24 -205.5l-2 -10q-10 -56 -38.5 -106.5t-62 -82.5t-65.5 -56t-54 -35l-21 -10
l-77 130q4 2 10 7t22.5 20t30 31.5t26.5 41.5t18 50z" />
    <glyph glyph-name="afii10100" unicode="&#x453;" horiz-adv-x="495" 
d="M88 330l-49 120q13 8 34.5 19.5t83 31t114.5 19.5q111 0 164 -51t42 -114q-9 -52 -38.5 -87t-65.5 -51t-70.5 -25t-59 -17t-26.5 -20q-5 -25 55 -25q22 0 54.5 12.5t53.5 25.5l21 12l49 -120q-4 -3 -12 -8.5t-34 -19.5t-54 -24.5t-70 -19t-84 -8.5q-113 0 -170 52
t-45 118q8 47 38 80.5t67.5 49t73.5 25.5t62 19t28 21q2 11 -10 18t-35 7q-22 0 -51.5 -10t-47.5 -20zM348 590l-152 -10l113 180l241 10z" />
    <glyph glyph-name="afii10101" unicode="&#x454;" horiz-adv-x="505" 
d="M375 320l-29 -135l-145 -5q0 -2 1 -5.5t6.5 -12t13.5 -15t25.5 -12t39.5 -5.5q27 0 61.5 12.5t55.5 25.5l22 12l50 -116l-12 -9t-33 -20.5t-51 -25.5t-64.5 -20t-74.5 -9q-135 0 -195 71.5t-37 203.5q23 127 105 196t222 69q44 0 89.5 -15t68.5 -30l24 -15l-84 -120
q-54 30 -114 30q-27 0 -50.5 -12.5t-33.5 -25.5l-10 -12h149z" />
    <glyph glyph-name="afii10102" unicode="&#x455;" horiz-adv-x="495" 
d="M509 450l-91 -120q-53 40 -103 40t-55 -25q-2 -12 20.5 -21t55.5 -19t65 -25.5t50 -49t10 -80.5q-12 -66 -87 -118t-188 -52q-42 0 -80.5 8t-64 20t-45 24t-28.5 20l-8 8l91 120q61 -50 111 -50q60 0 65 25q2 10 -13.5 17.5t-39.5 13t-51 17.5t-49.5 28t-33.5 48t-3 76
q11 63 82 114t182 51q53 0 105 -17.5t78 -34.5z" />
    <glyph glyph-name="afii10103" unicode="&#x456;" horiz-adv-x="310" 
d="M91 490h200l-66 -490h-220zM230 740q43 0 73.5 -30t23.5 -70q-7 -38 -43.5 -69t-88.5 -31q-48 0 -76.5 29t-21.5 67q7 41 43.5 72.5t89.5 31.5z" />
    <glyph glyph-name="afii10104" unicode="&#x457;" horiz-adv-x="350" 
d="M106 490h200l-66 -490h-220zM129 760q42 0 68 -29.5t19 -70.5q-7 -39 -39 -69.5t-84 -30.5q-47 0 -71 28.5t-17 67.5q8 42 40 73t84 31zM389 760q42 0 68 -29.5t19 -70.5q-7 -39 -39 -69.5t-84 -30.5q-47 0 -71 28.5t-17 67.5q8 42 40 73t84 31z" />
    <glyph glyph-name="afii10105" unicode="&#x458;" horiz-adv-x="310" 
d="M96 490h205l-95 -480q-11 -59 -41 -107.5t-64 -75.5t-66 -45.5t-53 -25.5l-22 -6l-76 130q4 2 11 7t26 20t34.5 31.5t30 41.5t19.5 50zM240 740q48 0 76 -30.5t21 -69.5q-6 -39 -45 -69.5t-87 -30.5q-47 0 -75.5 30.5t-22.5 69.5q7 39 46 69.5t87 30.5z" />
    <glyph glyph-name="afii10106" unicode="&#x459;" horiz-adv-x="865" 
d="M599 510l-24 -140h50q125 0 181 -51t40 -139q-14 -82 -91 -136t-197 -54q-44 0 -105 2.5t-99 5.5l-39 2l54 335l-51 -5l-18 -70q-19 -78 -55 -138t-73 -89t-71.5 -47.5t-56.5 -21.5l-22 -4l-63 150q4 2 11.5 6t27 18t36 30t34.5 42t27 54l59 245zM549 225l-17 -100h45
q27 0 46 14.5t23 40.5q3 16 -9.5 30.5t-37.5 14.5h-50z" />
    <glyph glyph-name="afii10107" unicode="&#x45a;" horiz-adv-x="875" 
d="M413 500l201 10l-24 -140h45q125 0 181 -51t40 -139q-14 -82 -91 -136t-197 -54q-44 0 -103.5 2.5t-96.5 5.5l-38 2l34 195l-126 -5l-28 -190h-195l73 500l194 -5l-20 -140l126 5zM564 225l-17 -100h40q27 0 46 14.5t23 40.5q4 22 -8 33.5t-39 11.5h-45z" />
    <glyph glyph-name="afii10108" unicode="&#x45b;" horiz-adv-x="654" 
d="M415 485l-92 -5l-10 -55h10q45 25 105 25q99 0 148 -64.5t24 -205.5l-30 -170l-201 -10l31 180q9 46 -9.5 68t-54.5 22q-13 0 -26.5 -5t-19.5 -10l-7 -5l-44 -250h-205l83 475h-4l-71 -5l39 160h60l8 50l207 39l-15 -89h120z" />
    <glyph glyph-name="afii10109" unicode="&#x45c;" horiz-adv-x="600" 
d="M437 -15q-50 0 -80.5 17t-42.5 43t-18.5 53t-19 50.5t-35.5 31.5l-32 -184l-199 4l79 510l209 -10l-27 -150q23 3 44 30t37.5 56.5t55 54t92.5 24.5q31 0 59 -6.5t40 -12.5l12 -6l-72 -155q-10 5 -25 5q-23 0 -52 -32.5t-55 -37.5l-2 -10q19 -7 33 -24t21 -33.5
t19.5 -29.5t29.5 -13l31 10l25 -145q-67 -40 -127 -40zM418 590l-152 -10l113 180l241 10z" />
    <glyph glyph-name="afii10110" unicode="&#x45e;" horiz-adv-x="625" 
d="M181 689l125 85q3 -6 9.5 -15t27.5 -24.5t43 -15.5q27 0 52 13.5t36 27.5l12 14l95 -85q-3 -4 -9.5 -11.5t-27.5 -26.5t-44.5 -33.5t-61 -26.5t-76.5 -12q-42 0 -76 11.5t-52.5 27.5t-31.5 32t-17 28zM201 -50q100 0 115 85h-10q-35 -25 -105 -25q-200 0 -151 275l43 215
l201 10l-42 -240q-7 -42 3.5 -63.5t31.5 -21.5q16 0 30.5 5t21.5 10l7 5l57 295l211 10l-82 -470q-22 -123 -113 -189t-217 -66q-38 0 -72.5 5.5t-57 13.5t-39.5 16.5t-25 13.5l-7 6l87 150q63 -40 113 -40z" />
    <glyph glyph-name="afii10193" unicode="&#x45f;" horiz-adv-x="620" 
d="M519 -5h-154l-14 -100l-209 -20l22 120h-165l97 495l197 10l-63 -355l111 5l56 345h195z" />
    <glyph glyph-name="afii10050" unicode="&#x490;" horiz-adv-x="559" 
d="M135 710l292 -7l36 102l186 -9l-73 -276h-260l-88 -529l-218 9z" />
    <glyph glyph-name="afii10098" unicode="&#x491;" horiz-adv-x="473" 
d="M526 588l-67 -257q-41 5 -103 5t-100 3l-61 -340l-195 1l97 509l211 -13l34 100z" />
    <glyph glyph-name="uni1E9E" unicode="&#x1e9e;" horiz-adv-x="710" 
d="M432 525h-34q-36 0 -57.5 -22.5t-26.5 -52.5l-83 -470l-211 20l81 460q26 111 106 175.5t216 64.5h250q25 0 33.5 -8t6.5 -22q-3 -13 -11 -30q-113 -211 -117 -227q-4 -24 13 -49t39.5 -45.5t37.5 -55t8 -73.5q-12 -67 -69 -116.5t-131 -73.5t-166 -35l-10 153
q138 28 146 72q4 21 -13 42t-38.5 35.5t-37.5 39t-11 53.5q6 33 32.5 84.5t46.5 80.5z" />
    <glyph glyph-name="endash" unicode="&#x2013;" horiz-adv-x="660" 
d="M20 230l30 170h590l-23 -185z" />
    <glyph glyph-name="emdash" unicode="&#x2014;" horiz-adv-x="905" 
d="M20 230l30 170h835l-23 -185z" />
    <glyph glyph-name="quoteleft" unicode="&#x2018;" horiz-adv-x="290" 
d="M162 380q-50 0 -76.5 35.5t-16.5 94.5q13 71 65 123.5t121 76.5l36 -76q-43 -14 -60 -40q-13 -18 9 -24q67 -18 54 -90q-7 -39 -46 -69.5t-86 -30.5z" />
    <glyph glyph-name="quoteright" unicode="&#x2019;" horiz-adv-x="290" 
d="M220 710q50 0 76 -35.5t16 -94.5q-13 -71 -64.5 -123.5t-120.5 -76.5l-37 76q43 14 60 40q13 18 -9 24q-67 18 -54 90q7 39 46 69.5t87 30.5z" />
    <glyph glyph-name="quotesinglbase" unicode="&#x201a;" horiz-adv-x="290" 
d="M128 190q50 0 76 -35.5t16 -94.5q-13 -71 -64.5 -123.5t-120.5 -76.5l-37 76q43 14 61 40q13 18 -9 24q-31 8 -46 31t-9 59q7 39 46 69.5t87 30.5z" />
    <glyph glyph-name="quotedblleft" unicode="&#x201c;" horiz-adv-x="550" 
d="M422 380q-50 0 -76.5 35.5t-16.5 94.5q13 71 65 123.5t121 76.5l36 -76q-43 -14 -60 -40q-13 -18 9 -24q67 -18 54 -90q-7 -39 -46 -69.5t-86 -30.5zM162 380q-50 0 -76.5 35.5t-16.5 94.5q13 71 65 123.5t121 76.5l36 -76q-43 -14 -60 -40q-13 -18 9 -24q67 -18 54 -90
q-7 -39 -46 -69.5t-86 -30.5z" />
    <glyph glyph-name="quotedblright" unicode="&#x201d;" horiz-adv-x="550" 
d="M220 710q50 0 76 -35.5t16 -94.5q-13 -71 -64.5 -123.5t-120.5 -76.5l-37 76q43 14 60 40q13 18 -9 24q-67 18 -54 90q7 39 46 69.5t87 30.5zM480 710q50 0 76 -35.5t16 -94.5q-13 -71 -64.5 -123.5t-120.5 -76.5l-37 76q43 14 60 40q13 18 -9 24q-67 18 -54 90
q7 39 46 69.5t87 30.5z" />
    <glyph glyph-name="quotedblbase" unicode="&#x201e;" horiz-adv-x="550" 
d="M128 190q50 0 76 -35.5t16 -94.5q-13 -71 -64.5 -123.5t-120.5 -76.5l-37 76q43 14 61 40q13 18 -9 24q-31 8 -46 31t-9 59q7 39 46 69.5t87 30.5zM388 190q50 0 76 -35.5t16 -94.5q-13 -71 -64.5 -123.5t-120.5 -76.5l-37 76q43 14 61 40q13 18 -9 24q-31 8 -46 31
t-9 59q7 39 46 69.5t87 30.5z" />
    <glyph glyph-name="dagger" unicode="&#x2020;" horiz-adv-x="680" 
d="M32 300l35 195h205l44 225l217 -20l-41 -205h185l-26 -205l-194 5l-88 -470h-220l88 470z" />
    <glyph glyph-name="daggerdbl" unicode="&#x2021;" horiz-adv-x="715" 
d="M660 200l-34 -190l-206 -5l-36 -180h-220l36 175l-211 -5l46 205h199l22 120h-207l35 200h207l40 200l217 -20l-37 -180h195l-27 -210l-204 5l-20 -115h205z" />
    <glyph glyph-name="bullet" unicode="&#x2022;" horiz-adv-x="420" 
d="M248 500q67 0 101 -40.5t23 -104.5q-12 -66 -61 -105.5t-114 -39.5t-101 40t-24 105q10 58 60.5 101.5t115.5 43.5z" />
    <glyph glyph-name="ellipsis" unicode="&#x2026;" horiz-adv-x="896" 
d="M128 190q48 0 76 -30.5t21 -69.5q-6 -39 -45 -69.5t-87 -30.5q-47 0 -75.5 30.5t-22.5 69.5q7 39 46 69.5t87 30.5zM431 190q48 0 76 -30.5t21 -69.5q-6 -39 -45 -69.5t-87 -30.5q-47 0 -75.5 30.5t-22.5 69.5q7 39 46.5 69.5t86.5 30.5zM734 190q48 0 76 -30.5t21 -69.5
q-6 -39 -45 -69.5t-87 -30.5q-47 0 -75.5 30.5t-22.5 69.5q7 39 46 69.5t87 30.5z" />
    <glyph glyph-name="perthousand" unicode="&#x2030;" horiz-adv-x="1346" 
d="M698 755l179 -90l-562 -665h-225zM221 350q-85 0 -128 52.5t-29 132.5q14 77 79 141t147 64q88 0 135 -62t32 -144q-13 -79 -78.5 -131.5t-157.5 -52.5zM269 590q-12 0 -24 -16.5t-16 -38.5q-4 -23 3 -39t22 -16q12 0 24 15t16 40q9 55 -25 55zM676 -20q-84 0 -123 52
t-24 133q13 78 74 141.5t142 63.5q87 0 129.5 -61.5t26.5 -144.5q-12 -80 -73 -132t-152 -52zM723 220q-11 0 -23 -16.5t-16 -38.5q-5 -23 2.5 -39t22.5 -16q12 0 23.5 15t16.5 40q9 55 -26 55zM1147 370q90 0 132.5 -56t26.5 -138q-13 -82 -76.5 -139t-151.5 -57
q-82 0 -120.5 59t-25.5 136q15 82 73.5 138.5t141.5 56.5zM1109 130q36 0 45 55q4 25 -2 40t-18 15q-15 0 -28 -16t-17 -39q-4 -22 2.5 -38.5t17.5 -16.5z" />
    <glyph glyph-name="guilsinglleft" unicode="&#x2039;" horiz-adv-x="420" 
d="M364 80l-160 -110l-190 280l295 260l111 -110l-176 -150l-2 -10z" />
    <glyph glyph-name="guilsinglright" unicode="&#x203a;" horiz-adv-x="420" 
d="M104 -30l-120 110l178 160l2 10l-124 150l149 110l205 -260z" />
    <glyph glyph-name="fraction" unicode="&#x2044;" horiz-adv-x="730" 
d="M673 749l130 -50l-685 -736h-174z" />
    <glyph glyph-name="foursuperior" unicode="&#x2074;" horiz-adv-x="385" 
d="M394 505l-7 -95h-50l-13 -70h-120l13 70l-154 5l-4 90l207 215h120l-32 -215h40zM179 505h55l12 70h-10l-56 -60z" />
    <glyph glyph-name="Euro" unicode="&#x20ac;" horiz-adv-x="680" 
d="M1 235l18 105h60l6 30h-55l15 115h75q109 235 396 235q58 0 112.5 -24t80.5 -48l26 -23l-120 -140q-7 6 -19 15t-46 24.5t-65 15.5q-40 0 -74.5 -12.5t-49.5 -25.5l-15 -12l-2 -10l219 -5l-18 -105h-240l-6 -30h235l-10 -115l-224 5l-2 -10q0 -2 1.5 -6t9 -13.5t18 -16.5
t32.5 -13t50 -6q44 0 91.5 15t73.5 30l25 15l64 -150q-6 -4 -16 -10.5t-41 -22.5t-62.5 -28.5t-75 -23t-82.5 -10.5q-293 0 -310 255h-75z" />
    <glyph glyph-name="uni20B4" unicode="&#x20b4;" horiz-adv-x="630" 
d="M644 480l-20 -115h-580l13 130l318 -10l2 10q3 22 -18 41t-62 19q-27 0 -56 -10t-45 -20l-16 -10l-68 125q12 9 33 22.5t85 35.5t126 22q69 0 120.5 -19.5t79 -52t38 -72t3.5 -81.5l-3 -15h50zM7 210l20 115h580l-13 -130l-294 5q-5 -28 13.5 -41.5t51.5 -13.5
q31 0 63 11.5t48 22.5l17 11l59 -120q-3 -4 -8.5 -10t-25.5 -21.5t-44.5 -27.5t-66 -21.5t-87.5 -9.5q-147 0 -208 64.5t-46 160.5z" />
    <glyph glyph-name="uni20BD" unicode="&#x20bd;" horiz-adv-x="731" 
d="M24 308l25 141l91 -2l50 263q239 10 291 10q83 0 147 -21t102 -67t31 -112q-11 -104 -103 -167t-252 -63h-65l-7 -36l221 -3l-18 -156l-229 9l-22 -124l-229 20l21 114l-88 4l25 141l90 -2l8 45zM388 560l-17 -100h65q74 0 83 50q5 22 -12.5 36t-53.5 14h-65z" />
    <glyph glyph-name="afii61352" unicode="&#x2116;" horiz-adv-x="1179" 
d="M30 0l103 700h210l146 -335h10l67 355l217 -20l-140 -680l-213 -20l-136 310h-10l-44 -310h-210zM966 350q-92 0 -137 52t-30 133q14 77 81 141t155 64q94 0 143.5 -61.5t33.5 -144.5q-13 -80 -80 -132t-166 -52zM1014 590q-18 0 -32 -16t-18 -39q-4 -24 5 -39.5
t30 -15.5q19 0 32.5 14.5t17.5 40.5q9 55 -35 55zM743 160l24 140h390l-17 -155z" />
    <glyph glyph-name="trademark" unicode="&#x2122;" horiz-adv-x="990" 
d="M49 565l39 135l379 -5l-25 -140l-114 5l-39 -220l-160 -5l49 225zM989 340h-175l10 140h-10l-67 -100l-101 -5l-27 105h-10l-51 -150l-155 30l141 345l158 -10l18 -155h10l91 150h155z" />
    <glyph glyph-name="minus" unicode="&#x2212;" horiz-adv-x="580" 
d="M571 460l-29 -160h-490l21 175z" />
    <glyph glyph-name="commaaccent" unicode="&#xf6c3;" horiz-adv-x="290" 
d="M86 -50q46 0 70 -32.5t14 -87.5q-11 -64 -57.5 -110t-114.5 -70l-28 70q32 9 52 34q17 23 -6 26q-27 4 -42 25.5t-9 54.5q6 35 41.5 62.5t79.5 27.5z" />
    <glyph glyph-name="cyrBreve" unicode="&#xf6d1;" horiz-adv-x="510" 
d="M146 890l125 85q4 -7 11.5 -17t32 -26.5t51.5 -16.5q31 0 60 15t42 30l13 15l95 -85q-4 -5 -10.5 -14t-29.5 -31.5t-48.5 -39.5t-66 -31t-82.5 -14q-45 0 -81.5 13.5t-56 32.5t-33 38t-18.5 32z" />
    <glyph glyph-name="cyrbreve" unicode="&#xf6d4;" horiz-adv-x="480" 
d="M108 670l125 85q3 -6 9.5 -15t27.5 -24.5t43 -15.5q27 0 52 14t37 28l11 13l95 -85q-3 -4 -9.5 -11.5t-27.5 -26.5t-45 -33.5t-61.5 -26.5t-76.5 -12q-42 0 -76 11.5t-52.5 27.5t-31 32t-16.5 27z" />
    <glyph glyph-name="foundryicon" horiz-adv-x="1230" 
d="M100 -110v920h1030v-920h-1030zM1110 -90v880h-990v-880h990zM635 610h110q36 0 58 -19t22 -46t-22 -46t-58 -19h-55v-80h-55v210zM635 300h110q36 0 58 -19t22 -46t-22 -46t-58 -19h-55v-80h-55v210zM495 170l-75 130h60l40 -75h5l40 75h65l-80 -130v-80h-55v80z
M495 480l-75 130h60l40 -75h5l40 75h65l-80 -130v-80h-55v80zM300 255h-65v45h165l25 -45h-70v-165h-55v165zM300 565h-65v45h165l25 -45h-70v-165h-55v165zM790 400v65q20 4 38 21t22 39h80v-45h-85v-35h120v-45h-175zM790 90v65q20 4 38 21t22 39h80v-45h-85v-35h120v-45
h-175zM810 300h155v-45h-115q-9 37 -40 45zM810 610h155v-45h-115q-9 37 -40 45zM765 545q0 7 -6.5 13.5t-13.5 6.5h-55v-40h55q8 0 14 6t6 14zM765 235q0 7 -6.5 13.5t-13.5 6.5h-55v-40h55q8 0 14 6t6 14z" />
    <glyph glyph-name="Germandbls" horiz-adv-x="710" 
d="M432 525h-34q-36 0 -57.5 -22.5t-26.5 -52.5l-83 -470l-211 20l81 460q26 111 106 175.5t216 64.5h250q25 0 33.5 -8t6.5 -22q-3 -13 -11 -30q-113 -211 -117 -227q-4 -24 13 -49t39.5 -45.5t37.5 -55t8 -73.5q-12 -67 -69 -116.5t-131 -73.5t-166 -35l-10 153
q138 28 146 72q4 21 -13 42t-38.5 35.5t-37.5 39t-11 53.5q6 33 32.5 84.5t46.5 80.5z" />
    <glyph glyph-name="CR" horiz-adv-x="0" 
 />
    </font>
</defs>
</svg>
